<svg width="512" height="512" viewBox="0 0 512 512" fill="none" xmlns="http://www.w3.org/2000/svg">
  <rect width="512" height="512" rx="72" fill="#F4F7FC"/>
  <defs>
    <linearGradient id="brainCortexLeft" x1="100" y1="110" x2="250" y2="366" gradientUnits="userSpaceOnUse">
      <stop offset="0%" stop-color="#75E4FF"/>
      <stop offset="100%" stop-color="#2E62FF"/>
    </linearGradient>
    <linearGradient id="brainCortexRight" x1="250" y1="114" x2="404" y2="376" gradientUnits="userSpaceOnUse">
      <stop offset="0%" stop-color="#FFD575"/>
      <stop offset="100%" stop-color="#FF5FA0"/>
    </linearGradient>
    <linearGradient id="brainCortexBudA" x1="166" y1="98" x2="220" y2="142" gradientUnits="userSpaceOnUse">
      <stop offset="0%" stop-color="#C58EFF"/>
      <stop offset="100%" stop-color="#7D49FF"/>
    </linearGradient>
    <linearGradient id="brainCortexBudB" x1="225" y1="94" x2="283" y2="144" gradientUnits="userSpaceOnUse">
      <stop offset="0%" stop-color="#A4B4FF"/>
      <stop offset="100%" stop-color="#5B59FF"/>
    </linearGradient>
  </defs>
  <g transform="translate(76 82)">
    <path d="M114 32C89 38 69 58 59 88C50 115 49 150 54 184C62 230 89 265 128 276C154 283 176 272 186 249C195 228 194 196 187 156C179 106 164 64 143 40C136 33 125 30 114 32Z" fill="url(#brainCortexLeft)"/>
    <path d="M246 31C275 28 302 39 319 63C335 86 341 115 339 147C337 194 318 238 286 268C262 290 235 297 212 288C189 279 174 255 169 222C161 169 169 118 194 74C207 50 225 34 246 31Z" fill="url(#brainCortexRight)"/>
    <path d="M154 20C143 24 136 32 136 42C136 54 146 63 160 65C173 66 186 59 190 47C194 34 186 23 173 20C166 18 159 18 154 20Z" fill="url(#brainCortexBudA)"/>
    <path d="M218 16C233 14 247 20 254 31C261 42 259 56 249 65C238 74 222 76 209 69C197 62 191 49 195 36C199 25 207 18 218 16Z" fill="url(#brainCortexBudB)"/>

    <path d="M183 40C192 68 194 95 193 131C191 177 198 223 217 259" stroke="#101725" stroke-width="20" stroke-linecap="round"/>
    <path d="M191 129C221 118 244 102 270 72" stroke="#101725" stroke-width="18" stroke-linecap="round"/>
    <path d="M194 177C225 165 252 148 278 121" stroke="#101725" stroke-width="18" stroke-linecap="round"/>

    <path d="M96 88C111 73 127 63 145 58" stroke="#DAF6FF" stroke-opacity="0.44" stroke-width="9" stroke-linecap="round"/>
    <path d="M89 129C112 111 137 100 158 98" stroke="#DAF6FF" stroke-opacity="0.36" stroke-width="9" stroke-linecap="round"/>
    <path d="M90 170C115 153 140 145 159 145" stroke="#DAF6FF" stroke-opacity="0.3" stroke-width="9" stroke-linecap="round"/>

    <path d="M228 84C252 69 278 61 300 62" stroke="#FFF4CA" stroke-opacity="0.42" stroke-width="9" stroke-linecap="round"/>
    <path d="M232 124C258 107 286 100 311 101" stroke="#FFE9C3" stroke-opacity="0.32" stroke-width="9" stroke-linecap="round"/>
    <path d="M228 165C256 151 286 146 311 148" stroke="#FFD7D6" stroke-opacity="0.28" stroke-width="9" stroke-linecap="round"/>
    <path d="M219 207C246 196 272 193 296 197" stroke="#FFD7D6" stroke-opacity="0.24" stroke-width="9" stroke-linecap="round"/>
  </g>
</svg>
