<svg width="1280" height="980" viewBox="0 0 1280 980" fill="none" xmlns="http://www.w3.org/2000/svg">
  <defs>
    <linearGradient id="bg" x1="84" y1="62" x2="1180" y2="916" gradientUnits="userSpaceOnUse">
      <stop stop-color="#F8FBFF"/>
      <stop offset="1" stop-color="#EEF3FB"/>
    </linearGradient>
    <linearGradient id="card" x1="0" y1="0" x2="0" y2="1">
      <stop stop-color="#FFFFFF"/>
      <stop offset="1" stop-color="#F6F9FD"/>
    </linearGradient>

    <linearGradient id="crownMain" x1="256" y1="102" x2="256" y2="428" gradientUnits="userSpaceOnUse">
      <stop stop-color="#8FC7FF"/>
      <stop offset="0.42" stop-color="#3B8DFF"/>
      <stop offset="1" stop-color="#132A67"/>
    </linearGradient>
    <linearGradient id="crownEdgeLeft" x1="156" y1="164" x2="232" y2="320" gradientUnits="userSpaceOnUse">
      <stop stop-color="#0F244F" stop-opacity="0"/>
      <stop offset="1" stop-color="#0F244F" stop-opacity="0.24"/>
    </linearGradient>
    <linearGradient id="crownEdgeRight" x1="356" y1="164" x2="280" y2="320" gradientUnits="userSpaceOnUse">
      <stop stop-color="#0F244F" stop-opacity="0"/>
      <stop offset="1" stop-color="#0F244F" stop-opacity="0.24"/>
    </linearGradient>
    <linearGradient id="crownCore" x1="256" y1="170" x2="256" y2="352" gradientUnits="userSpaceOnUse">
      <stop stop-color="#EEF6FF"/>
      <stop offset="1" stop-color="#BED7FF"/>
    </linearGradient>

    <linearGradient id="loopTop" x1="146" y1="152" x2="360" y2="210" gradientUnits="userSpaceOnUse">
      <stop stop-color="#8EC5FF"/>
      <stop offset="1" stop-color="#347FFF"/>
    </linearGradient>
    <linearGradient id="loopSide" x1="304" y1="150" x2="376" y2="360" gradientUnits="userSpaceOnUse">
      <stop stop-color="#5FA2FF"/>
      <stop offset="1" stop-color="#163C85"/>
    </linearGradient>
    <linearGradient id="loopBottom" x1="360" y1="362" x2="148" y2="308" gradientUnits="userSpaceOnUse">
      <stop stop-color="#1C56C1"/>
      <stop offset="1" stop-color="#8ABEFF"/>
    </linearGradient>
    <linearGradient id="loopLeft" x1="150" y1="360" x2="118" y2="152" gradientUnits="userSpaceOnUse">
      <stop stop-color="#79B6FF"/>
      <stop offset="1" stop-color="#C8E0FF"/>
    </linearGradient>
    <linearGradient id="eyeShell" x1="186" y1="208" x2="328" y2="304" gradientUnits="userSpaceOnUse">
      <stop stop-color="#F4F9FF"/>
      <stop offset="1" stop-color="#D4E5FF"/>
    </linearGradient>

    <g id="crown-v3">
      <path d="M144 356L180 122L234 222L256 102L278 222L332 122L368 356L256 428L144 356Z" fill="url(#crownMain)"/>
      <path d="M180 122L234 222L190 330L144 356L180 122Z" fill="url(#crownEdgeLeft)"/>
      <path d="M332 122L278 222L322 330L368 356L332 122Z" fill="url(#crownEdgeRight)"/>
      <path d="M234 222L256 166L278 222L256 354L234 222Z" fill="url(#crownCore)"/>
    </g>

    <g id="lens-v3">
      <rect x="150" y="132" width="214" height="78" rx="39" fill="url(#loopTop)"/>
      <rect x="302" y="150" width="74" height="214" rx="37" fill="url(#loopSide)"/>
      <rect x="148" y="302" width="214" height="74" rx="37" fill="url(#loopBottom)"/>
      <rect x="132" y="148" width="78" height="214" rx="39" fill="url(#loopLeft)"/>
      <rect x="294" y="150" width="70" height="52" rx="26" fill="url(#loopTop)"/>
      <rect x="302" y="294" width="52" height="70" rx="26" fill="url(#loopSide)"/>
      <rect x="148" y="302" width="70" height="52" rx="26" fill="url(#loopBottom)"/>
      <rect x="132" y="148" width="52" height="70" rx="26" fill="url(#loopLeft)"/>
      <path d="M184 256C206.667 220 230.667 202 256 202C281.333 202 305.333 220 328 256C305.333 292 281.333 310 256 310C230.667 310 206.667 292 184 256Z" fill="url(#eyeShell)"/>
      <path d="M198 256C216.667 228.667 236 215 256 215C276 215 295.333 228.667 314 256C295.333 283.333 276 297 256 297C236 297 216.667 283.333 198 256Z" fill="#5F5552"/>
      <circle cx="256" cy="256" r="30" fill="#E6F1FF"/>
      <circle cx="256" cy="256" r="18" fill="#173A82"/>
    </g>
  </defs>

  <rect width="1280" height="980" rx="40" fill="url(#bg)"/>
  <text x="72" y="96" fill="#0F172A" font-family="Syne, Arial, sans-serif" font-size="48" font-weight="700">Gradient crown + impossible lens round</text>
  <text x="72" y="138" fill="#55657F" font-family="Manrope, Arial, sans-serif" font-size="24">Crown pushed back toward gradient-led simplicity. Lens rebuilt around one impossible-shape idea with the eye inside.</text>

  <rect x="56" y="198" width="540" height="614" rx="30" fill="url(#card)" stroke="#D9E4F2"/>
  <rect x="684" y="198" width="540" height="614" rx="30" fill="url(#card)" stroke="#D9E4F2"/>

  <g transform="translate(126 232) scale(0.66)"><use href="#crown-v3"/></g>
  <g transform="translate(754 232) scale(0.66)"><use href="#lens-v3"/></g>

  <text x="88" y="674" fill="#111827" font-family="Syne, Arial, sans-serif" font-size="30" font-weight="700">Crown Node v3</text>
  <text x="88" y="710" fill="#596984" font-family="Manrope, Arial, sans-serif" font-size="19">
    <tspan x="88" dy="0">More of the depth now comes from gradient,</tspan>
    <tspan x="88" dy="26">not from visible facet stacking.</tspan>
  </text>
  <g transform="translate(88 754) scale(0.09375)"><use href="#crown-v3"/></g>
  <g transform="translate(136 766) scale(0.0625)"><use href="#crown-v3"/></g>
  <g transform="translate(176 776) scale(0.0390625)"><use href="#crown-v3"/></g>

  <text x="716" y="674" fill="#111827" font-family="Syne, Arial, sans-serif" font-size="30" font-weight="700">Lens Core v3</text>
  <text x="716" y="710" fill="#596984" font-family="Manrope, Arial, sans-serif" font-size="19">
    <tspan x="716" dy="0">Simpler extras, one stronger impossible loop,</tspan>
    <tspan x="716" dy="26">and the eye remains the anchor.</tspan>
  </text>
  <g transform="translate(716 754) scale(0.09375)"><use href="#lens-v3"/></g>
  <g transform="translate(764 766) scale(0.0625)"><use href="#lens-v3"/></g>
  <g transform="translate(804 776) scale(0.0390625)"><use href="#lens-v3"/></g>

  <rect x="56" y="856" width="1168" height="88" rx="24" fill="#FFFFFF" stroke="#D9E4F2"/>
  <text x="88" y="912" fill="#54647E" font-family="Manrope, Arial, sans-serif" font-size="22">My read: this is closer to your note. The crown is calmer and cleaner. The lens is more concept-led now, though it may still want one more pass to make the impossible read even faster.</text>
</svg>
