<svg width="512" height="512" viewBox="0 0 512 512" fill="none" xmlns="http://www.w3.org/2000/svg">
  <rect width="512" height="512" fill="#FFFFFF"/>
  <path d="M 253.90 331.95 L 253.90 345.63 L 253.63 356.16 L 253.11 363.53 L 252.32 367.74 L 251.26 368.79 L 250.47 369.93 L 249.95 371.16 L 249.69 372.47 L 249.69 373.88 L 249.33 375.37 L 248.63 376.95 L 247.58 378.61 L 246.18 380.37 L 244.42 381.77 L 242.32 382.82 L 239.86 383.52 L 237.06 383.87 L 234.25 383.96 L 231.44 383.79 L 228.64 383.35 L 225.83 382.65 L 223.37 381.86 L 221.27 380.98 L 219.51 380.01 L 218.11 378.96 L 217.06 378.00 L 216.36 377.12 L 216.01 376.33 L 216.01 375.63 L 215.74 375.10 L 215.22 374.75 L 214.43 374.58 L 213.38 374.58 L 212.59 374.40 L 212.06 374.05 L 211.80 373.52 L 211.80 372.82 L 211.53 372.21 L 211.01 371.68 L 210.22 371.24 L 209.17 370.89 L 208.29 370.37 L 207.59 369.67 L 207.06 368.79 L 206.71 367.74 L 206.10 366.86 L 205.22 366.16 L 204.08 365.63 L 202.68 365.28 L 201.62 364.84 L 200.92 364.32 L 200.57 363.70 L 200.57 363.00 L 200.04 362.21 L 198.99 361.33 L 197.41 360.37 L 195.31 359.32 L 193.64 358.26 L 192.41 357.21 L 191.62 356.16 L 191.27 355.11 L 190.75 354.32 L 190.05 353.79 L 189.17 353.53 L 188.12 353.53 L 187.33 353.26 L 186.80 352.74 L 186.54 351.95 L 186.54 350.90 L 186.27 350.11 L 185.75 349.58 L 184.96 349.32 L 183.91 349.32 L 183.12 349.14 L 182.59 348.79 L 182.33 348.27 L 182.33 347.56 L 182.06 346.95 L 181.54 346.42 L 180.75 345.99 L 179.70 345.63 L 178.47 344.85 L 177.07 343.62 L 175.49 341.95 L 173.73 339.85 L 172.24 338.27 L 171.01 337.21 L 170.05 336.69 L 169.35 336.69 L 168.38 336.16 L 167.15 335.11 L 165.66 333.53 L 163.91 331.43 L 162.42 329.85 L 161.19 328.80 L 160.23 328.27 L 159.52 328.27 L 158.91 328.01 L 158.38 327.48 L 157.95 326.69 L 157.60 325.64 L 157.07 324.76 L 156.37 324.06 L 155.49 323.53 L 154.44 323.18 L 153.65 322.74 L 153.12 322.22 L 152.86 321.60 L 152.86 320.90 L 152.60 320.38 L 152.07 320.02 L 151.28 319.85 L 150.23 319.85 L 149.44 319.59 L 148.91 319.06 L 148.65 318.27 L 148.65 317.22 L 148.39 316.43 L 147.86 315.90 L 147.07 315.64 L 146.02 315.64 L 145.23 315.46 L 144.70 315.11 L 144.44 314.59 L 144.44 313.89 L 144.18 313.27 L 143.65 312.75 L 142.86 312.31 L 141.81 311.96 L 140.58 311.17 L 139.18 309.94 L 137.60 308.27 L 135.84 306.17 L 134.35 304.59 L 133.13 303.54 L 132.16 303.01 L 131.46 303.01 L 130.49 302.48 L 129.27 301.43 L 127.78 299.85 L 126.02 297.75 L 124.53 296.17 L 123.30 295.12 L 122.34 294.59 L 121.64 294.59 L 121.02 294.33 L 120.50 293.80 L 120.06 293.01 L 119.71 291.96 L 119.18 291.08 L 118.48 290.38 L 117.60 289.85 L 116.55 289.50 L 115.76 289.06 L 115.23 288.54 L 114.97 287.92 L 114.97 287.22 L 114.71 286.70 L 114.18 286.35 L 113.39 286.17 L 112.34 286.17 L 111.55 285.91 L 111.02 285.38 L 110.76 284.59 L 110.76 283.54 L 110.50 282.75 L 109.97 282.22 L 109.18 281.96 L 108.13 281.96 L 107.34 281.79 L 106.81 281.43 L 106.55 280.91 L 106.55 280.21 L 106.29 279.59 L 105.76 279.07 L 104.97 278.63 L 103.92 278.28 L 103.13 277.84 L 102.60 277.31 L 102.34 276.70 L 102.34 276.00 L 102.08 275.38 L 101.55 274.86 L 100.76 274.42 L 99.71 274.07 L 98.83 273.54 L 98.13 272.84 L 97.60 271.96 L 97.25 270.91 L 96.82 270.12 L 96.29 269.59 L 95.68 269.33 L 94.97 269.33 L 94.45 269.07 L 94.10 268.54 L 93.92 267.75 L 93.92 266.70 L 93.66 265.91 L 93.13 265.38 L 92.34 265.12 L 91.29 265.12 L 90.50 264.86 L 89.97 264.33 L 89.71 263.54 L 89.71 262.49 L 89.45 261.61 L 88.92 260.91 L 88.13 260.39 L 87.08 260.03 L 86.29 259.51 L 85.76 258.81 L 85.50 257.93 L 85.50 256.88 L 85.33 256.09 L 84.98 255.56 L 84.45 255.30 L 83.75 255.30 L 83.13 254.95 L 82.61 254.25 L 82.17 253.19 L 81.82 251.79 L 81.29 250.56 L 80.59 249.51 L 79.71 248.63 L 78.66 247.93 L 77.87 247.14 L 77.35 246.26 L 77.08 245.30 L 77.08 244.25 L 76.82 243.28 L 76.29 242.41 L 75.50 241.62 L 74.45 240.91 L 72.87 238.28 L 70.77 233.72 L 68.14 227.23 L 64.98 218.81 L 62.61 210.39 L 61.03 201.97 L 60.24 193.55 L 60.24 185.13 L 60.51 178.29 L 61.03 173.03 L 61.82 169.35 L 62.87 167.24 L 63.66 165.14 L 64.19 163.03 L 64.45 160.93 L 64.45 158.82 L 64.72 156.98 L 65.24 155.40 L 66.03 154.09 L 67.08 153.03 L 67.87 151.98 L 68.40 150.93 L 68.66 149.88 L 68.66 148.82 L 68.93 147.77 L 69.45 146.72 L 70.24 145.67 L 71.29 144.61 L 72.35 143.12 L 73.40 141.19 L 74.45 138.83 L 75.50 136.02 L 76.56 133.83 L 77.61 132.25 L 78.66 131.28 L 79.71 130.93 L 80.50 130.41 L 81.03 129.70 L 81.29 128.83 L 81.29 127.78 L 81.55 126.81 L 82.08 125.93 L 82.87 125.14 L 83.92 124.44 L 84.98 123.39 L 86.03 121.99 L 87.08 120.23 L 88.13 118.13 L 89.19 116.46 L 90.24 115.23 L 91.29 114.44 L 92.34 114.09 L 93.13 113.65 L 93.66 113.13 L 93.92 112.51 L 93.92 111.81 L 94.18 111.20 L 94.71 110.67 L 95.50 110.23 L 96.55 109.88 L 97.34 109.45 L 97.87 108.92 L 98.13 108.30 L 98.13 107.60 L 98.39 106.99 L 98.92 106.46 L 99.71 106.02 L 100.76 105.67 L 101.64 105.15 L 102.34 104.45 L 102.87 103.57 L 103.22 102.52 L 103.74 101.73 L 104.45 101.20 L 105.32 100.94 L 106.38 100.94 L 107.16 100.76 L 107.69 100.41 L 107.95 99.89 L 107.95 99.18 L 108.30 98.57 L 109.01 98.04 L 110.06 97.60 L 111.46 97.25 L 112.60 96.73 L 113.48 96.03 L 114.09 95.15 L 114.44 94.10 L 114.97 93.31 L 115.67 92.78 L 116.55 92.52 L 117.60 92.52 L 118.48 92.34 L 119.18 91.99 L 119.71 91.47 L 120.06 90.76 L 120.76 90.15 L 121.81 89.62 L 123.21 89.19 L 124.97 88.83 L 126.55 88.31 L 127.95 87.61 L 129.18 86.73 L 130.23 85.68 L 131.46 84.89 L 132.86 84.36 L 134.44 84.10 L 136.20 84.10 L 137.86 83.84 L 139.44 83.31 L 140.93 82.52 L 142.33 81.47 L 144.97 80.68 L 148.82 80.15 L 153.91 79.89 L 160.23 79.89 L 165.31 80.15 L 169.17 80.68 L 171.80 81.47 L 173.21 82.52 L 174.70 83.31 L 176.28 83.84 L 177.94 84.10 L 179.70 84.10 L 181.28 84.36 L 182.68 84.89 L 183.91 85.68 L 184.96 86.73 L 186.54 87.78 L 188.64 88.83 L 191.27 89.89 L 194.43 90.94 L 196.80 91.90 L 198.38 92.78 L 199.17 93.57 L 199.17 94.27 L 199.87 95.15 L 201.27 96.20 L 203.38 97.43 L 206.18 98.83 L 208.38 100.15 L 209.95 101.38 L 210.92 102.52 L 211.27 103.57 L 211.71 104.36 L 212.24 104.88 L 212.85 105.15 L 213.55 105.15 L 214.16 105.41 L 214.69 105.94 L 215.13 106.73 L 215.48 107.78 L 215.92 108.57 L 216.45 109.09 L 217.06 109.36 L 217.76 109.36 L 218.37 109.62 L 218.90 110.15 L 219.34 110.94 L 219.69 111.99 L 220.22 112.87 L 220.92 113.57 L 221.80 114.09 L 222.85 114.44 L 223.64 114.97 L 224.16 115.67 L 224.43 116.55 L 224.43 117.60 L 224.60 118.39 L 224.95 118.92 L 225.48 119.18 L 226.18 119.18 L 226.79 119.53 L 227.32 120.23 L 227.76 121.29 L 228.11 122.69 L 228.64 123.83 L 229.34 124.71 L 230.21 125.32 L 231.27 125.67 L 232.06 126.28 L 232.58 127.16 L 232.85 128.30 L 232.85 129.70 L 233.11 130.93 L 233.64 131.99 L 234.42 132.86 L 235.48 133.56 L 236.27 134.35 L 236.79 135.23 L 237.06 136.20 L 237.06 137.25 L 237.32 138.30 L 237.85 139.35 L 238.63 140.40 L 239.69 141.46 L 240.48 142.77 L 241.00 144.35 L 241.27 146.19 L 241.27 148.30 L 241.53 150.23 L 242.05 151.98 L 242.84 153.56 L 243.90 154.96 L 244.69 162.07 L 245.21 174.87 L 245.48 193.38 L 245.48 217.59 L 245.74 236.53 L 246.26 250.21 L 247.05 258.63 L 248.11 261.79 L 248.90 265.47 L 249.42 269.68 L 249.69 274.42 L 249.69 279.68 L 249.86 283.98 L 250.21 287.31 L 250.74 289.68 L 251.44 291.08 L 252.05 293.19 L 252.58 295.99 L 253.02 299.50 L 253.37 303.71 L 253.63 306.96 L 253.81 309.24 L 253.90 310.55 L 253.90 310.90 L 253.90 314.59 L 253.90 321.60 L 253.90 331.95 Z M 378.61 280.38 L 380.37 279.33 L 381.77 278.28 L 382.82 277.22 L 383.52 276.17 L 383.87 275.12 L 384.40 274.33 L 385.10 273.80 L 385.98 273.54 L 387.03 273.54 L 387.82 273.28 L 388.35 272.75 L 388.61 271.96 L 388.61 270.91 L 388.87 270.12 L 389.40 269.59 L 390.19 269.33 L 391.24 269.33 L 392.12 269.07 L 392.82 268.54 L 393.35 267.75 L 393.70 266.70 L 394.14 265.91 L 394.66 265.38 L 395.28 265.12 L 395.98 265.12 L 396.68 264.86 L 397.38 264.33 L 398.08 263.54 L 398.78 262.49 L 399.49 261.70 L 400.19 261.17 L 400.89 260.91 L 401.59 260.91 L 402.12 260.74 L 402.47 260.39 L 402.64 259.86 L 402.64 259.16 L 403.26 258.28 L 404.48 257.23 L 406.33 256.00 L 408.78 254.60 L 410.71 253.28 L 412.11 252.05 L 412.99 250.91 L 413.34 249.86 L 413.87 248.98 L 414.57 248.28 L 415.45 247.76 L 416.50 247.40 L 417.29 246.97 L 417.82 246.44 L 418.08 245.83 L 418.08 245.12 L 418.34 244.60 L 418.87 244.25 L 419.66 244.07 L 420.71 244.07 L 421.50 243.81 L 422.03 243.28 L 422.29 242.49 L 422.29 241.44 L 422.55 240.65 L 423.08 240.13 L 423.87 239.86 L 424.92 239.86 L 425.80 239.60 L 426.50 239.07 L 427.02 238.28 L 427.38 237.23 L 428.25 236.18 L 429.66 235.13 L 431.59 234.07 L 434.04 233.02 L 436.06 231.97 L 437.64 230.92 L 438.78 229.86 L 439.48 228.81 L 440.36 228.02 L 441.41 227.50 L 442.64 227.23 L 444.04 227.23 L 445.35 226.97 L 446.58 226.44 L 447.72 225.65 L 448.78 224.60 L 450.18 223.81 L 451.93 223.29 L 454.04 223.02 L 456.49 223.02 L 458.86 223.55 L 461.14 224.60 L 463.33 226.18 L 465.44 228.29 L 467.02 233.37 L 468.07 241.44 L 468.60 252.49 L 468.60 266.52 L 468.33 277.66 L 467.81 285.91 L 467.02 291.26 L 465.97 293.71 L 465.18 296.34 L 464.65 299.15 L 464.39 302.13 L 464.39 305.29 L 464.12 308.01 L 463.60 310.29 L 462.81 312.13 L 461.76 313.53 L 460.97 315.11 L 460.44 316.87 L 460.18 318.80 L 460.18 320.90 L 459.91 322.74 L 459.39 324.32 L 458.60 325.64 L 457.55 326.69 L 456.76 327.92 L 456.23 329.32 L 455.97 330.90 L 455.97 332.65 L 455.70 334.23 L 455.18 335.64 L 454.39 336.86 L 453.34 337.92 L 452.55 339.06 L 452.02 340.28 L 451.76 341.60 L 451.76 343.00 L 451.49 344.32 L 450.97 345.55 L 450.18 346.69 L 449.13 347.74 L 448.07 349.32 L 447.02 351.42 L 445.97 354.05 L 444.92 357.21 L 443.86 359.75 L 442.81 361.68 L 441.76 363.00 L 440.71 363.70 L 439.92 364.49 L 439.39 365.37 L 439.13 366.33 L 439.13 367.39 L 438.86 368.35 L 438.34 369.23 L 437.55 370.02 L 436.50 370.72 L 435.44 371.86 L 434.39 373.44 L 433.34 375.45 L 432.29 377.91 L 431.23 379.84 L 430.18 381.24 L 429.13 382.12 L 428.08 382.47 L 427.29 383.00 L 426.76 383.70 L 426.50 384.58 L 426.50 385.63 L 426.15 386.68 L 425.45 387.73 L 424.39 388.79 L 422.99 389.84 L 421.94 390.80 L 421.24 391.68 L 420.89 392.47 L 420.89 393.17 L 420.45 394.05 L 419.57 395.10 L 418.25 396.33 L 416.50 397.73 L 415.10 399.05 L 414.04 400.27 L 413.34 401.41 L 412.99 402.47 L 412.55 403.26 L 412.03 403.78 L 411.41 404.05 L 410.71 404.05 L 410.10 404.31 L 409.57 404.84 L 409.13 405.62 L 408.78 406.68 L 408.34 407.47 L 407.82 407.99 L 407.20 408.26 L 406.50 408.26 L 405.89 408.52 L 405.36 409.05 L 404.92 409.83 L 404.57 410.89 L 404.13 411.68 L 403.61 412.20 L 402.99 412.47 L 402.29 412.47 L 401.68 412.73 L 401.15 413.25 L 400.71 414.04 L 400.36 415.10 L 399.22 416.41 L 397.29 417.99 L 394.57 419.83 L 391.07 421.94 L 388.35 423.78 L 386.42 425.36 L 385.28 426.67 L 384.93 427.73 L 384.40 428.52 L 383.70 429.04 L 382.82 429.30 L 381.77 429.30 L 380.89 429.57 L 380.19 430.09 L 379.66 430.88 L 379.31 431.94 L 378.35 432.99 L 376.77 434.04 L 374.58 435.09 L 371.77 436.15 L 369.67 437.11 L 368.26 437.99 L 367.56 438.78 L 367.56 439.48 L 367.03 440.09 L 365.98 440.62 L 364.40 441.06 L 362.30 441.41 L 360.63 441.93 L 359.40 442.64 L 358.61 443.51 L 358.26 444.57 L 357.65 445.35 L 356.77 445.88 L 355.63 446.14 L 354.23 446.14 L 353.00 446.41 L 351.95 446.93 L 351.07 447.72 L 350.37 448.78 L 349.41 449.56 L 348.18 450.09 L 346.69 450.35 L 344.93 450.35 L 343.62 450.53 L 342.74 450.88 L 342.30 451.41 L 342.30 452.11 L 341.78 452.72 L 340.72 453.25 L 339.14 453.69 L 337.04 454.04 L 335.20 454.56 L 333.62 455.27 L 332.30 456.14 L 331.25 457.20 L 329.76 457.98 L 327.83 458.51 L 325.46 458.77 L 322.66 458.77 L 320.46 458.95 L 318.88 459.30 L 317.92 459.83 L 317.57 460.53 L 316.25 461.05 L 313.97 461.40 L 310.73 461.58 L 306.52 461.58 L 303.19 461.40 L 300.73 461.05 L 299.15 460.53 L 298.45 459.83 L 297.48 459.30 L 296.26 458.95 L 294.77 458.77 L 293.01 458.77 L 291.26 458.42 L 289.50 457.72 L 287.75 456.67 L 286.00 455.27 L 284.68 454.04 L 283.80 452.99 L 283.36 452.11 L 283.36 451.41 L 283.10 450.79 L 282.57 450.27 L 281.79 449.83 L 280.73 449.48 L 279.94 448.95 L 279.42 448.25 L 279.15 447.37 L 279.15 446.32 L 278.98 445.53 L 278.63 445.00 L 278.10 444.74 L 277.40 444.74 L 276.79 444.13 L 276.26 442.90 L 275.82 441.06 L 275.47 438.60 L 274.94 436.41 L 274.24 434.48 L 273.37 432.81 L 272.31 431.41 L 271.52 428.34 L 271.00 423.60 L 270.73 417.20 L 270.73 409.13 L 271.00 402.55 L 271.52 397.47 L 272.31 393.87 L 273.37 391.77 L 274.15 389.57 L 274.68 387.29 L 274.94 384.93 L 274.94 382.47 L 275.21 380.37 L 275.73 378.61 L 276.52 377.21 L 277.58 376.16 L 278.63 374.58 L 279.68 372.47 L 280.73 369.84 L 281.79 366.68 L 282.75 364.32 L 283.63 362.74 L 284.42 361.95 L 285.12 361.95 L 285.73 361.68 L 286.26 361.16 L 286.70 360.37 L 287.05 359.32 L 288.36 357.47 L 290.64 354.84 L 293.89 351.42 L 298.10 347.21 L 301.43 344.06 L 303.89 341.95 L 305.47 340.90 L 306.17 340.90 L 306.78 340.64 L 307.31 340.11 L 307.75 339.32 L 308.10 338.27 L 308.62 337.39 L 309.32 336.69 L 310.20 336.16 L 311.25 335.81 L 312.04 335.37 L 312.57 334.85 L 312.83 334.23 L 312.83 333.53 L 313.10 333.00 L 313.62 332.65 L 314.41 332.48 L 315.46 332.48 L 316.52 332.04 L 317.57 331.16 L 318.62 329.85 L 319.67 328.09 L 321.16 326.43 L 323.09 324.85 L 325.46 323.36 L 328.27 321.95 L 330.46 320.64 L 332.04 319.41 L 333.00 318.27 L 333.36 317.22 L 333.88 316.43 L 334.58 315.90 L 335.46 315.64 L 336.51 315.64 L 337.30 315.38 L 337.83 314.85 L 338.09 314.06 L 338.09 313.01 L 338.35 312.22 L 338.88 311.69 L 339.67 311.43 L 340.72 311.43 L 341.51 311.25 L 342.04 310.90 L 342.30 310.38 L 342.30 309.68 L 343.27 308.54 L 345.20 306.96 L 348.09 304.94 L 351.95 302.48 L 354.93 300.38 L 357.04 298.62 L 358.26 297.22 L 358.61 296.17 L 359.14 295.38 L 359.84 294.85 L 360.72 294.59 L 361.77 294.59 L 362.56 294.33 L 363.09 293.80 L 363.35 293.01 L 363.35 291.96 L 363.61 291.17 L 364.14 290.64 L 364.93 290.38 L 365.98 290.38 L 366.77 290.20 L 367.30 289.85 L 367.56 289.33 L 367.56 288.63 L 368.00 287.75 L 368.88 286.70 L 370.19 285.47 L 371.95 284.07 L 373.35 283.01 L 374.40 282.31 L 375.10 281.96 L 375.45 281.96 L 376.16 281.70 L 377.21 281.17 L 378.61 280.38 Z M 430.71 184.43 L 430.71 185.84 L 430.45 187.06 L 429.92 188.12 L 429.13 188.99 L 428.08 189.70 L 427.29 190.66 L 426.76 191.89 L 426.50 193.38 L 426.50 195.13 L 426.24 196.54 L 425.71 197.59 L 424.92 198.29 L 423.87 198.64 L 422.99 199.34 L 422.29 200.40 L 421.76 201.80 L 421.41 203.55 L 420.97 204.87 L 420.45 205.75 L 419.83 206.18 L 419.13 206.18 L 418.60 206.45 L 418.25 206.97 L 418.08 207.76 L 418.08 208.81 L 417.82 209.78 L 417.29 210.66 L 416.50 211.45 L 415.45 212.15 L 414.40 213.20 L 413.34 214.60 L 412.29 216.36 L 411.24 218.46 L 410.19 220.13 L 409.13 221.36 L 408.08 222.15 L 407.03 222.50 L 406.24 223.02 L 405.71 223.72 L 405.45 224.60 L 405.45 225.65 L 405.27 226.44 L 404.92 226.97 L 404.40 227.23 L 403.70 227.23 L 403.08 227.50 L 402.55 228.02 L 402.12 228.81 L 401.77 229.86 L 400.45 231.71 L 398.17 234.34 L 394.92 237.76 L 390.71 241.97 L 387.38 245.12 L 384.93 247.23 L 383.35 248.28 L 382.65 248.28 L 382.03 248.55 L 381.51 249.07 L 381.07 249.86 L 380.72 250.91 L 380.19 251.79 L 379.49 252.49 L 378.61 253.02 L 377.56 253.37 L 376.77 253.81 L 376.24 254.33 L 375.98 254.95 L 375.98 255.65 L 375.72 256.26 L 375.19 256.79 L 374.40 257.23 L 373.35 257.58 L 372.56 258.02 L 372.03 258.54 L 371.77 259.16 L 371.77 259.86 L 371.51 260.39 L 370.98 260.74 L 370.19 260.91 L 369.14 260.91 L 368.35 261.17 L 367.82 261.70 L 367.56 262.49 L 367.56 263.54 L 367.30 264.33 L 366.77 264.86 L 365.98 265.12 L 364.93 265.12 L 364.14 265.30 L 363.61 265.65 L 363.35 266.17 L 363.35 266.88 L 362.74 267.75 L 361.51 268.80 L 359.67 270.03 L 357.21 271.44 L 355.37 272.66 L 354.14 273.72 L 353.53 274.59 L 353.53 275.30 L 353.18 275.91 L 352.48 276.44 L 351.42 276.87 L 350.02 277.22 L 348.88 277.75 L 348.00 278.45 L 347.39 279.33 L 347.04 280.38 L 346.51 281.26 L 345.81 281.96 L 344.93 282.49 L 343.88 282.84 L 343.09 283.28 L 342.56 283.80 L 342.30 284.42 L 342.30 285.12 L 342.04 285.64 L 341.51 286.00 L 340.72 286.17 L 339.67 286.17 L 338.88 286.35 L 338.35 286.70 L 338.09 287.22 L 338.09 287.92 L 337.13 289.06 L 335.20 290.64 L 332.30 292.66 L 328.44 295.12 L 325.46 297.22 L 323.36 298.98 L 322.13 300.38 L 321.78 301.43 L 321.25 302.22 L 320.55 302.75 L 319.67 303.01 L 318.62 303.01 L 317.74 303.27 L 317.04 303.80 L 316.52 304.59 L 316.17 305.64 L 314.67 307.22 L 312.04 309.32 L 308.27 311.96 L 303.36 315.11 L 298.89 317.48 L 294.85 319.06 L 291.26 319.85 L 288.10 319.85 L 285.73 319.59 L 284.15 319.06 L 283.36 318.27 L 283.36 317.22 L 283.10 316.43 L 282.57 315.90 L 281.79 315.64 L 280.73 315.64 L 279.94 315.29 L 279.42 314.59 L 279.15 313.53 L 279.15 312.13 L 278.89 310.82 L 278.36 309.59 L 277.58 308.45 L 276.52 307.40 L 275.73 305.90 L 275.21 303.97 L 274.94 301.61 L 274.94 298.80 L 274.68 296.17 L 274.15 293.71 L 273.37 291.43 L 272.31 289.33 L 271.52 286.43 L 271.00 282.75 L 270.73 278.28 L 270.73 273.01 L 270.47 268.02 L 269.95 263.28 L 269.16 258.81 L 268.10 254.60 L 267.31 249.25 L 266.79 242.76 L 266.52 235.13 L 266.52 226.36 L 266.79 218.20 L 267.31 210.66 L 268.10 203.73 L 269.16 197.41 L 269.95 190.92 L 270.47 184.26 L 270.73 177.42 L 270.73 170.40 L 270.82 164.87 L 271.00 160.84 L 271.26 158.30 L 271.61 157.24 L 272.05 156.45 L 272.58 155.93 L 273.19 155.67 L 273.89 155.67 L 274.51 155.23 L 275.03 154.35 L 275.47 153.03 L 275.82 151.28 L 276.26 149.96 L 276.79 149.09 L 277.40 148.65 L 278.10 148.65 L 278.72 148.39 L 279.24 147.86 L 279.68 147.07 L 280.03 146.02 L 280.73 145.14 L 281.79 144.44 L 283.19 143.91 L 284.94 143.56 L 286.35 143.04 L 287.40 142.33 L 288.10 141.46 L 288.45 140.40 L 289.15 139.62 L 290.20 139.09 L 291.61 138.83 L 293.36 138.83 L 294.94 138.56 L 296.34 138.04 L 297.57 137.25 L 298.62 136.20 L 300.12 135.41 L 302.05 134.88 L 304.41 134.62 L 307.22 134.62 L 309.41 134.44 L 310.99 134.09 L 311.96 133.56 L 312.31 132.86 L 313.27 132.25 L 314.85 131.72 L 317.04 131.28 L 319.85 130.93 L 322.22 130.41 L 324.15 129.70 L 325.64 128.83 L 326.69 127.78 L 328.44 126.72 L 330.90 125.67 L 334.06 124.62 L 337.92 123.57 L 340.99 122.51 L 343.27 121.46 L 344.76 120.41 L 345.46 119.36 L 346.34 118.57 L 347.39 118.04 L 348.62 117.78 L 350.02 117.78 L 351.34 117.51 L 352.56 116.99 L 353.70 116.20 L 354.76 115.15 L 355.90 114.36 L 357.12 113.83 L 358.44 113.57 L 359.84 113.57 L 361.16 113.30 L 362.39 112.78 L 363.53 111.99 L 364.58 110.94 L 365.89 110.15 L 367.47 109.62 L 369.31 109.36 L 371.42 109.36 L 373.35 109.09 L 375.10 108.57 L 376.68 107.78 L 378.09 106.73 L 380.54 105.94 L 384.05 105.41 L 388.61 105.15 L 394.22 105.15 L 398.70 105.41 L 402.03 105.94 L 404.22 106.73 L 405.27 107.78 L 406.41 108.57 L 407.64 109.09 L 408.96 109.36 L 410.36 109.36 L 411.50 109.62 L 412.38 110.15 L 412.99 110.94 L 413.34 111.99 L 413.87 112.78 L 414.57 113.30 L 415.45 113.57 L 416.50 113.57 L 417.29 113.74 L 417.82 114.09 L 418.08 114.62 L 418.08 115.32 L 418.34 115.94 L 418.87 116.46 L 419.66 116.90 L 420.71 117.25 L 421.50 117.78 L 422.03 118.48 L 422.29 119.36 L 422.29 120.41 L 422.55 121.29 L 423.08 121.99 L 423.87 122.51 L 424.92 122.86 L 425.71 123.48 L 426.24 124.35 L 426.50 125.50 L 426.50 126.90 L 426.76 128.13 L 427.29 129.18 L 428.08 130.06 L 429.13 130.76 L 429.92 131.72 L 430.45 132.95 L 430.71 134.44 L 430.71 136.20 L 430.97 137.86 L 431.50 139.44 L 432.29 140.93 L 433.34 142.33 L 434.13 145.32 L 434.65 149.88 L 434.92 156.02 L 434.92 163.73 L 434.65 169.87 L 434.13 174.43 L 433.34 177.42 L 432.29 178.82 L 431.50 179.96 L 430.97 180.84 L 430.71 181.45 L 430.71 181.80 L 430.71 182.42 L 430.71 183.29 L 430.71 184.43 Z M 241.09 443.86 L 242.84 447.02 L 244.16 450.09 L 245.04 453.07 L 245.48 455.97 L 245.48 458.77 L 244.86 461.32 L 243.63 463.60 L 241.79 465.61 L 239.34 467.37 L 236.62 468.68 L 233.64 469.56 L 230.39 470.00 L 226.88 470.00 L 224.08 469.82 L 221.97 469.47 L 220.57 468.95 L 219.87 468.25 L 218.55 467.72 L 216.62 467.37 L 214.08 467.19 L 210.92 467.19 L 208.11 466.93 L 205.66 466.40 L 203.55 465.61 L 201.80 464.56 L 199.96 463.77 L 198.03 463.25 L 196.01 462.98 L 193.90 462.98 L 192.06 462.72 L 190.48 462.19 L 189.17 461.40 L 188.12 460.35 L 186.89 459.56 L 185.49 459.04 L 183.91 458.77 L 182.15 458.77 L 180.57 458.51 L 179.17 457.98 L 177.94 457.20 L 176.89 456.14 L 175.49 455.27 L 173.73 454.56 L 171.63 454.04 L 169.17 453.69 L 167.33 453.25 L 166.10 452.72 L 165.49 452.11 L 165.49 451.41 L 165.14 450.88 L 164.44 450.53 L 163.38 450.35 L 161.98 450.35 L 160.75 450.27 L 159.70 450.09 L 158.82 449.83 L 158.12 449.48 L 157.60 449.04 L 157.24 448.51 L 157.07 447.90 L 157.07 447.20 L 156.72 446.67 L 156.02 446.32 L 154.96 446.14 L 153.56 446.14 L 152.33 446.06 L 151.28 445.88 L 150.40 445.62 L 149.70 445.27 L 149.18 444.83 L 148.82 444.30 L 148.65 443.69 L 148.65 442.99 L 147.86 442.20 L 146.28 441.32 L 143.91 440.36 L 140.76 439.30 L 138.30 438.25 L 136.55 437.20 L 135.49 436.15 L 135.14 435.09 L 134.62 434.30 L 133.91 433.78 L 133.04 433.51 L 131.99 433.51 L 130.76 433.16 L 129.35 432.46 L 127.78 431.41 L 126.02 430.01 L 124.71 428.78 L 123.83 427.73 L 123.39 426.85 L 123.39 426.15 L 123.13 425.62 L 122.60 425.27 L 121.81 425.10 L 120.76 425.10 L 119.88 424.83 L 119.18 424.31 L 118.65 423.52 L 118.30 422.46 L 117.69 421.59 L 116.81 420.89 L 115.67 420.36 L 114.27 420.01 L 113.22 419.57 L 112.51 419.04 L 112.16 418.43 L 112.16 417.73 L 111.90 417.11 L 111.37 416.59 L 110.59 416.15 L 109.53 415.80 L 107.87 414.66 L 105.59 412.73 L 102.69 410.01 L 99.18 406.50 L 96.55 403.70 L 94.80 401.59 L 93.92 400.19 L 93.92 399.49 L 93.75 398.96 L 93.40 398.61 L 92.87 398.43 L 92.17 398.43 L 91.64 398.26 L 91.29 397.91 L 91.11 397.38 L 91.11 396.68 L 90.76 395.89 L 90.06 395.01 L 89.01 394.05 L 87.61 393.00 L 86.55 391.94 L 85.85 390.89 L 85.50 389.84 L 85.50 388.79 L 85.24 388.00 L 84.71 387.47 L 83.92 387.21 L 82.87 387.21 L 82.08 386.94 L 81.55 386.42 L 81.29 385.63 L 81.29 384.58 L 81.03 383.61 L 80.50 382.73 L 79.71 381.94 L 78.66 381.24 L 77.87 380.54 L 77.35 379.84 L 77.08 379.14 L 77.08 378.44 L 76.82 377.73 L 76.29 377.03 L 75.50 376.33 L 74.45 375.63 L 73.66 374.84 L 73.14 373.96 L 72.87 373.00 L 72.87 371.95 L 72.61 370.98 L 72.08 370.10 L 71.29 369.31 L 70.24 368.61 L 69.45 367.82 L 68.93 366.95 L 68.66 365.98 L 68.66 364.93 L 68.40 363.96 L 67.87 363.09 L 67.08 362.30 L 66.03 361.60 L 65.24 360.72 L 64.72 359.67 L 64.45 358.44 L 64.45 357.04 L 64.19 355.81 L 63.66 354.76 L 62.87 353.88 L 61.82 353.18 L 61.03 352.30 L 60.51 351.25 L 60.24 350.02 L 60.24 348.62 L 59.98 347.39 L 59.45 346.34 L 58.66 345.46 L 57.61 344.76 L 56.82 343.79 L 56.30 342.56 L 56.03 341.07 L 56.03 339.32 L 55.86 338.00 L 55.51 337.13 L 54.98 336.69 L 54.28 336.69 L 53.66 335.99 L 53.14 334.58 L 52.70 332.48 L 52.35 329.67 L 51.82 327.22 L 51.12 325.11 L 50.24 323.36 L 49.19 321.95 L 48.40 320.38 L 47.88 318.62 L 47.61 316.69 L 47.61 314.59 L 47.35 312.66 L 46.82 310.90 L 46.03 309.32 L 44.98 307.92 L 44.19 305.29 L 43.67 301.43 L 43.40 296.34 L 43.40 290.03 L 43.75 285.03 L 44.46 281.35 L 45.51 278.98 L 46.91 277.93 L 48.75 277.22 L 51.03 276.87 L 53.75 276.87 L 56.91 277.22 L 59.45 277.58 L 61.38 277.93 L 62.70 278.28 L 63.40 278.63 L 63.93 279.07 L 64.28 279.59 L 64.45 280.21 L 64.45 280.91 L 65.15 281.70 L 66.56 282.57 L 68.66 283.54 L 71.47 284.59 L 73.66 285.64 L 75.24 286.70 L 76.20 287.75 L 76.56 288.80 L 77.52 289.85 L 79.10 290.91 L 81.29 291.96 L 84.10 293.01 L 86.29 294.06 L 87.87 295.12 L 88.83 296.17 L 89.19 297.22 L 89.71 298.01 L 90.41 298.54 L 91.29 298.80 L 92.34 298.80 L 93.13 298.98 L 93.66 299.33 L 93.92 299.85 L 93.92 300.55 L 94.71 301.52 L 96.29 302.75 L 98.66 304.24 L 101.81 305.99 L 104.45 307.75 L 106.55 309.50 L 108.13 311.25 L 109.18 313.01 L 110.23 314.32 L 111.29 315.20 L 112.34 315.64 L 113.39 315.64 L 114.18 315.81 L 114.71 316.17 L 114.97 316.69 L 114.97 317.39 L 115.41 318.10 L 116.29 318.80 L 117.60 319.50 L 119.36 320.20 L 120.67 320.90 L 121.55 321.60 L 121.99 322.30 L 121.99 323.01 L 122.51 323.80 L 123.57 324.67 L 125.14 325.64 L 127.25 326.69 L 128.92 327.74 L 130.14 328.80 L 130.93 329.85 L 131.28 330.90 L 131.81 331.69 L 132.51 332.22 L 133.39 332.48 L 134.44 332.48 L 135.23 332.74 L 135.76 333.27 L 136.02 334.06 L 136.02 335.11 L 136.28 335.90 L 136.81 336.43 L 137.60 336.69 L 138.65 336.69 L 139.44 336.86 L 139.97 337.21 L 140.23 337.74 L 140.23 338.44 L 140.93 339.41 L 142.33 340.64 L 144.44 342.13 L 147.25 343.88 L 149.35 345.37 L 150.75 346.60 L 151.46 347.56 L 151.46 348.27 L 151.63 348.79 L 151.98 349.14 L 152.51 349.32 L 153.21 349.32 L 153.91 349.58 L 154.61 350.11 L 155.31 350.90 L 156.02 351.95 L 156.72 352.74 L 157.42 353.26 L 158.12 353.53 L 158.82 353.53 L 159.44 353.79 L 159.96 354.32 L 160.40 355.11 L 160.75 356.16 L 161.28 357.04 L 161.98 357.74 L 162.86 358.26 L 163.91 358.61 L 164.70 359.05 L 165.23 359.58 L 165.49 360.19 L 165.49 360.90 L 165.75 361.42 L 166.28 361.77 L 167.07 361.95 L 168.12 361.95 L 168.91 362.21 L 169.44 362.74 L 169.70 363.53 L 169.70 364.58 L 169.96 365.37 L 170.49 365.89 L 171.28 366.16 L 172.33 366.16 L 173.12 366.42 L 173.65 366.95 L 173.91 367.74 L 173.91 368.79 L 174.17 369.58 L 174.70 370.10 L 175.49 370.37 L 176.54 370.37 L 177.33 370.54 L 177.85 370.89 L 178.12 371.42 L 178.12 372.12 L 178.38 372.74 L 178.91 373.26 L 179.70 373.70 L 180.75 374.05 L 181.63 374.58 L 182.33 375.28 L 182.85 376.16 L 183.20 377.21 L 183.64 378.00 L 184.17 378.52 L 184.78 378.79 L 185.49 378.79 L 186.27 379.14 L 187.15 379.84 L 188.12 380.89 L 189.17 382.30 L 190.13 383.35 L 191.01 384.05 L 191.80 384.40 L 192.50 384.40 L 193.03 384.58 L 193.38 384.93 L 193.55 385.45 L 193.55 386.15 L 193.73 386.68 L 194.08 387.03 L 194.61 387.21 L 195.31 387.21 L 196.27 387.73 L 197.50 388.79 L 198.99 390.36 L 200.75 392.47 L 202.24 394.05 L 203.46 395.10 L 204.43 395.63 L 205.13 395.63 L 205.75 395.89 L 206.27 396.42 L 206.71 397.20 L 207.06 398.26 L 207.85 399.49 L 209.08 400.89 L 210.74 402.47 L 212.85 404.22 L 214.43 405.71 L 215.48 406.94 L 216.01 407.90 L 216.01 408.61 L 216.18 409.13 L 216.53 409.48 L 217.06 409.66 L 217.76 409.66 L 218.29 409.83 L 218.64 410.19 L 218.81 410.71 L 218.81 411.41 L 219.16 412.20 L 219.87 413.08 L 220.92 414.04 L 222.32 415.10 L 223.37 416.06 L 224.08 416.94 L 224.43 417.73 L 224.43 418.43 L 224.69 419.04 L 225.22 419.57 L 226.00 420.01 L 227.06 420.36 L 227.85 420.89 L 228.37 421.59 L 228.64 422.46 L 228.64 423.52 L 228.90 424.39 L 229.43 425.10 L 230.21 425.62 L 231.27 425.97 L 232.06 426.50 L 232.58 427.20 L 232.85 428.08 L 232.85 429.13 L 233.20 430.36 L 233.90 431.76 L 234.95 433.34 L 236.35 435.09 L 237.41 436.50 L 238.11 437.55 L 238.46 438.25 L 238.46 438.60 L 238.90 439.65 L 239.77 441.41 L 241.09 443.86 Z M 361.42 70.42 L 363.88 72.52 L 365.72 74.89 L 366.95 77.52 L 367.56 80.41 L 367.56 83.57 L 367.30 85.94 L 366.77 87.52 L 365.98 88.31 L 364.93 88.31 L 364.05 88.57 L 363.35 89.10 L 362.82 89.89 L 362.47 90.94 L 361.95 91.73 L 361.25 92.25 L 360.37 92.52 L 359.32 92.52 L 358.35 92.61 L 357.47 92.78 L 356.69 93.04 L 355.98 93.40 L 355.46 93.83 L 355.11 94.36 L 354.93 94.97 L 354.93 95.68 L 354.14 96.46 L 352.56 97.34 L 350.20 98.31 L 347.04 99.36 L 344.67 100.32 L 343.09 101.20 L 342.30 101.99 L 342.30 102.69 L 341.78 103.31 L 340.72 103.83 L 339.14 104.27 L 337.04 104.62 L 335.46 105.06 L 334.41 105.59 L 333.88 106.20 L 333.88 106.90 L 333.71 107.52 L 333.36 108.04 L 332.83 108.48 L 332.13 108.83 L 331.25 109.09 L 330.20 109.27 L 328.97 109.36 L 327.57 109.36 L 326.25 109.62 L 325.02 110.15 L 323.88 110.94 L 322.83 111.99 L 321.52 112.78 L 319.94 113.30 L 318.10 113.57 L 315.99 113.57 L 313.97 113.83 L 312.04 114.36 L 310.20 115.15 L 308.45 116.20 L 305.82 116.99 L 302.31 117.51 L 297.92 117.78 L 292.66 117.78 L 288.63 117.51 L 285.82 116.99 L 284.24 116.20 L 283.89 115.15 L 283.36 114.27 L 282.66 113.57 L 281.79 113.04 L 280.73 112.69 L 279.94 111.64 L 279.42 109.88 L 279.15 107.43 L 279.15 104.27 L 279.42 101.46 L 279.94 99.01 L 280.73 96.90 L 281.79 95.15 L 282.57 93.13 L 283.10 90.85 L 283.36 88.31 L 283.36 85.50 L 283.63 83.05 L 284.15 80.94 L 284.94 79.19 L 286.00 77.78 L 286.78 76.20 L 287.31 74.45 L 287.57 72.52 L 287.57 70.42 L 287.84 68.49 L 288.36 66.73 L 289.15 65.15 L 290.20 63.75 L 290.99 62.35 L 291.52 60.94 L 291.78 59.54 L 291.78 58.14 L 292.05 57.00 L 292.57 56.12 L 293.36 55.51 L 294.41 55.16 L 295.20 54.63 L 295.73 53.93 L 295.99 53.05 L 295.99 52.00 L 297.75 51.21 L 301.26 50.68 L 306.52 50.42 L 313.53 50.42 L 318.97 50.68 L 322.83 51.21 L 325.11 52.00 L 325.81 53.05 L 326.78 53.84 L 328.01 54.37 L 329.50 54.63 L 331.25 54.63 L 332.83 54.89 L 334.23 55.42 L 335.46 56.21 L 336.51 57.26 L 337.65 58.05 L 338.88 58.58 L 340.20 58.84 L 341.60 58.84 L 342.83 58.93 L 343.88 59.10 L 344.76 59.37 L 345.46 59.72 L 345.99 60.15 L 346.34 60.68 L 346.51 61.30 L 346.51 62.00 L 346.77 62.52 L 347.30 62.87 L 348.09 63.05 L 349.14 63.05 L 350.28 63.31 L 351.51 63.84 L 352.83 64.63 L 354.23 65.68 L 355.37 66.47 L 356.25 67.00 L 356.86 67.26 L 357.21 67.26 L 358.09 67.79 L 359.49 68.84 L 361.42 70.42 Z M 259.16 101.81 L 257.05 104.27 L 255.04 106.11 L 253.11 107.34 L 251.26 107.95 L 249.51 107.95 L 247.05 106.99 L 243.90 105.06 L 240.04 102.17 L 235.48 98.31 L 231.88 95.41 L 229.25 93.48 L 227.58 92.52 L 226.88 92.52 L 226.27 92.25 L 225.74 91.73 L 225.30 90.94 L 224.95 89.89 L 224.43 89.10 L 223.72 88.57 L 222.85 88.31 L 221.80 88.31 L 220.83 88.05 L 219.95 87.52 L 219.16 86.73 L 218.46 85.68 L 217.67 84.89 L 216.80 84.36 L 215.83 84.10 L 214.78 84.10 L 213.90 83.84 L 213.20 83.31 L 212.67 82.52 L 212.32 81.47 L 211.36 80.41 L 209.78 79.36 L 207.59 78.31 L 204.78 77.26 L 202.06 75.68 L 199.43 73.57 L 196.89 70.94 L 194.43 67.79 L 192.59 64.98 L 191.36 62.52 L 190.75 60.42 L 190.75 58.66 L 191.01 57.17 L 191.54 55.95 L 192.33 54.98 L 193.38 54.28 L 194.17 53.58 L 194.69 52.88 L 194.96 52.17 L 194.96 51.47 L 195.22 50.95 L 195.75 50.60 L 196.54 50.42 L 197.59 50.42 L 198.64 50.16 L 199.69 49.63 L 200.75 48.84 L 201.80 47.79 L 203.11 47.00 L 204.69 46.47 L 206.53 46.21 L 208.64 46.21 L 210.57 45.95 L 212.32 45.42 L 213.90 44.63 L 215.30 43.58 L 219.43 42.79 L 226.27 42.26 L 235.83 42.00 L 248.11 42.00 L 257.75 42.53 L 264.77 43.58 L 269.16 45.16 L 270.91 47.26 L 272.23 49.45 L 273.10 51.74 L 273.54 54.10 L 273.54 56.56 L 273.37 58.49 L 273.01 59.89 L 272.49 60.77 L 271.79 61.12 L 271.26 61.91 L 270.91 63.14 L 270.73 64.80 L 270.73 66.91 L 270.47 68.75 L 269.95 70.33 L 269.16 71.64 L 268.10 72.70 L 267.31 74.10 L 266.79 75.85 L 266.52 77.96 L 266.52 80.41 L 266.26 83.05 L 265.74 85.85 L 264.95 88.83 L 263.89 91.99 L 263.10 94.45 L 262.58 96.20 L 262.31 97.25 L 262.31 97.60 L 261.79 98.48 L 260.74 99.89 L 259.16 101.81 Z" fill="#121827" fill-rule="evenodd" clip-rule="evenodd"/>
</svg>
