<svg width="512" height="512" viewBox="0 0 512 512" fill="none" xmlns="http://www.w3.org/2000/svg">
  <defs>
    <linearGradient id="crownMain" x1="256" y1="102" x2="256" y2="428" gradientUnits="userSpaceOnUse">
      <stop stop-color="#A9F0EA"/>
      <stop offset="0.32" stop-color="#43D8CB"/>
      <stop offset="0.64" stop-color="#2B8DFF"/>
      <stop offset="1" stop-color="#12306E"/>
    </linearGradient>
    <linearGradient id="crownEdgeLeft" x1="156" y1="164" x2="232" y2="320" gradientUnits="userSpaceOnUse">
      <stop stop-color="#12355D" stop-opacity="0"/>
      <stop offset="1" stop-color="#12355D" stop-opacity="0.26"/>
    </linearGradient>
    <linearGradient id="crownEdgeRight" x1="356" y1="164" x2="280" y2="320" gradientUnits="userSpaceOnUse">
      <stop stop-color="#12355D" stop-opacity="0"/>
      <stop offset="1" stop-color="#12355D" stop-opacity="0.26"/>
    </linearGradient>
    <linearGradient id="crownCore" x1="256" y1="170" x2="256" y2="352" gradientUnits="userSpaceOnUse">
      <stop stop-color="#F0FFFD"/>
      <stop offset="1" stop-color="#C9F1EE"/>
    </linearGradient>
  </defs>

  <path d="M144 356L180 122L234 222L256 102L278 222L332 122L368 356L256 428L144 356Z" fill="url(#crownMain)"/>
  <path d="M180 122L234 222L190 330L144 356L180 122Z" fill="url(#crownEdgeLeft)"/>
  <path d="M332 122L278 222L322 330L368 356L332 122Z" fill="url(#crownEdgeRight)"/>
  <path d="M234 222L256 166L278 222L256 354L234 222Z" fill="url(#crownCore)"/>
</svg>
