<svg width="512" height="512" viewBox="0 0 512 512" fill="none" xmlns="http://www.w3.org/2000/svg">
  <defs>
    <linearGradient id="loopTop" x1="146" y1="152" x2="360" y2="210" gradientUnits="userSpaceOnUse">
      <stop stop-color="#8EC5FF"/>
      <stop offset="1" stop-color="#347FFF"/>
    </linearGradient>
    <linearGradient id="loopSide" x1="304" y1="150" x2="376" y2="360" gradientUnits="userSpaceOnUse">
      <stop stop-color="#5FA2FF"/>
      <stop offset="1" stop-color="#163C85"/>
    </linearGradient>
    <linearGradient id="loopBottom" x1="360" y1="362" x2="148" y2="308" gradientUnits="userSpaceOnUse">
      <stop stop-color="#1C56C1"/>
      <stop offset="1" stop-color="#8ABEFF"/>
    </linearGradient>
    <linearGradient id="loopLeft" x1="150" y1="360" x2="118" y2="152" gradientUnits="userSpaceOnUse">
      <stop stop-color="#79B6FF"/>
      <stop offset="1" stop-color="#C8E0FF"/>
    </linearGradient>
    <linearGradient id="eyeShell" x1="186" y1="208" x2="328" y2="304" gradientUnits="userSpaceOnUse">
      <stop stop-color="#F4F9FF"/>
      <stop offset="1" stop-color="#D4E5FF"/>
    </linearGradient>
  </defs>

  <rect x="150" y="132" width="214" height="78" rx="39" fill="url(#loopTop)"/>
  <rect x="302" y="150" width="74" height="214" rx="37" fill="url(#loopSide)"/>
  <rect x="148" y="302" width="214" height="74" rx="37" fill="url(#loopBottom)"/>
  <rect x="132" y="148" width="78" height="214" rx="39" fill="url(#loopLeft)"/>

  <rect x="294" y="150" width="70" height="52" rx="26" fill="url(#loopTop)"/>
  <rect x="302" y="294" width="52" height="70" rx="26" fill="url(#loopSide)"/>
  <rect x="148" y="302" width="70" height="52" rx="26" fill="url(#loopBottom)"/>
  <rect x="132" y="148" width="52" height="70" rx="26" fill="url(#loopLeft)"/>

  <path d="M184 256C206.667 220 230.667 202 256 202C281.333 202 305.333 220 328 256C305.333 292 281.333 310 256 310C230.667 310 206.667 292 184 256Z" fill="url(#eyeShell)"/>
  <path d="M198 256C216.667 228.667 236 215 256 215C276 215 295.333 228.667 314 256C295.333 283.333 276 297 256 297C236 297 216.667 283.333 198 256Z" fill="#5F5552"/>
  <circle cx="256" cy="256" r="30" fill="#E6F1FF"/>
  <circle cx="256" cy="256" r="18" fill="#173A82"/>
</svg>
