<svg width="512" height="512" viewBox="0 0 512 512" fill="none" xmlns="http://www.w3.org/2000/svg">
  <rect width="512" height="512" fill="#FFFFFF"/>
  <path d="M 206.98 100.88 L 209.62 102.99 L 212.12 105.08 L 214.46 107.13 L 216.67 109.17 L 218.72 111.17 L 220.64 113.15 L 222.40 115.10 L 224.03 117.03 L 225.50 118.93 L 226.94 120.87 L 228.34 122.84 L 229.70 124.86 L 231.02 126.92 L 232.30 129.02 L 233.54 131.15 L 234.74 133.33 L 235.90 135.55 L 236.99 137.76 L 238.02 139.98 L 238.98 142.19 L 239.88 144.41 L 240.71 146.63 L 241.48 148.84 L 242.18 151.06 L 242.81 153.27 L 243.39 155.48 L 243.92 157.67 L 244.39 159.84 L 244.81 162.01 L 245.18 164.16 L 245.50 166.29 L 245.76 168.42 L 245.98 170.53 L 246.13 173.49 L 246.24 177.32 L 246.29 182.00 L 246.29 187.54 L 246.24 193.94 L 246.13 201.19 L 245.98 209.31 L 245.76 218.28 L 245.69 226.82 L 245.74 234.95 L 245.92 242.65 L 246.24 249.93 L 246.69 256.79 L 247.27 263.23 L 247.98 269.24 L 248.82 274.84 L 249.60 280.56 L 250.31 286.42 L 250.96 292.41 L 251.54 298.53 L 252.06 304.78 L 252.50 311.16 L 252.89 317.68 L 253.20 324.33 L 253.47 330.39 L 253.68 335.88 L 253.84 340.79 L 253.94 345.11 L 254.00 348.86 L 254.00 352.03 L 253.94 354.61 L 253.84 356.62 L 253.68 358.55 L 253.47 360.43 L 253.20 362.23 L 252.89 363.98 L 252.52 365.65 L 252.10 367.26 L 251.62 368.80 L 251.09 370.28 L 250.55 371.69 L 250.00 373.04 L 249.43 374.32 L 248.85 375.53 L 248.26 376.68 L 247.65 377.76 L 247.03 378.78 L 246.40 379.73 L 245.71 380.60 L 244.97 381.39 L 244.18 382.10 L 243.34 382.73 L 242.44 383.29 L 241.49 383.76 L 240.49 384.16 L 239.43 384.47 L 238.31 384.71 L 237.12 384.87 L 235.87 384.95 L 234.55 384.95 L 233.17 384.87 L 231.72 384.71 L 230.20 384.47 L 228.62 384.16 L 227.13 383.81 L 225.73 383.45 L 224.42 383.05 L 223.21 382.63 L 222.09 382.18 L 221.06 381.70 L 220.12 381.20 L 219.28 380.68 L 216.68 378.56 L 212.33 374.87 L 206.22 369.60 L 198.36 362.74 L 188.74 354.29 L 177.37 344.27 L 164.25 332.66 L 149.37 319.47 L 135.98 307.44 L 124.08 296.57 L 113.68 286.87 L 104.76 278.32 L 97.33 270.93 L 91.40 264.71 L 86.95 259.64 L 84.00 255.74 L 81.27 252.00 L 78.76 248.44 L 76.48 245.05 L 74.42 241.83 L 72.59 238.79 L 70.98 235.91 L 69.59 233.21 L 68.43 230.67 L 67.35 228.22 L 66.35 225.85 L 65.43 223.55 L 64.58 221.34 L 63.82 219.20 L 63.13 217.14 L 62.52 215.16 L 62.00 213.26 L 61.52 211.17 L 61.10 208.87 L 60.73 206.38 L 60.41 203.69 L 60.15 200.80 L 59.94 197.71 L 59.78 194.43 L 59.68 190.95 L 59.66 187.54 L 59.74 184.22 L 59.91 180.97 L 60.18 177.81 L 60.53 174.72 L 60.98 171.71 L 61.52 168.79 L 62.15 165.94 L 62.91 163.06 L 63.78 160.16 L 64.77 157.23 L 65.87 154.28 L 67.10 151.30 L 68.45 148.29 L 69.91 145.25 L 71.49 142.19 L 73.29 139.05 L 75.29 135.84 L 77.51 132.54 L 79.94 129.16 L 82.57 125.71 L 85.42 122.17 L 88.48 118.56 L 91.75 114.86 L 95.06 111.35 L 98.42 108.03 L 101.80 104.89 L 105.23 101.94 L 108.70 99.17 L 112.21 96.58 L 115.76 94.18 L 119.35 91.96 L 122.74 89.96 L 125.93 88.17 L 128.92 86.58 L 131.72 85.21 L 134.32 84.05 L 136.72 83.10 L 138.92 82.36 L 140.93 81.83 L 143.04 81.39 L 145.25 81.02 L 147.58 80.73 L 150.00 80.52 L 152.54 80.38 L 155.17 80.33 L 157.92 80.36 L 160.77 80.46 L 163.67 80.75 L 166.62 81.23 L 169.63 81.89 L 172.69 82.73 L 175.80 83.76 L 178.97 84.97 L 182.19 86.37 L 185.46 87.96 L 188.33 89.34 L 190.81 90.53 L 192.90 91.52 L 194.59 92.31 L 195.88 92.90 L 196.78 93.30 L 197.28 93.50 L 197.38 93.50 L 197.80 93.76 L 198.54 94.29 L 199.60 95.08 L 200.97 96.13 L 202.66 97.45 L 204.66 99.04 L 206.98 100.88 Z M 285.23 362.47 L 285.86 361.42 L 286.88 360.06 L 288.28 358.40 L 290.06 356.43 L 292.22 354.16 L 294.77 351.59 L 297.69 348.71 L 301.01 345.54 L 304.70 342.05 L 308.96 338.19 L 313.79 333.94 L 319.18 329.31 L 325.14 324.30 L 331.67 318.90 L 338.77 313.13 L 346.43 306.97 L 354.66 300.43 L 362.58 294.05 L 370.18 287.85 L 377.46 281.83 L 384.42 275.97 L 391.07 270.29 L 397.40 264.77 L 403.42 259.43 L 409.11 254.26 L 414.27 249.62 L 418.89 245.50 L 422.96 241.91 L 426.50 238.85 L 429.49 236.32 L 431.95 234.32 L 433.86 232.84 L 435.23 231.89 L 436.65 230.98 L 438.13 230.11 L 439.66 229.28 L 441.25 228.48 L 442.88 227.73 L 444.57 227.02 L 446.31 226.35 L 448.10 225.71 L 449.82 225.20 L 451.45 224.80 L 453.01 224.53 L 454.49 224.37 L 455.89 224.33 L 457.21 224.41 L 458.45 224.61 L 459.61 224.92 L 460.69 225.29 L 461.69 225.71 L 462.61 226.19 L 463.46 226.72 L 464.22 227.30 L 464.91 227.93 L 465.52 228.62 L 466.04 229.36 L 466.53 230.15 L 466.98 230.99 L 467.39 231.89 L 467.76 232.84 L 468.09 233.84 L 468.38 234.90 L 468.63 236.00 L 468.84 237.16 L 469.01 238.84 L 469.14 241.03 L 469.23 243.73 L 469.29 246.95 L 469.30 250.68 L 469.27 254.93 L 469.21 259.69 L 469.10 264.97 L 468.87 270.25 L 468.50 275.52 L 468.00 280.80 L 467.36 286.07 L 466.60 291.35 L 465.70 296.63 L 464.67 301.90 L 463.51 307.18 L 462.28 312.28 L 460.99 317.22 L 459.63 321.98 L 458.21 326.57 L 456.72 330.99 L 455.16 335.23 L 453.54 339.31 L 451.85 343.21 L 450.12 347.04 L 448.35 350.79 L 446.55 354.45 L 444.70 358.04 L 442.81 361.55 L 440.89 364.98 L 438.92 368.33 L 436.92 371.60 L 434.91 374.77 L 432.91 377.83 L 430.90 380.78 L 428.90 383.63 L 426.89 386.37 L 424.89 389.01 L 422.88 391.54 L 420.88 393.97 L 418.74 396.45 L 416.47 398.98 L 414.07 401.57 L 411.54 404.21 L 408.88 406.90 L 406.08 409.64 L 403.15 412.44 L 400.09 415.29 L 397.06 418.03 L 394.05 420.67 L 391.07 423.20 L 388.11 425.63 L 385.19 427.95 L 382.28 430.17 L 379.41 432.28 L 376.56 434.28 L 373.49 436.31 L 370.19 438.37 L 366.67 440.45 L 362.92 442.56 L 358.95 444.70 L 354.76 446.86 L 350.34 449.05 L 345.69 451.27 L 341.41 453.26 L 337.48 455.03 L 333.90 456.57 L 330.68 457.89 L 327.82 458.99 L 325.32 459.86 L 323.17 460.50 L 321.37 460.93 L 319.58 461.29 L 317.78 461.61 L 315.99 461.87 L 314.20 462.09 L 312.40 462.24 L 310.61 462.35 L 308.81 462.40 L 307.02 462.40 L 305.28 462.35 L 303.59 462.24 L 301.96 462.09 L 300.37 461.87 L 298.84 461.61 L 297.36 461.29 L 295.94 460.93 L 294.57 460.50 L 293.28 460.07 L 292.06 459.62 L 290.93 459.16 L 289.87 458.68 L 288.90 458.19 L 288.00 457.69 L 287.18 457.18 L 286.44 456.65 L 285.67 456.02 L 284.85 455.28 L 283.99 454.44 L 283.09 453.49 L 282.16 452.43 L 281.18 451.27 L 280.16 450.00 L 279.11 448.63 L 278.11 447.13 L 277.16 445.49 L 276.26 443.72 L 275.42 441.83 L 274.62 439.79 L 273.89 437.63 L 273.20 435.34 L 272.57 432.91 L 272.04 430.30 L 271.62 427.50 L 271.30 424.52 L 271.09 421.35 L 270.98 418.00 L 270.98 414.47 L 271.09 410.75 L 271.30 406.84 L 271.54 403.20 L 271.80 399.83 L 272.09 396.71 L 272.41 393.87 L 272.75 391.28 L 273.12 388.96 L 273.52 386.90 L 273.94 385.11 L 274.41 383.34 L 274.94 381.60 L 275.52 379.88 L 276.15 378.20 L 276.84 376.53 L 277.58 374.90 L 278.37 373.29 L 279.21 371.71 L 279.97 370.32 L 280.63 369.13 L 281.19 368.14 L 281.67 367.35 L 282.05 366.76 L 282.34 366.36 L 282.54 366.17 L 282.64 366.17 L 282.82 366.03 L 283.05 365.77 L 283.36 365.37 L 283.73 364.85 L 284.16 364.19 L 284.66 363.40 L 285.23 362.47 Z M 399.56 106.16 L 400.30 106.16 L 401.11 106.22 L 401.98 106.36 L 402.91 106.55 L 403.92 106.82 L 404.98 107.15 L 406.12 107.54 L 407.32 108.00 L 408.59 108.53 L 409.89 109.20 L 411.24 110.02 L 412.62 110.99 L 414.05 112.09 L 415.51 113.35 L 417.01 114.74 L 418.56 116.29 L 420.14 117.98 L 421.66 119.77 L 423.11 121.67 L 424.49 123.67 L 425.81 125.79 L 427.07 128.00 L 428.25 130.32 L 429.37 132.75 L 430.43 135.28 L 431.37 137.92 L 432.18 140.66 L 432.88 143.51 L 433.46 146.47 L 433.92 149.53 L 434.27 152.69 L 434.49 155.96 L 434.60 159.34 L 434.61 162.57 L 434.53 165.66 L 434.36 168.60 L 434.10 171.40 L 433.74 174.05 L 433.29 176.55 L 432.75 178.92 L 432.12 181.13 L 431.43 183.32 L 430.69 185.48 L 429.90 187.62 L 429.06 189.73 L 428.16 191.82 L 427.21 193.87 L 426.21 195.90 L 425.15 197.91 L 423.79 200.20 L 422.13 202.79 L 420.17 205.67 L 417.90 208.83 L 415.33 212.29 L 412.45 216.03 L 409.27 220.07 L 405.79 224.40 L 402.11 228.76 L 398.23 233.17 L 394.16 237.61 L 389.88 242.10 L 385.41 246.62 L 380.74 251.19 L 375.87 255.79 L 370.81 260.43 L 365.64 265.09 L 360.36 269.76 L 354.98 274.44 L 349.49 279.14 L 343.90 283.84 L 338.20 288.57 L 332.40 293.30 L 326.49 298.05 L 321.19 302.28 L 316.49 306.00 L 312.40 309.21 L 308.92 311.90 L 306.04 314.08 L 303.78 315.74 L 302.11 316.89 L 301.06 317.52 L 299.95 318.09 L 298.79 318.59 L 297.58 319.02 L 296.31 319.39 L 294.99 319.70 L 293.62 319.93 L 292.19 320.11 L 290.72 320.21 L 289.33 320.22 L 288.04 320.14 L 286.84 319.97 L 285.73 319.71 L 284.72 319.35 L 283.79 318.90 L 282.96 318.36 L 282.22 317.73 L 281.51 317.04 L 280.82 316.31 L 280.16 315.51 L 279.53 314.67 L 278.92 313.77 L 278.34 312.82 L 277.79 311.82 L 277.26 310.77 L 276.74 309.54 L 276.21 308.14 L 275.68 306.57 L 275.15 304.83 L 274.62 302.92 L 274.10 300.83 L 273.57 298.58 L 273.04 296.15 L 272.50 293.17 L 271.95 289.64 L 271.38 285.55 L 270.80 280.90 L 270.21 275.71 L 269.60 269.96 L 268.98 263.65 L 268.35 256.79 L 267.86 249.70 L 267.52 242.36 L 267.32 234.79 L 267.26 226.98 L 267.36 218.94 L 267.59 210.65 L 267.98 202.13 L 268.50 193.37 L 269.05 185.52 L 269.60 178.59 L 270.17 172.56 L 270.75 167.44 L 271.34 163.23 L 271.95 159.93 L 272.57 157.55 L 273.20 156.07 L 273.86 154.67 L 274.55 153.35 L 275.26 152.11 L 276.00 150.95 L 276.76 149.87 L 277.55 148.87 L 278.37 147.94 L 279.21 147.10 L 280.22 146.23 L 281.38 145.33 L 282.70 144.41 L 284.17 143.46 L 285.81 142.48 L 287.60 141.48 L 289.56 140.45 L 291.67 139.40 L 293.88 138.39 L 296.20 137.45 L 298.63 136.55 L 301.16 135.70 L 303.80 134.91 L 306.55 134.17 L 309.39 133.49 L 312.35 132.86 L 315.59 131.98 L 319.13 130.88 L 322.95 129.53 L 327.07 127.95 L 331.48 126.13 L 336.17 124.07 L 341.16 121.78 L 346.43 119.24 L 351.29 116.96 L 355.72 114.93 L 359.73 113.15 L 363.32 111.62 L 366.48 110.34 L 369.23 109.31 L 371.55 108.53 L 373.45 108.00 L 375.37 107.53 L 377.32 107.11 L 379.30 106.74 L 381.31 106.42 L 383.34 106.16 L 385.40 105.95 L 387.48 105.79 L 389.59 105.68 L 391.44 105.60 L 393.02 105.55 L 394.34 105.52 L 395.40 105.52 L 396.19 105.55 L 396.71 105.60 L 396.98 105.68 L 396.98 105.79 L 397.07 105.88 L 397.26 105.96 L 397.53 106.03 L 397.90 106.08 L 398.36 106.12 L 398.92 106.14 L 399.56 106.16 Z M 51.34 329.39 L 49.54 324.43 L 47.96 319.72 L 46.59 315.26 L 45.43 311.06 L 44.48 307.10 L 43.74 303.39 L 43.21 299.94 L 42.90 296.73 L 42.79 293.78 L 42.73 291.13 L 42.70 288.78 L 42.71 286.73 L 42.77 284.99 L 42.86 283.55 L 42.99 282.42 L 43.16 281.59 L 43.37 281.06 L 43.71 280.57 L 44.19 280.13 L 44.80 279.72 L 45.54 279.35 L 46.41 279.02 L 47.41 278.73 L 48.54 278.48 L 49.81 278.27 L 51.17 278.19 L 52.62 278.24 L 54.16 278.42 L 55.80 278.74 L 57.53 279.19 L 59.35 279.77 L 61.26 280.48 L 63.26 281.33 L 66.01 282.83 L 69.49 284.99 L 73.71 287.82 L 78.67 291.30 L 84.37 295.44 L 90.80 300.24 L 97.98 305.70 L 105.89 311.82 L 112.86 317.24 L 118.87 321.96 L 123.94 325.99 L 128.05 329.31 L 131.22 331.94 L 133.44 333.86 L 134.70 335.09 L 135.02 335.62 L 135.65 336.36 L 136.60 337.31 L 137.87 338.47 L 139.45 339.84 L 141.35 341.42 L 143.57 343.21 L 146.10 345.22 L 148.95 347.44 L 151.47 349.43 L 153.66 351.19 L 155.52 352.74 L 157.05 354.06 L 158.25 355.15 L 159.12 356.02 L 159.66 356.67 L 159.87 357.09 L 160.75 358.07 L 162.31 359.60 L 164.54 361.68 L 167.44 364.32 L 171.01 367.51 L 175.26 371.26 L 180.18 375.56 L 185.77 380.41 L 191.13 385.21 L 196.25 389.96 L 201.13 394.66 L 205.77 399.30 L 210.18 403.89 L 214.34 408.43 L 218.28 412.91 L 221.97 417.34 L 225.28 421.35 L 228.21 424.94 L 230.75 428.11 L 232.92 430.85 L 234.70 433.17 L 236.10 435.07 L 237.11 436.55 L 237.74 437.60 L 238.38 438.78 L 239.01 440.07 L 239.64 441.48 L 240.28 443.01 L 240.91 444.66 L 241.54 446.43 L 242.18 448.32 L 242.81 450.32 L 243.35 452.19 L 243.80 453.93 L 244.16 455.54 L 244.42 457.02 L 244.59 458.37 L 244.67 459.58 L 244.66 460.66 L 244.55 461.61 L 244.34 462.52 L 244.02 463.39 L 243.60 464.22 L 243.07 465.01 L 242.44 465.77 L 241.70 466.48 L 240.86 467.15 L 239.91 467.78 L 238.80 468.34 L 237.53 468.81 L 236.11 469.21 L 234.53 469.53 L 232.79 469.76 L 230.89 469.92 L 228.83 470.00 L 226.61 470.00 L 224.04 469.83 L 221.11 469.49 L 217.83 468.97 L 214.19 468.29 L 210.19 467.43 L 205.84 466.40 L 201.13 465.20 L 196.06 463.83 L 191.08 462.36 L 186.17 460.81 L 181.34 459.16 L 176.59 457.42 L 171.92 455.58 L 167.33 453.66 L 162.82 451.64 L 158.39 449.53 L 154.21 447.48 L 150.28 445.51 L 146.60 443.59 L 143.17 441.75 L 139.99 439.97 L 137.06 438.25 L 134.39 436.60 L 131.96 435.02 L 129.37 433.21 L 126.63 431.18 L 123.73 428.93 L 120.67 426.45 L 117.45 423.74 L 114.07 420.81 L 110.54 417.66 L 106.84 414.28 L 103.28 410.91 L 99.85 407.53 L 96.56 404.15 L 93.39 400.78 L 90.36 397.40 L 87.45 394.02 L 84.68 390.65 L 82.05 387.27 L 79.50 383.88 L 77.05 380.48 L 74.69 377.06 L 72.42 373.63 L 70.24 370.19 L 68.16 366.73 L 66.16 363.26 L 64.27 359.78 L 62.60 356.72 L 61.18 354.08 L 59.99 351.87 L 59.04 350.07 L 58.33 348.70 L 57.85 347.75 L 57.62 347.22 L 57.62 347.12 L 57.39 346.41 L 56.94 345.09 L 56.27 343.16 L 55.38 340.63 L 54.25 337.49 L 52.91 333.74 L 51.34 329.39 Z M 283.59 87.53 L 284.97 81.73 L 286.21 76.56 L 287.31 72.02 L 288.29 68.12 L 289.13 64.85 L 289.85 62.21 L 290.43 60.20 L 290.88 58.83 L 291.19 58.09 L 291.60 57.35 L 292.10 56.61 L 292.70 55.88 L 293.38 55.14 L 294.16 54.40 L 295.03 53.66 L 295.99 52.92 L 297.05 52.18 L 298.14 51.52 L 299.28 50.94 L 300.45 50.44 L 301.66 50.02 L 302.92 49.68 L 304.21 49.41 L 305.54 49.23 L 306.91 49.12 L 308.47 49.14 L 310.21 49.27 L 312.14 49.52 L 314.25 49.89 L 316.54 50.38 L 319.02 50.98 L 321.69 51.71 L 324.54 52.55 L 327.41 53.49 L 330.31 54.52 L 333.24 55.64 L 336.20 56.85 L 339.18 58.16 L 342.19 59.56 L 345.22 61.05 L 348.28 62.63 L 351.10 64.19 L 353.69 65.72 L 356.04 67.22 L 358.15 68.70 L 360.02 70.15 L 361.65 71.57 L 363.05 72.97 L 364.21 74.34 L 365.22 75.66 L 366.06 76.93 L 366.75 78.14 L 367.27 79.30 L 367.64 80.41 L 367.85 81.47 L 367.91 82.47 L 367.80 83.42 L 367.62 84.33 L 367.35 85.20 L 367.01 86.03 L 366.59 86.82 L 366.09 87.57 L 365.51 88.28 L 364.85 88.96 L 364.11 89.59 L 362.84 90.47 L 361.05 91.61 L 358.73 92.99 L 355.88 94.63 L 352.50 96.52 L 348.60 98.65 L 344.16 101.04 L 339.20 103.68 L 334.61 106.05 L 330.39 108.16 L 326.54 110.01 L 323.06 111.59 L 319.95 112.91 L 317.20 113.97 L 314.83 114.76 L 312.82 115.29 L 310.81 115.76 L 308.77 116.18 L 306.73 116.55 L 304.67 116.87 L 302.60 117.13 L 300.52 117.34 L 298.42 117.50 L 296.31 117.61 L 294.40 117.69 L 292.68 117.74 L 291.17 117.77 L 289.85 117.77 L 288.73 117.74 L 287.80 117.69 L 287.08 117.61 L 286.55 117.50 L 285.99 117.28 L 285.41 116.93 L 284.81 116.47 L 284.17 115.89 L 283.52 115.19 L 282.83 114.38 L 282.12 113.44 L 281.38 112.38 L 280.73 111.45 L 280.18 110.63 L 279.72 109.93 L 279.35 109.35 L 279.07 108.89 L 278.89 108.55 L 278.79 108.32 L 278.79 108.22 L 278.96 107.40 L 279.31 105.87 L 279.82 103.63 L 280.51 100.67 L 281.37 97.00 L 282.39 92.62 L 283.59 87.53 Z M 262.33 42.37 L 263.18 42.47 L 263.98 42.62 L 264.75 42.80 L 265.47 43.03 L 266.16 43.29 L 266.80 43.60 L 267.41 43.94 L 267.98 44.32 L 268.50 44.74 L 269.01 45.18 L 269.48 45.63 L 269.93 46.09 L 270.35 46.56 L 270.75 47.05 L 271.12 47.55 L 271.46 48.07 L 271.78 48.60 L 272.05 49.20 L 272.29 49.89 L 272.49 50.65 L 272.65 51.50 L 272.76 52.42 L 272.84 53.42 L 272.88 54.50 L 272.88 55.67 L 272.78 56.94 L 272.57 58.34 L 272.25 59.86 L 271.83 61.50 L 271.30 63.25 L 270.67 65.12 L 269.93 67.11 L 269.08 69.22 L 268.27 71.43 L 267.48 73.72 L 266.71 76.11 L 265.97 78.59 L 265.26 81.16 L 264.57 83.83 L 263.91 86.58 L 263.28 89.43 L 262.61 92.06 L 261.90 94.46 L 261.14 96.63 L 260.35 98.59 L 259.52 100.31 L 258.65 101.82 L 257.74 103.10 L 256.79 104.15 L 255.79 105.04 L 254.73 105.75 L 253.63 106.29 L 252.46 106.66 L 251.25 106.86 L 249.99 106.88 L 248.67 106.74 L 247.29 106.42 L 245.71 105.83 L 243.92 104.96 L 241.91 103.81 L 239.70 102.39 L 237.27 100.68 L 234.63 98.71 L 231.78 96.45 L 228.72 93.92 L 225.69 91.48 L 222.68 89.13 L 219.70 86.87 L 216.75 84.71 L 213.82 82.64 L 210.92 80.66 L 208.04 78.77 L 205.19 76.98 L 202.63 75.29 L 200.36 73.71 L 198.38 72.23 L 196.70 70.86 L 195.30 69.59 L 194.19 68.43 L 193.37 67.38 L 192.84 66.43 L 192.38 65.48 L 191.99 64.53 L 191.66 63.58 L 191.39 62.63 L 191.20 61.68 L 191.06 60.73 L 191.00 59.78 L 191.00 58.83 L 191.14 57.88 L 191.43 56.93 L 191.87 55.98 L 192.45 55.03 L 193.17 54.08 L 194.04 53.13 L 195.06 52.18 L 196.22 51.23 L 197.49 50.32 L 198.86 49.45 L 200.34 48.62 L 201.92 47.83 L 203.61 47.08 L 205.40 46.37 L 207.30 45.69 L 209.31 45.06 L 211.72 44.49 L 214.54 43.99 L 217.77 43.56 L 221.41 43.19 L 225.46 42.88 L 229.92 42.65 L 234.79 42.47 L 240.07 42.37 L 244.70 42.28 L 248.68 42.20 L 252.02 42.13 L 254.71 42.08 L 256.75 42.04 L 258.15 42.01 L 258.90 42.00 L 259.01 42.00 L 259.21 42.01 L 259.50 42.04 L 259.88 42.08 L 260.35 42.13 L 260.92 42.20 L 261.58 42.28 L 262.33 42.37 Z" fill="#121827" fill-rule="evenodd" clip-rule="evenodd"/>
</svg>
