<svg width="512" height="512" viewBox="0 0 512 512" fill="none" xmlns="http://www.w3.org/2000/svg">
  <defs>
    <linearGradient id="p23FacetBlue" x1="110" y1="100" x2="240" y2="280" gradientUnits="userSpaceOnUse">
      <stop offset="0%" stop-color="#71E7FF"/>
      <stop offset="100%" stop-color="#245BFF"/>
    </linearGradient>
    <linearGradient id="p23FacetTeal" x1="120" y1="260" x2="240" y2="420" gradientUnits="userSpaceOnUse">
      <stop offset="0%" stop-color="#7FFAD9"/>
      <stop offset="100%" stop-color="#14C29B"/>
    </linearGradient>
    <linearGradient id="p23FacetAmber" x1="250" y1="96" x2="380" y2="280" gradientUnits="userSpaceOnUse">
      <stop offset="0%" stop-color="#FFD96E"/>
      <stop offset="100%" stop-color="#FF8E24"/>
    </linearGradient>
    <linearGradient id="p23FacetCoral" x1="264" y1="232" x2="382" y2="404" gradientUnits="userSpaceOnUse">
      <stop offset="0%" stop-color="#FF8380"/>
      <stop offset="100%" stop-color="#FF509D"/>
    </linearGradient>
  </defs>

  <rect width="512" height="512" rx="72" fill="#F4F6FB"/>

  <clipPath id="p23FacetLeftMain">
    <path d="M114 24C93 30 75 50 66 77C58 101 56 131 61 160C68 198 88 228 118 236C140 242 160 232 168 210C175 189 174 160 168 128C161 88 149 53 132 32C127 26 120 23 114 24Z"/>
  </clipPath>
  <clipPath id="p23FacetLeftBottom">
    <path d="M132 211C113 216 98 231 94 250C90 269 100 286 117 292C133 297 150 290 160 275C171 257 172 234 162 220C155 212 143 209 132 211Z"/>
  </clipPath>
  <clipPath id="p23FacetRightMain">
    <path d="M249 27C273 26 295 37 307 60C318 81 321 108 316 135C309 168 291 197 267 212C246 225 224 224 208 211C193 198 186 176 186 150C186 109 196 69 216 43C225 31 237 27 249 27Z"/>
  </clipPath>
  <clipPath id="p23FacetRightBottom">
    <path d="M266 160C287 160 305 170 315 187C326 203 328 224 321 244C314 264 298 280 279 286C260 291 239 285 225 270C211 255 205 234 208 211C211 187 224 171 245 163C252 161 259 160 266 160Z"/>
  </clipPath>

  <g transform="translate(84 90)">
    <path d="M114 24C93 30 75 50 66 77C58 101 56 131 61 160C68 198 88 228 118 236C140 242 160 232 168 210C175 189 174 160 168 128C161 88 149 53 132 32C127 26 120 23 114 24Z" fill="url(#p23FacetBlue)"/>
    <path d="M132 211C113 216 98 231 94 250C90 269 100 286 117 292C133 297 150 290 160 275C171 257 172 234 162 220C155 212 143 209 132 211Z" fill="url(#p23FacetTeal)"/>
    <path d="M249 27C273 26 295 37 307 60C318 81 321 108 316 135C309 168 291 197 267 212C246 225 224 224 208 211C193 198 186 176 186 150C186 109 196 69 216 43C225 31 237 27 249 27Z" fill="url(#p23FacetAmber)"/>
    <path d="M266 160C287 160 305 170 315 187C326 203 328 224 321 244C314 264 298 280 279 286C260 291 239 285 225 270C211 255 205 234 208 211C211 187 224 171 245 163C252 161 259 160 266 160Z" fill="url(#p23FacetCoral)"/>
    <path d="M157 12C146 15 139 24 140 35C141 48 151 56 163 57C175 58 185 51 188 40C191 27 184 15 171 12C166 11 161 11 157 12Z" fill="#AF74FF"/>
    <path d="M212 11C225 9 238 16 243 27C248 38 245 50 236 57C226 64 212 64 201 56C191 49 188 36 194 25C198 17 204 13 212 11Z" fill="#6D7AFF"/>

    <path d="M90 40L180 88L164 142L82 116Z" fill="#FFFFFF" opacity="0.14" clip-path="url(#p23FacetLeftMain)"/>
    <path d="M220 54L312 84L290 138L206 124Z" fill="#FFFFFF" opacity="0.14" clip-path="url(#p23FacetRightMain)"/>
    <path d="M105 228L167 220L160 285L108 272Z" fill="#FFFFFF" opacity="0.13" clip-path="url(#p23FacetLeftBottom)"/>
    <path d="M226 185L320 198L300 262L230 250Z" fill="#FFFFFF" opacity="0.13" clip-path="url(#p23FacetRightBottom)"/>

    <path d="M173 36C184 65 187 90 186 127C185 170 191 214 212 253" stroke="#101727" stroke-width="20" stroke-linecap="round"/>
    <path d="M183 126C212 116 236 100 261 71" stroke="#101727" stroke-width="18" stroke-linecap="round"/>
    <path d="M185 173C216 162 242 145 266 120" stroke="#101727" stroke-width="18" stroke-linecap="round"/>
  </g>
</svg>
