<svg width="512" height="512" viewBox="0 0 512 512" fill="none" xmlns="http://www.w3.org/2000/svg">
  <rect width="512" height="512" fill="#FFFFFF"/>
  <path d="M 205.67 99.83 C 207.21 101.06 209.28 102.66 210.94 104.05 C 212.60 105.44 214.17 106.81 215.64 108.16 C 217.11 109.52 218.48 110.85 219.75 112.17 C 221.03 113.49 222.21 114.79 223.29 116.08 C 224.37 117.36 225.28 118.58 226.24 119.88 C 227.20 121.17 228.13 122.49 229.04 123.83 C 229.94 125.18 230.82 126.55 231.68 127.95 C 232.53 129.35 233.36 130.77 234.16 132.22 C 234.96 133.67 235.75 135.18 236.48 136.65 C 237.21 138.13 237.89 139.61 238.54 141.09 C 239.18 142.56 239.78 144.04 240.33 145.52 C 240.88 147.00 241.39 148.47 241.86 149.95 C 242.33 151.43 242.74 152.91 243.13 154.38 C 243.51 155.85 243.86 157.31 244.18 158.76 C 244.50 160.21 244.78 161.65 245.03 163.09 C 245.27 164.52 245.48 165.95 245.66 167.36 C 245.83 168.78 245.98 169.60 246.08 171.58 C 246.19 173.56 246.26 176.11 246.29 179.23 C 246.33 182.35 246.33 186.05 246.29 190.31 C 246.26 194.58 246.19 199.41 246.08 204.82 C 245.98 210.23 245.71 217.06 245.66 222.76 C 245.61 228.46 245.64 233.88 245.76 239.01 C 245.89 244.15 246.10 249.00 246.40 253.57 C 246.70 258.15 247.08 262.44 247.56 266.45 C 248.03 270.46 248.73 273.82 249.25 277.63 C 249.77 281.45 250.24 285.35 250.67 289.35 C 251.10 293.34 251.49 297.42 251.83 301.59 C 252.17 305.75 252.47 310.01 252.73 314.35 C 252.98 318.70 253.19 323.60 253.36 327.65 C 253.54 331.69 253.68 335.35 253.78 338.62 C 253.89 341.90 253.96 344.78 254.00 347.28 C 254.03 349.77 254.03 351.88 254.00 353.61 C 253.96 355.33 253.89 356.33 253.78 357.62 C 253.68 358.91 253.54 360.16 253.36 361.36 C 253.19 362.57 252.98 363.73 252.73 364.85 C 252.48 365.96 252.20 367.04 251.88 368.07 C 251.57 369.09 251.19 370.08 250.83 371.02 C 250.47 371.96 250.10 372.86 249.72 373.71 C 249.34 374.56 248.96 375.37 248.56 376.14 C 248.16 376.90 247.76 377.62 247.35 378.30 C 246.93 378.98 246.54 379.62 246.08 380.20 C 245.62 380.78 245.13 381.31 244.60 381.78 C 244.08 382.26 243.51 382.68 242.92 383.05 C 242.32 383.42 241.68 383.74 241.02 384.00 C 240.35 384.26 239.65 384.47 238.91 384.63 C 238.16 384.79 237.37 384.90 236.53 384.95 C 235.70 385.00 234.82 385.00 233.89 384.95 C 232.97 384.90 232.00 384.79 230.99 384.63 C 229.98 384.47 228.82 384.23 227.83 384.00 C 226.83 383.77 225.90 383.52 225.03 383.26 C 224.16 383.00 223.35 382.72 222.60 382.42 C 221.85 382.12 221.17 381.80 220.54 381.47 C 219.92 381.13 220.59 381.82 218.86 380.41 C 217.12 379.00 214.22 376.54 210.15 373.02 C 206.08 369.51 200.84 364.93 194.43 359.31 C 188.02 353.68 180.44 347.00 171.69 339.26 C 162.94 331.52 150.86 320.90 141.93 312.88 C 133.00 304.86 125.07 297.61 118.13 291.14 C 111.20 284.67 105.25 278.97 100.30 274.04 C 95.35 269.12 91.39 264.97 88.43 261.59 C 85.47 258.22 84.34 256.27 82.52 253.78 C 80.70 251.30 79.03 248.92 77.51 246.66 C 75.99 244.40 74.62 242.26 73.39 240.22 C 72.17 238.19 71.10 236.28 70.17 234.47 C 69.25 232.67 68.57 231.04 67.85 229.41 C 67.13 227.77 66.46 226.19 65.85 224.66 C 65.23 223.13 64.67 221.65 64.16 220.23 C 63.65 218.80 63.19 217.43 62.79 216.11 C 62.38 214.79 62.05 213.71 61.73 212.31 C 61.42 210.92 61.13 209.39 60.89 207.72 C 60.64 206.06 60.43 204.27 60.26 202.34 C 60.08 200.42 59.94 198.36 59.83 196.17 C 59.73 193.98 59.63 191.47 59.62 189.20 C 59.61 186.94 59.67 184.72 59.78 182.56 C 59.89 180.39 60.07 178.28 60.31 176.22 C 60.55 174.17 60.84 172.16 61.21 170.21 C 61.57 168.26 61.97 166.43 62.47 164.51 C 62.97 162.59 63.55 160.66 64.21 158.71 C 64.87 156.76 65.61 154.79 66.43 152.80 C 67.25 150.81 68.14 148.81 69.12 146.78 C 70.10 144.76 71.09 142.76 72.29 140.66 C 73.48 138.57 74.82 136.43 76.29 134.23 C 77.77 132.03 79.39 129.78 81.15 127.47 C 82.91 125.17 84.81 122.81 86.85 120.40 C 88.89 117.99 91.18 115.36 93.39 113.02 C 95.60 110.68 97.83 108.46 100.09 106.37 C 102.35 104.28 104.64 102.31 106.95 100.46 C 109.26 98.61 111.60 96.89 113.97 95.29 C 116.33 93.69 118.88 92.19 121.14 90.86 C 123.40 89.52 125.53 88.32 127.53 87.27 C 129.52 86.21 131.39 85.30 133.12 84.53 C 134.85 83.75 136.45 83.12 137.92 82.63 C 139.39 82.13 140.52 81.87 141.93 81.57 C 143.34 81.27 144.81 81.03 146.36 80.83 C 147.91 80.64 149.53 80.50 151.22 80.41 C 152.90 80.32 154.66 80.29 156.49 80.30 C 158.32 80.32 160.26 80.32 162.19 80.52 C 164.12 80.71 166.09 81.03 168.10 81.47 C 170.10 81.91 172.14 82.47 174.22 83.15 C 176.30 83.84 178.41 84.65 180.55 85.58 C 182.70 86.51 185.18 87.82 187.09 88.75 C 189.01 89.67 190.66 90.46 192.05 91.12 C 193.44 91.78 194.57 92.31 195.43 92.70 C 196.29 93.10 196.89 93.36 197.22 93.50 C 197.56 93.63 197.15 93.32 197.43 93.50 C 197.72 93.67 198.21 94.02 198.91 94.55 C 199.62 95.08 200.53 95.78 201.66 96.66 C 202.78 97.54 204.12 98.60 205.67 99.83 Z M 284.91 363.00 C 285.29 362.38 285.50 361.80 286.18 360.89 C 286.86 359.98 287.79 358.88 288.98 357.57 C 290.16 356.26 291.61 354.74 293.30 353.03 C 295.00 351.31 296.95 349.40 299.16 347.28 C 301.37 345.16 303.71 342.89 306.55 340.31 C 309.39 337.74 312.60 334.90 316.20 331.82 C 319.80 328.73 323.77 325.39 328.12 321.79 C 332.48 318.20 337.21 314.35 342.32 310.24 C 347.43 306.13 353.50 301.40 358.78 297.15 C 364.06 292.91 369.12 288.77 373.97 284.75 C 378.83 280.74 383.47 276.83 387.90 273.04 C 392.34 269.25 396.56 265.58 400.57 262.01 C 404.58 258.45 408.52 254.77 411.96 251.67 C 415.40 248.58 418.48 245.83 421.20 243.44 C 423.91 241.05 426.27 239.01 428.27 237.32 C 430.26 235.63 431.90 234.30 433.17 233.31 C 434.45 232.33 434.97 232.02 435.92 231.41 C 436.87 230.81 437.85 230.23 438.87 229.67 C 439.89 229.12 440.95 228.59 442.04 228.09 C 443.13 227.59 444.25 227.11 445.41 226.66 C 446.57 226.22 447.86 225.74 449.00 225.40 C 450.14 225.06 451.23 224.79 452.27 224.61 C 453.31 224.42 454.29 224.32 455.23 224.29 C 456.16 224.26 457.04 224.32 457.86 224.45 C 458.69 224.58 459.47 224.84 460.19 225.08 C 460.91 225.33 461.58 225.61 462.19 225.93 C 462.81 226.24 463.37 226.59 463.88 226.98 C 464.39 227.37 464.85 227.79 465.25 228.25 C 465.66 228.70 465.98 229.20 466.31 229.72 C 466.63 230.25 466.93 230.82 467.20 231.41 C 467.48 232.01 467.72 232.64 467.94 233.31 C 468.16 233.98 468.36 234.68 468.52 235.42 C 468.69 236.16 468.83 236.63 468.94 237.74 C 469.06 238.86 469.15 240.32 469.21 242.12 C 469.27 243.93 469.31 246.07 469.31 248.56 C 469.32 251.05 469.31 253.88 469.26 257.06 C 469.22 260.23 469.21 264.09 469.05 267.61 C 468.89 271.12 468.65 274.64 468.31 278.16 C 467.98 281.68 467.56 285.19 467.05 288.71 C 466.54 292.23 465.94 295.75 465.25 299.26 C 464.57 302.78 463.75 306.41 462.93 309.82 C 462.11 313.22 461.25 316.51 460.34 319.68 C 459.44 322.86 458.49 325.92 457.50 328.86 C 456.50 331.81 455.46 334.64 454.38 337.36 C 453.30 340.08 452.16 342.62 451.01 345.17 C 449.85 347.72 448.68 350.21 447.47 352.66 C 446.27 355.10 445.04 357.50 443.78 359.83 C 442.52 362.17 441.24 364.46 439.93 366.69 C 438.62 368.93 437.25 371.13 435.92 373.24 C 434.58 375.35 433.24 377.39 431.91 379.36 C 430.57 381.33 429.23 383.23 427.90 385.05 C 426.56 386.88 425.22 388.64 423.89 390.33 C 422.55 392.02 421.30 393.53 419.88 395.18 C 418.45 396.84 416.94 398.53 415.34 400.25 C 413.74 401.97 412.05 403.73 410.27 405.53 C 408.50 407.32 406.63 409.15 404.68 411.01 C 402.73 412.88 400.58 414.88 398.56 416.71 C 396.54 418.54 394.53 420.30 392.55 421.99 C 390.56 423.68 388.59 425.29 386.64 426.84 C 384.68 428.39 382.75 429.87 380.83 431.27 C 378.92 432.68 377.18 433.93 375.14 435.28 C 373.09 436.64 370.89 438.01 368.54 439.40 C 366.19 440.79 363.69 442.19 361.05 443.62 C 358.40 445.04 355.60 446.49 352.66 447.95 C 349.71 449.41 346.23 451.05 343.37 452.38 C 340.51 453.71 337.89 454.88 335.51 455.91 C 333.13 456.94 330.98 457.82 329.07 458.55 C 327.17 459.28 325.50 459.86 324.06 460.29 C 322.63 460.72 321.67 460.89 320.47 461.14 C 319.28 461.38 318.08 461.59 316.89 461.77 C 315.69 461.95 314.49 462.09 313.30 462.19 C 312.10 462.30 310.91 462.37 309.71 462.40 C 308.52 462.44 307.28 462.44 306.12 462.40 C 304.96 462.37 303.84 462.30 302.75 462.19 C 301.66 462.09 300.60 461.95 299.58 461.77 C 298.56 461.59 297.58 461.38 296.63 461.14 C 295.68 460.89 294.74 460.58 293.88 460.29 C 293.02 460.00 292.21 459.70 291.46 459.39 C 290.70 459.09 290.00 458.77 289.35 458.45 C 288.69 458.12 288.10 457.79 287.55 457.44 C 287.01 457.10 286.59 456.81 286.07 456.39 C 285.56 455.97 285.01 455.47 284.44 454.91 C 283.87 454.35 283.27 453.71 282.64 453.01 C 282.02 452.31 281.37 451.53 280.69 450.69 C 280.02 449.85 279.25 448.95 278.58 447.95 C 277.91 446.94 277.28 445.85 276.68 444.67 C 276.08 443.50 275.52 442.23 274.99 440.88 C 274.47 439.52 273.97 438.08 273.52 436.55 C 273.06 435.02 272.60 433.44 272.25 431.70 C 271.90 429.95 271.62 428.09 271.41 426.10 C 271.20 424.12 271.05 422.00 270.98 419.77 C 270.91 417.54 270.91 415.18 270.98 412.70 C 271.05 410.22 271.25 407.32 271.41 404.89 C 271.56 402.47 271.74 400.21 271.93 398.14 C 272.13 396.06 272.34 394.16 272.57 392.44 C 272.80 390.72 273.04 389.17 273.31 387.80 C 273.57 386.43 273.83 385.39 274.15 384.21 C 274.47 383.03 274.82 381.87 275.21 380.73 C 275.59 379.58 276.01 378.46 276.47 377.35 C 276.93 376.24 277.42 375.15 277.95 374.08 C 278.48 373.01 279.14 371.84 279.64 370.91 C 280.14 369.99 280.58 369.20 280.96 368.54 C 281.33 367.88 281.65 367.35 281.91 366.96 C 282.16 366.56 282.35 366.30 282.49 366.17 C 282.62 366.03 282.58 366.25 282.70 366.17 C 282.81 366.08 282.97 365.90 283.17 365.64 C 283.37 365.37 283.62 365.02 283.91 364.58 C 284.20 364.14 284.54 363.62 284.91 363.00 Z M 399.19 106.16 C 399.63 106.17 400.14 106.11 400.67 106.16 C 401.21 106.20 401.79 106.29 402.41 106.42 C 403.04 106.55 403.71 106.73 404.42 106.95 C 405.13 107.17 405.89 107.43 406.69 107.74 C 407.49 108.05 408.35 108.35 409.22 108.80 C 410.09 109.24 410.99 109.79 411.91 110.43 C 412.83 111.07 413.78 111.81 414.76 112.65 C 415.73 113.48 416.74 114.41 417.77 115.44 C 418.80 116.47 419.92 117.62 420.93 118.82 C 421.94 120.02 422.91 121.28 423.83 122.62 C 424.76 123.96 425.64 125.36 426.47 126.84 C 427.31 128.32 428.10 129.87 428.85 131.48 C 429.59 133.10 430.33 134.79 430.96 136.55 C 431.58 138.31 432.13 140.14 432.59 142.04 C 433.06 143.93 433.45 145.90 433.75 147.94 C 434.06 149.98 434.29 152.10 434.44 154.28 C 434.59 156.46 434.64 158.88 434.65 161.03 C 434.66 163.18 434.61 165.24 434.49 167.20 C 434.38 169.16 434.20 171.03 433.96 172.80 C 433.73 174.56 433.43 176.23 433.07 177.81 C 432.71 179.38 432.26 180.78 431.80 182.24 C 431.34 183.70 430.85 185.14 430.32 186.57 C 429.80 187.99 429.23 189.40 428.64 190.79 C 428.04 192.18 427.40 193.55 426.74 194.90 C 426.07 196.26 425.53 197.38 424.63 198.91 C 423.72 200.44 422.61 202.17 421.30 204.08 C 419.99 206.00 418.48 208.11 416.76 210.41 C 415.05 212.72 413.13 215.22 411.01 217.91 C 408.89 220.60 406.50 223.65 404.05 226.56 C 401.59 229.47 399.01 232.41 396.29 235.37 C 393.58 238.33 390.73 241.32 387.75 244.34 C 384.76 247.36 381.65 250.40 378.41 253.47 C 375.16 256.54 371.72 259.65 368.28 262.75 C 364.83 265.86 361.31 268.97 357.72 272.09 C 354.14 275.21 350.48 278.34 346.75 281.48 C 343.02 284.62 339.22 287.77 335.35 290.93 C 331.48 294.08 327.07 297.60 323.53 300.43 C 320.00 303.25 316.87 305.73 314.14 307.86 C 311.42 310.00 309.10 311.80 307.18 313.25 C 305.26 314.70 303.75 315.80 302.64 316.57 C 301.53 317.34 301.27 317.46 300.53 317.84 C 299.79 318.21 299.02 318.55 298.21 318.84 C 297.40 319.13 296.56 319.38 295.68 319.58 C 294.80 319.78 293.88 319.94 292.93 320.05 C 291.98 320.17 290.90 320.25 289.98 320.26 C 289.05 320.27 288.19 320.22 287.39 320.11 C 286.59 319.99 285.85 319.81 285.18 319.58 C 284.50 319.34 283.88 319.04 283.33 318.68 C 282.78 318.32 282.33 317.87 281.85 317.41 C 281.38 316.96 280.92 316.46 280.48 315.94 C 280.04 315.41 279.62 314.85 279.21 314.25 C 278.81 313.65 278.42 313.02 278.05 312.35 C 277.68 311.68 277.35 311.06 277.00 310.24 C 276.65 309.42 276.30 308.49 275.94 307.44 C 275.59 306.40 275.24 305.24 274.89 303.96 C 274.54 302.68 274.19 301.30 273.83 299.79 C 273.48 298.29 273.14 296.93 272.78 294.94 C 272.42 292.95 272.05 290.59 271.67 287.87 C 271.29 285.14 270.91 282.05 270.51 278.58 C 270.11 275.12 269.71 271.28 269.30 267.08 C 268.88 262.88 268.35 258.09 268.03 253.36 C 267.70 248.63 267.48 243.74 267.34 238.69 C 267.21 233.65 267.18 228.44 267.24 223.08 C 267.30 217.71 267.46 212.19 267.71 206.51 C 267.97 200.83 268.41 194.23 268.77 188.99 C 269.13 183.76 269.50 179.14 269.88 175.12 C 270.25 171.10 270.64 167.69 271.04 164.88 C 271.43 162.08 271.84 159.88 272.25 158.29 C 272.66 156.69 273.08 156.26 273.52 155.33 C 273.96 154.40 274.41 153.52 274.89 152.69 C 275.36 151.87 275.86 151.09 276.37 150.37 C 276.88 149.65 277.40 148.98 277.95 148.37 C 278.49 147.75 278.97 147.26 279.64 146.68 C 280.31 146.10 281.08 145.50 281.96 144.88 C 282.84 144.27 283.82 143.64 284.91 142.99 C 286.00 142.33 287.20 141.67 288.50 140.98 C 289.80 140.29 291.24 139.54 292.72 138.87 C 294.20 138.20 295.75 137.57 297.36 136.97 C 298.98 136.37 300.67 135.81 302.43 135.28 C 304.19 134.75 306.02 134.26 307.92 133.80 C 309.82 133.35 311.66 133.12 313.83 132.54 C 315.99 131.96 318.35 131.22 320.90 130.32 C 323.45 129.43 326.19 128.37 329.13 127.16 C 332.06 125.94 335.19 124.57 338.52 123.04 C 341.84 121.51 345.83 119.50 349.07 117.98 C 352.31 116.46 355.26 115.10 357.93 113.91 C 360.61 112.73 363.00 111.71 365.11 110.85 C 367.22 110.00 369.05 109.31 370.60 108.80 C 372.15 108.28 373.11 108.06 374.40 107.74 C 375.68 107.42 376.98 107.14 378.30 106.90 C 379.62 106.65 380.96 106.44 382.31 106.26 C 383.66 106.09 385.04 105.95 386.43 105.84 C 387.82 105.74 389.42 105.68 390.65 105.63 C 391.88 105.58 392.93 105.54 393.81 105.52 C 394.69 105.51 395.40 105.51 395.92 105.52 C 396.45 105.54 396.80 105.58 396.98 105.63 C 397.15 105.68 396.92 105.78 396.98 105.84 C 397.04 105.90 397.16 105.96 397.35 106.00 C 397.53 106.04 397.78 106.08 398.09 106.11 C 398.39 106.13 398.76 106.15 399.19 106.16 Z M 52.24 331.87 C 51.19 328.97 49.70 325.09 48.65 321.95 C 47.59 318.81 46.68 315.84 45.90 313.04 C 45.13 310.23 44.50 307.59 44.00 305.12 C 43.51 302.65 43.16 300.35 42.95 298.21 C 42.74 296.07 42.78 294.07 42.74 292.30 C 42.69 290.53 42.68 288.97 42.69 287.60 C 42.69 286.24 42.73 285.08 42.79 284.12 C 42.85 283.16 42.94 282.41 43.06 281.85 C 43.17 281.30 43.25 281.12 43.48 280.80 C 43.71 280.47 44.02 280.17 44.43 279.90 C 44.83 279.63 45.32 279.38 45.90 279.16 C 46.48 278.94 47.15 278.75 47.91 278.58 C 48.67 278.41 49.54 278.21 50.44 278.16 C 51.35 278.11 52.31 278.14 53.34 278.27 C 54.37 278.39 55.46 278.60 56.61 278.90 C 57.77 279.20 58.98 279.58 60.26 280.06 C 61.53 280.53 62.44 280.75 64.27 281.75 C 66.09 282.75 68.42 284.19 71.23 286.07 C 74.04 287.96 77.35 290.28 81.15 293.04 C 84.95 295.80 89.24 299.00 94.02 302.64 C 98.81 306.28 105.21 311.27 109.85 314.88 C 114.49 318.50 118.50 321.64 121.88 324.33 C 125.26 327.01 128.00 329.22 130.11 330.97 C 132.22 332.72 133.70 334.01 134.54 334.83 C 135.39 335.64 134.75 335.39 135.18 335.88 C 135.60 336.37 136.23 337.01 137.08 337.78 C 137.92 338.55 138.98 339.47 140.24 340.52 C 141.51 341.58 142.99 342.77 144.67 344.11 C 146.36 345.45 148.69 347.22 150.37 348.54 C 152.05 349.87 153.51 351.05 154.75 352.08 C 155.99 353.11 157.01 353.99 157.81 354.72 C 158.61 355.45 159.19 356.03 159.55 356.46 C 159.91 356.89 159.39 356.65 159.97 357.30 C 160.56 357.95 161.60 358.97 163.09 360.36 C 164.57 361.75 166.51 363.51 168.89 365.64 C 171.27 367.77 174.11 370.26 177.39 373.13 C 180.67 376.00 185.00 379.64 188.57 382.84 C 192.14 386.04 195.55 389.20 198.81 392.34 C 202.06 395.47 205.16 398.56 208.09 401.62 C 211.03 404.68 213.81 407.71 216.43 410.70 C 219.05 413.69 221.61 416.89 223.82 419.56 C 226.02 422.23 227.97 424.63 229.67 426.74 C 231.37 428.85 232.81 430.68 234.00 432.22 C 235.19 433.77 236.12 435.04 236.79 436.02 C 237.47 437.01 237.64 437.35 238.06 438.13 C 238.48 438.91 238.91 439.78 239.33 440.72 C 239.75 441.66 240.17 442.68 240.59 443.78 C 241.02 444.88 241.44 446.06 241.86 447.31 C 242.28 448.57 242.77 450.07 243.13 451.32 C 243.49 452.57 243.79 453.73 244.02 454.80 C 244.26 455.88 244.44 456.86 244.55 457.76 C 244.67 458.66 244.72 459.47 244.71 460.19 C 244.70 460.91 244.64 461.48 244.50 462.09 C 244.36 462.69 244.15 463.27 243.86 463.83 C 243.58 464.38 243.23 464.91 242.81 465.41 C 242.39 465.91 241.90 466.39 241.33 466.83 C 240.77 467.28 240.17 467.73 239.43 468.10 C 238.69 468.47 237.85 468.79 236.90 469.05 C 235.95 469.31 234.90 469.53 233.73 469.68 C 232.57 469.84 231.31 469.95 229.94 470.00 C 228.56 470.05 227.22 470.11 225.50 470.00 C 223.79 469.89 221.84 469.66 219.65 469.31 C 217.46 468.97 215.03 468.51 212.37 467.94 C 209.70 467.37 206.80 466.68 203.66 465.88 C 200.52 465.08 196.85 464.12 193.53 463.14 C 190.21 462.16 186.94 461.13 183.72 460.03 C 180.50 458.93 177.33 457.77 174.22 456.55 C 171.11 455.32 168.05 454.04 165.04 452.69 C 162.03 451.35 158.96 449.84 156.18 448.47 C 153.39 447.11 150.77 445.79 148.31 444.52 C 145.86 443.24 143.57 442.01 141.46 440.82 C 139.34 439.64 137.38 438.49 135.60 437.39 C 133.81 436.29 132.47 435.43 130.74 434.23 C 129.02 433.02 127.19 431.67 125.26 430.17 C 123.32 428.66 121.28 427.01 119.14 425.21 C 116.99 423.40 114.74 421.45 112.38 419.35 C 110.03 417.25 107.37 414.85 105.00 412.60 C 102.62 410.34 100.34 408.09 98.14 405.84 C 95.94 403.59 93.83 401.34 91.81 399.09 C 89.78 396.84 87.85 394.59 86.00 392.34 C 84.16 390.08 82.42 387.84 80.73 385.58 C 79.03 383.32 77.39 381.05 75.82 378.78 C 74.25 376.50 72.73 374.21 71.28 371.92 C 69.83 369.62 68.44 367.32 67.11 365.00 C 65.79 362.69 64.42 360.08 63.32 358.04 C 62.21 356.00 61.26 354.24 60.47 352.76 C 59.68 351.29 59.04 350.09 58.57 349.18 C 58.09 348.26 57.78 347.63 57.62 347.28 C 57.46 346.93 57.77 347.54 57.62 347.07 C 57.47 346.59 57.17 345.71 56.72 344.43 C 56.27 343.14 55.67 341.46 54.93 339.36 C 54.18 337.27 53.28 334.77 52.24 331.87 Z M 282.91 90.43 C 283.71 87.04 284.83 82.27 285.65 78.83 C 286.48 75.38 287.22 72.36 287.87 69.75 C 288.52 67.15 289.08 64.97 289.56 63.21 C 290.03 61.45 290.42 60.11 290.72 59.20 C 291.02 58.29 291.08 58.22 291.35 57.72 C 291.62 57.23 291.96 56.74 292.35 56.25 C 292.75 55.75 293.21 55.26 293.72 54.77 C 294.24 54.28 294.82 53.78 295.47 53.29 C 296.11 52.80 296.85 52.25 297.58 51.81 C 298.31 51.37 299.06 50.99 299.84 50.65 C 300.63 50.32 301.44 50.04 302.27 49.81 C 303.11 49.58 303.97 49.40 304.86 49.28 C 305.75 49.16 306.56 49.06 307.60 49.07 C 308.64 49.08 309.80 49.17 311.08 49.33 C 312.37 49.50 313.77 49.75 315.30 50.07 C 316.83 50.40 318.49 50.80 320.26 51.29 C 322.04 51.77 324.04 52.35 325.96 52.97 C 327.88 53.60 329.81 54.28 331.77 55.03 C 333.72 55.78 335.69 56.59 337.67 57.46 C 339.66 58.33 341.67 59.26 343.69 60.26 C 345.71 61.25 347.93 62.38 349.81 63.42 C 351.69 64.46 353.42 65.48 354.98 66.48 C 356.55 67.48 357.95 68.47 359.20 69.44 C 360.45 70.40 361.54 71.35 362.47 72.29 C 363.40 73.22 364.13 74.15 364.79 75.03 C 365.46 75.91 366.02 76.75 366.48 77.56 C 366.94 78.37 367.29 79.14 367.54 79.88 C 367.78 80.62 367.92 81.32 367.96 81.99 C 367.99 82.66 367.87 83.29 367.75 83.89 C 367.63 84.50 367.45 85.08 367.22 85.63 C 366.99 86.19 366.71 86.72 366.38 87.22 C 366.04 87.72 365.66 88.19 365.22 88.64 C 364.78 89.09 364.58 89.32 363.74 89.91 C 362.89 90.50 361.70 91.25 360.15 92.18 C 358.60 93.10 356.70 94.19 354.45 95.45 C 352.20 96.70 349.60 98.13 346.64 99.72 C 343.69 101.31 339.79 103.41 336.72 105.00 C 333.66 106.58 330.85 107.99 328.28 109.22 C 325.72 110.45 323.39 111.50 321.32 112.38 C 319.24 113.26 317.41 113.97 315.83 114.49 C 314.25 115.02 313.17 115.23 311.82 115.55 C 310.48 115.87 309.12 116.15 307.76 116.39 C 306.40 116.64 305.02 116.85 303.64 117.03 C 302.26 117.20 300.87 117.34 299.48 117.45 C 298.08 117.55 296.53 117.61 295.25 117.66 C 293.98 117.71 292.84 117.75 291.82 117.77 C 290.81 117.78 289.93 117.78 289.19 117.77 C 288.44 117.75 287.82 117.71 287.34 117.66 C 286.86 117.61 286.65 117.60 286.29 117.45 C 285.92 117.30 285.53 117.07 285.12 116.76 C 284.72 116.46 284.30 116.07 283.86 115.60 C 283.42 115.14 282.96 114.59 282.49 113.97 C 282.01 113.34 281.44 112.48 281.01 111.86 C 280.58 111.23 280.21 110.69 279.90 110.22 C 279.59 109.75 279.35 109.37 279.16 109.06 C 278.98 108.75 278.85 108.52 278.79 108.37 C 278.73 108.22 278.68 108.71 278.79 108.16 C 278.91 107.62 279.14 106.60 279.48 105.10 C 279.82 103.61 280.28 101.64 280.85 99.19 C 281.42 96.75 282.11 93.83 282.91 90.43 Z M 261.91 42.32 C 262.41 42.38 263.06 42.43 263.60 42.53 C 264.13 42.62 264.64 42.75 265.13 42.90 C 265.61 43.05 266.07 43.22 266.50 43.42 C 266.93 43.63 267.33 43.86 267.71 44.11 C 268.09 44.37 268.43 44.66 268.77 44.95 C 269.10 45.24 269.42 45.54 269.72 45.85 C 270.02 46.16 270.30 46.48 270.56 46.80 C 270.83 47.13 271.07 47.46 271.30 47.80 C 271.53 48.15 271.75 48.45 271.93 48.86 C 272.12 49.26 272.28 49.72 272.41 50.23 C 272.54 50.74 272.65 51.30 272.73 51.92 C 272.80 52.53 272.86 53.20 272.88 53.92 C 272.91 54.65 272.95 55.39 272.88 56.25 C 272.81 57.10 272.67 58.03 272.46 59.04 C 272.25 60.05 271.97 61.14 271.62 62.31 C 271.27 63.48 270.84 64.73 270.35 66.06 C 269.86 67.39 269.21 68.81 268.66 70.28 C 268.12 71.75 267.59 73.28 267.08 74.87 C 266.57 76.46 266.08 78.12 265.60 79.83 C 265.13 81.54 264.67 83.32 264.23 85.16 C 263.79 87.00 263.41 89.11 262.96 90.86 C 262.52 92.61 262.04 94.21 261.54 95.66 C 261.04 97.11 260.51 98.41 259.96 99.56 C 259.40 100.71 258.82 101.72 258.22 102.57 C 257.61 103.42 256.98 104.09 256.32 104.68 C 255.65 105.27 254.94 105.74 254.21 106.11 C 253.47 106.47 252.69 106.71 251.88 106.84 C 251.08 106.98 250.23 106.99 249.35 106.90 C 248.47 106.80 247.66 106.66 246.61 106.26 C 245.55 105.87 244.36 105.29 243.02 104.52 C 241.68 103.76 240.21 102.81 238.59 101.67 C 236.97 100.54 235.21 99.22 233.31 97.72 C 231.41 96.21 229.21 94.28 227.19 92.65 C 225.17 91.02 223.16 89.46 221.18 87.96 C 219.19 86.45 217.22 85.01 215.27 83.63 C 213.32 82.25 211.38 80.93 209.46 79.67 C 207.55 78.41 205.47 77.21 203.77 76.08 C 202.06 74.96 200.55 73.90 199.23 72.92 C 197.91 71.93 196.78 71.02 195.85 70.17 C 194.92 69.33 194.18 68.56 193.64 67.85 C 193.09 67.15 192.89 66.59 192.58 65.95 C 192.27 65.32 192.01 64.69 191.79 64.05 C 191.57 63.42 191.39 62.79 191.26 62.15 C 191.13 61.52 191.04 60.89 191.00 60.26 C 190.95 59.62 190.90 58.99 191.00 58.36 C 191.09 57.72 191.29 57.09 191.58 56.46 C 191.87 55.82 192.26 55.19 192.74 54.56 C 193.22 53.92 193.80 53.29 194.48 52.66 C 195.16 52.02 195.96 51.37 196.80 50.76 C 197.65 50.15 198.56 49.57 199.55 49.02 C 200.53 48.46 201.59 47.94 202.71 47.43 C 203.84 46.93 205.03 46.46 206.30 46.01 C 207.57 45.56 208.70 45.12 210.31 44.74 C 211.92 44.37 213.80 44.03 215.95 43.74 C 218.11 43.45 220.54 43.20 223.24 43.00 C 225.93 42.80 228.91 42.64 232.15 42.53 C 235.40 42.41 239.62 42.38 242.70 42.32 C 245.79 42.26 248.45 42.20 250.67 42.16 C 252.90 42.11 254.69 42.08 256.05 42.05 C 257.42 42.03 258.35 42.01 258.85 42.00 C 259.35 41.99 258.93 41.99 259.06 42.00 C 259.19 42.01 259.39 42.03 259.64 42.05 C 259.90 42.08 260.21 42.11 260.59 42.16 C 260.97 42.20 261.41 42.26 261.91 42.32 Z" fill="#121827" fill-rule="evenodd" clip-rule="evenodd"/>
</svg>
