<svg width="512" height="512" viewBox="0 0 512 512" fill="none" xmlns="http://www.w3.org/2000/svg">
  <rect width="512" height="512" rx="72" fill="#F4F7FC"/>
  <defs>
    <linearGradient id="brainBranchLeft" x1="122" y1="122" x2="242" y2="342" gradientUnits="userSpaceOnUse">
      <stop offset="0%" stop-color="#73E2FF"/>
      <stop offset="100%" stop-color="#2C67FF"/>
    </linearGradient>
    <linearGradient id="brainBranchLeftLow" x1="138" y1="272" x2="236" y2="404" gradientUnits="userSpaceOnUse">
      <stop offset="0%" stop-color="#8BFFE0"/>
      <stop offset="100%" stop-color="#1BC4A2"/>
    </linearGradient>
    <linearGradient id="brainBranchRight" x1="248" y1="112" x2="390" y2="340" gradientUnits="userSpaceOnUse">
      <stop offset="0%" stop-color="#FFD86E"/>
      <stop offset="100%" stop-color="#FF8D2A"/>
    </linearGradient>
    <linearGradient id="brainBranchRightLow" x1="260" y1="238" x2="392" y2="404" gradientUnits="userSpaceOnUse">
      <stop offset="0%" stop-color="#FF8381"/>
      <stop offset="100%" stop-color="#FF53A2"/>
    </linearGradient>
    <linearGradient id="brainBranchBudA" x1="163" y1="92" x2="214" y2="138" gradientUnits="userSpaceOnUse">
      <stop offset="0%" stop-color="#CC95FF"/>
      <stop offset="100%" stop-color="#7B43FF"/>
    </linearGradient>
    <linearGradient id="brainBranchBudB" x1="220" y1="92" x2="276" y2="142" gradientUnits="userSpaceOnUse">
      <stop offset="0%" stop-color="#A0B0FF"/>
      <stop offset="100%" stop-color="#5D5AFF"/>
    </linearGradient>
  </defs>

  <g transform="translate(84 86)">
    <path d="M114 24C93 30 75 50 66 77C58 101 56 131 61 160C68 198 88 228 118 236C140 242 160 232 168 210C175 189 174 160 168 128C161 88 149 53 132 32C127 26 120 23 114 24Z" fill="url(#brainBranchLeft)"/>
    <path d="M132 211C113 216 98 231 94 250C90 269 100 286 117 292C133 297 150 290 160 275C171 257 172 234 162 220C155 212 143 209 132 211Z" fill="url(#brainBranchLeftLow)"/>
    <path d="M249 27C273 26 295 37 307 60C318 81 321 108 316 135C309 168 291 197 267 212C246 225 224 224 208 211C193 198 186 176 186 150C186 109 196 69 216 43C225 31 237 27 249 27Z" fill="url(#brainBranchRight)"/>
    <path d="M266 160C287 160 305 170 315 187C326 203 328 224 321 244C314 264 298 280 279 286C260 291 239 285 225 270C211 255 205 234 208 211C211 187 224 171 245 163C252 161 259 160 266 160Z" fill="url(#brainBranchRightLow)"/>
    <path d="M157 12C146 15 139 24 140 35C141 48 151 56 163 57C175 58 185 51 188 40C191 27 184 15 171 12C166 11 161 11 157 12Z" fill="url(#brainBranchBudA)"/>
    <path d="M212 11C225 9 238 16 243 27C248 38 245 50 236 57C226 64 212 64 201 56C191 49 188 36 194 25C198 17 204 13 212 11Z" fill="url(#brainBranchBudB)"/>

    <path d="M173 36C184 65 187 90 186 127C185 170 191 214 212 253" stroke="#0F1728" stroke-width="20" stroke-linecap="round"/>
    <path d="M183 126C212 116 236 100 261 71" stroke="#0F1728" stroke-width="18" stroke-linecap="round"/>
    <path d="M185 173C216 162 242 145 266 120" stroke="#0F1728" stroke-width="18" stroke-linecap="round"/>

    <path d="M99 85C108 67 123 53 140 45" stroke="#D7F5FF" stroke-opacity="0.48" stroke-width="10" stroke-linecap="round"/>
    <path d="M102 122C114 105 132 94 149 90" stroke="#D7F5FF" stroke-opacity="0.38" stroke-width="10" stroke-linecap="round"/>
    <path d="M228 78C246 64 268 56 286 57" stroke="#FFF2C3" stroke-opacity="0.42" stroke-width="10" stroke-linecap="round"/>
    <path d="M234 118C254 103 278 96 297 98" stroke="#FFF2C3" stroke-opacity="0.32" stroke-width="10" stroke-linecap="round"/>
  </g>
</svg>
