<svg width="760" height="1720" viewBox="0 0 760 1720" fill="none" xmlns="http://www.w3.org/2000/svg">
  <rect width="760" height="1720" fill="#F4F6FB"/>

  <text x="42" y="68" fill="#111827" font-family="Inter, Arial, sans-serif" font-size="34" font-weight="800">Iris Pick 23 Study</text>
  <text x="42" y="100" fill="#566277" font-family="Inter, Arial, sans-serif" font-size="18">Trace, simplify, and adapt the selected branch mark.</text>

  <g>
    <rect x="28" y="136" width="704" height="488" rx="28" fill="#FFFFFF" stroke="#E1E7F1"/>
    <text x="56" y="178" fill="#6A768E" font-family="IBM Plex Mono, monospace" font-size="16">01 / TRACE</text>
    <text x="56" y="210" fill="#111827" font-family="Inter, Arial, sans-serif" font-size="26" font-weight="700">Preserve the source geometry</text>
    <rect x="56" y="242" width="648" height="344" rx="28" fill="#05070C"/>

    <ellipse cx="286" cy="414" rx="94" ry="120" transform="rotate(14 286 414)" fill="#FFFDF7"/>
    <ellipse cx="389" cy="522" rx="70" ry="126" transform="rotate(44 389 522)" fill="#FFFDF7"/>
    <ellipse cx="492" cy="394" rx="94" ry="116" transform="rotate(-16 492 394)" fill="#FFFDF7"/>
    <ellipse cx="533" cy="519" rx="64" ry="110" transform="rotate(38 533 519)" fill="#FFFDF7"/>
    <ellipse cx="342" cy="327" rx="34" ry="42" transform="rotate(-18 342 327)" fill="#FFFDF7"/>
    <ellipse cx="447" cy="331" rx="36" ry="42" transform="rotate(16 447 331)" fill="#FFFDF7"/>

    <path d="M356 357C384 391 392 425 388 477C384 534 397 583 442 626" stroke="#05070C" stroke-width="23" stroke-linecap="round"/>
    <path d="M390 479C449 459 481 430 511 379" stroke="#05070C" stroke-width="22" stroke-linecap="round"/>
    <path d="M398 547C449 525 489 495 530 454" stroke="#05070C" stroke-width="22" stroke-linecap="round"/>
  </g>

  <g>
    <rect x="28" y="652" width="704" height="488" rx="28" fill="#FFFFFF" stroke="#E1E7F1"/>
    <text x="56" y="694" fill="#6A768E" font-family="IBM Plex Mono, monospace" font-size="16">02 / SIMPLIFY</text>
    <text x="56" y="726" fill="#111827" font-family="Inter, Arial, sans-serif" font-size="26" font-weight="700">Reduce to the core masses</text>
    <rect x="56" y="758" width="648" height="344" rx="28" fill="#FFFDF8"/>

    <path d="M356 873C384 907 392 941 388 993C384 1050 397 1099 442 1142" stroke="#111827" stroke-width="22" stroke-linecap="round"/>
    <path d="M390 995C445 976 479 946 510 896" stroke="#111827" stroke-width="21" stroke-linecap="round"/>
    <path d="M398 1062C448 1041 488 1011 528 971" stroke="#111827" stroke-width="21" stroke-linecap="round"/>

    <ellipse cx="287" cy="887" rx="88" ry="118" transform="rotate(14 287 887)" fill="#111827"/>
    <ellipse cx="391" cy="1011" rx="62" ry="116" transform="rotate(42 391 1011)" fill="#111827"/>
    <ellipse cx="484" cy="878" rx="88" ry="113" transform="rotate(-14 484 878)" fill="#111827"/>
    <ellipse cx="521" cy="1000" rx="56" ry="104" transform="rotate(40 521 1000)" fill="#111827"/>
    <ellipse cx="334" cy="808" rx="28" ry="35" transform="rotate(-18 334 808)" fill="#111827"/>
    <ellipse cx="432" cy="812" rx="30" ry="35" transform="rotate(15 432 812)" fill="#111827"/>
  </g>

  <g>
    <rect x="28" y="1168" width="704" height="488" rx="28" fill="#101626" stroke="#243044"/>
    <text x="56" y="1210" fill="#A8B5CC" font-family="IBM Plex Mono, monospace" font-size="16">03 / ADAPT</text>
    <text x="56" y="1242" fill="#F6F8FC" font-family="Inter, Arial, sans-serif" font-size="26" font-weight="700">Turn it into an Iris direction</text>
    <rect x="56" y="1274" width="648" height="344" rx="28" fill="#131B2B"/>

    <defs>
      <linearGradient id="stackPetalBlue" x1="0" y1="0" x2="1" y2="1">
        <stop offset="0%" stop-color="#63D6FF"/>
        <stop offset="100%" stop-color="#2456FF"/>
      </linearGradient>
      <linearGradient id="stackPetalViolet" x1="0" y1="0" x2="1" y2="1">
        <stop offset="0%" stop-color="#B86CFF"/>
        <stop offset="100%" stop-color="#6E37FF"/>
      </linearGradient>
      <linearGradient id="stackPetalCoral" x1="0" y1="0" x2="1" y2="1">
        <stop offset="0%" stop-color="#FF7E79"/>
        <stop offset="100%" stop-color="#FF4B9A"/>
      </linearGradient>
      <linearGradient id="stackPetalTeal" x1="0" y1="0" x2="1" y2="1">
        <stop offset="0%" stop-color="#76FFD6"/>
        <stop offset="100%" stop-color="#1DB99D"/>
      </linearGradient>
      <linearGradient id="stackPetalAmber" x1="0" y1="0" x2="1" y2="1">
        <stop offset="0%" stop-color="#FFD76A"/>
        <stop offset="100%" stop-color="#FF8A1E"/>
      </linearGradient>
      <linearGradient id="stackPetalIndigo" x1="0" y1="0" x2="1" y2="1">
        <stop offset="0%" stop-color="#88A5FF"/>
        <stop offset="100%" stop-color="#4B49FF"/>
      </linearGradient>
    </defs>

    <path d="M356 1389C384 1423 392 1457 388 1509C384 1566 397 1615 442 1658" stroke="#0F1725" stroke-width="22" stroke-linecap="round"/>
    <path d="M390 1511C445 1492 479 1462 510 1412" stroke="#0F1725" stroke-width="21" stroke-linecap="round"/>
    <path d="M398 1578C448 1557 488 1527 528 1487" stroke="#0F1725" stroke-width="21" stroke-linecap="round"/>

    <ellipse cx="287" cy="1403" rx="88" ry="118" transform="rotate(14 287 1403)" fill="url(#stackPetalBlue)"/>
    <ellipse cx="391" cy="1527" rx="62" ry="116" transform="rotate(42 391 1527)" fill="url(#stackPetalTeal)"/>
    <ellipse cx="484" cy="1394" rx="88" ry="113" transform="rotate(-14 484 1394)" fill="url(#stackPetalAmber)"/>
    <ellipse cx="521" cy="1516" rx="56" ry="104" transform="rotate(40 521 1516)" fill="url(#stackPetalCoral)"/>
    <ellipse cx="334" cy="1324" rx="28" ry="35" transform="rotate(-18 334 1324)" fill="url(#stackPetalViolet)"/>
    <ellipse cx="432" cy="1328" rx="30" ry="35" transform="rotate(15 432 1328)" fill="url(#stackPetalIndigo)"/>
  </g>
</svg>
