<svg width="512" height="512" viewBox="0 0 512 512" fill="none" xmlns="http://www.w3.org/2000/svg">
  <rect width="512" height="512" fill="#FFFFFF"/>
  <path d="M 216.17 373.72 C 216.40 373.74 216.75 373.75 216.99 373.78 C 217.22 373.80 217.52 373.84 217.73 373.88 C 217.94 373.91 218.21 373.97 218.41 374.01 C 218.60 374.06 218.84 374.13 219.02 374.19 C 219.19 374.25 219.41 374.34 219.56 374.41 C 219.71 374.49 219.90 374.59 220.03 374.67 C 220.16 374.76 220.33 374.88 220.44 374.97 C 220.55 375.07 220.68 375.21 220.78 375.32 C 220.87 375.42 220.97 375.58 221.05 375.70 C 221.12 375.81 221.22 375.97 221.29 376.08 C 221.36 376.20 221.45 376.35 221.51 376.47 C 221.57 376.59 221.65 376.75 221.71 376.87 C 221.76 376.98 221.83 377.14 221.88 377.26 C 221.93 377.38 221.98 377.54 222.02 377.66 C 222.06 377.78 222.11 377.95 222.15 378.07 C 222.18 378.19 222.22 378.35 222.24 378.48 C 222.27 378.60 222.29 378.77 222.32 378.89 C 222.34 379.01 222.38 379.16 222.41 379.27 C 222.44 379.38 222.48 379.52 222.52 379.61 C 222.55 379.71 222.60 379.84 222.65 379.93 C 222.69 380.01 222.75 380.13 222.79 380.20 C 222.84 380.28 222.91 380.38 222.96 380.45 C 223.02 380.52 223.09 380.60 223.15 380.66 C 223.21 380.72 223.29 380.79 223.35 380.84 C 223.42 380.89 223.51 380.94 223.58 380.98 C 223.65 381.03 223.75 381.08 223.83 381.12 C 223.91 381.15 224.02 381.20 224.10 381.24 C 224.19 381.27 224.31 381.31 224.40 381.34 C 224.50 381.38 224.63 381.41 224.73 381.44 C 224.83 381.47 224.97 381.50 225.08 381.53 C 225.19 381.55 225.34 381.58 225.45 381.60 C 225.57 381.62 225.73 381.64 225.85 381.66 C 225.98 381.67 226.15 381.69 226.28 381.71 C 226.41 381.72 226.58 381.75 226.70 381.78 C 226.83 381.80 227.00 381.84 227.13 381.88 C 227.26 381.91 227.43 381.96 227.56 382.00 C 227.69 382.04 227.86 382.10 227.99 382.15 C 228.12 382.20 228.29 382.27 228.42 382.32 C 228.55 382.38 228.72 382.46 228.85 382.52 C 228.98 382.59 229.15 382.68 229.28 382.75 C 229.41 382.82 229.58 382.93 229.72 383.00 C 229.85 383.07 230.04 383.16 230.18 383.22 C 230.33 383.29 230.53 383.37 230.68 383.43 C 230.84 383.48 231.05 383.56 231.22 383.61 C 231.38 383.66 231.61 383.72 231.79 383.76 C 231.96 383.81 232.20 383.86 232.39 383.90 C 232.57 383.93 232.83 383.98 233.02 384.00 C 233.22 384.03 233.49 384.07 233.69 384.09 C 233.90 384.11 234.19 384.12 234.39 384.16 C 234.60 384.19 234.86 384.25 235.05 384.32 C 235.23 384.38 235.47 384.49 235.65 384.58 C 235.82 384.68 236.04 384.82 236.20 384.95 C 236.35 385.07 236.55 385.26 236.69 385.41 C 236.84 385.57 237.02 385.79 237.14 385.98 C 237.27 386.16 237.43 386.43 237.54 386.64 C 237.65 386.86 237.79 387.16 237.88 387.41 C 237.98 387.65 238.08 388.03 238.18 388.28 C 238.28 388.52 238.42 388.83 238.55 389.04 C 238.67 389.26 238.85 389.53 238.99 389.71 C 239.13 389.90 239.34 390.12 239.51 390.28 C 239.68 390.43 239.91 390.62 240.10 390.75 C 240.29 390.87 240.56 391.02 240.77 391.12 C 240.98 391.21 241.28 391.32 241.51 391.39 C 241.75 391.46 242.07 391.52 242.33 391.56 C 242.59 391.60 242.96 391.60 243.22 391.63 C 243.49 391.67 243.83 391.73 244.08 391.80 C 244.34 391.86 244.67 391.96 244.91 392.05 C 245.16 392.14 245.47 392.27 245.71 392.39 C 245.94 392.51 246.25 392.68 246.47 392.82 C 246.70 392.97 246.99 393.18 247.21 393.35 C 247.42 393.52 247.70 393.76 247.91 393.96 C 248.11 394.16 248.38 394.44 248.58 394.67 C 248.77 394.89 249.03 395.24 249.22 395.46 C 249.40 395.68 249.64 395.96 249.82 396.16 C 249.99 396.36 250.22 396.60 250.39 396.77 C 250.55 396.94 250.77 397.15 250.92 397.29 C 251.08 397.43 251.28 397.60 251.42 397.72 C 251.57 397.83 251.75 397.97 251.89 398.05 C 252.02 398.14 252.19 398.24 252.32 398.30 C 252.44 398.35 252.60 398.41 252.71 398.45 C 252.83 398.48 252.97 398.48 253.07 398.51 C 253.18 398.53 253.32 398.56 253.42 398.59 C 253.52 398.61 253.65 398.65 253.74 398.69 C 253.84 398.72 253.96 398.77 254.05 398.81 C 254.14 398.85 254.25 398.91 254.34 398.96 C 254.42 399.01 254.53 399.08 254.61 399.13 C 254.69 399.18 254.79 399.26 254.86 399.32 C 254.93 399.38 255.03 399.47 255.09 399.53 C 255.16 399.60 255.23 399.70 255.31 399.77 C 255.39 399.84 255.53 399.93 255.64 400.00 C 255.76 400.07 255.94 400.16 256.10 400.23 C 256.25 400.29 256.48 400.38 256.66 400.45 C 256.85 400.52 257.13 400.61 257.35 400.67 C 257.57 400.74 257.90 400.83 258.15 400.89 C 258.41 400.96 258.78 401.04 259.07 401.11 C 259.37 401.17 259.78 401.26 260.11 401.32 C 260.44 401.38 260.94 401.46 261.27 401.53 C 261.60 401.60 262.01 401.71 262.31 401.81 C 262.60 401.90 262.97 402.04 263.23 402.15 C 263.48 402.26 263.81 402.42 264.03 402.55 C 264.25 402.69 264.53 402.88 264.71 403.03 C 264.90 403.18 265.13 403.40 265.28 403.57 C 265.44 403.74 265.62 403.98 265.73 404.17 C 265.85 404.36 265.99 404.63 266.07 404.84 C 266.15 405.05 266.19 405.37 266.29 405.58 C 266.38 405.79 266.55 406.07 266.71 406.26 C 266.87 406.46 267.12 406.71 267.34 406.90 C 267.56 407.08 267.90 407.31 268.18 407.48 C 268.46 407.64 268.88 407.85 269.23 408.00 C 269.57 408.15 270.07 408.34 270.48 408.48 C 270.89 408.61 271.47 408.78 271.94 408.90 C 272.41 409.02 273.08 409.16 273.61 409.27 C 274.15 409.37 274.96 409.48 275.49 409.58 C 276.03 409.69 276.70 409.84 277.18 409.96 C 277.66 410.09 278.26 410.27 278.68 410.41 C 279.10 410.56 279.62 410.76 279.99 410.93 C 280.35 411.09 280.80 411.32 281.10 411.51 C 281.41 411.69 281.78 411.95 282.03 412.16 C 282.28 412.36 282.58 412.64 282.77 412.87 C 282.97 413.09 283.19 413.40 283.32 413.65 C 283.46 413.89 283.55 414.25 283.69 414.49 C 283.82 414.73 284.04 415.04 284.24 415.26 C 284.43 415.48 284.73 415.76 284.98 415.95 C 285.23 416.15 285.60 416.40 285.91 416.57 C 286.21 416.74 286.66 416.96 287.02 417.11 C 287.39 417.26 287.91 417.44 288.33 417.57 C 288.75 417.70 289.35 417.85 289.83 417.95 C 290.31 418.06 290.98 418.18 291.52 418.26 C 292.05 418.34 292.86 418.43 293.40 418.49 C 293.93 418.56 294.59 418.65 295.06 418.72 C 295.53 418.79 296.11 418.87 296.51 418.94 C 296.92 419.00 297.42 419.09 297.76 419.15 C 298.10 419.22 298.51 419.30 298.79 419.36 C 299.06 419.42 299.39 419.50 299.60 419.56 C 299.82 419.62 300.06 419.70 300.21 419.76 C 300.36 419.81 300.52 419.89 300.60 419.94 C 300.69 420.00 300.73 420.07 300.79 420.13 C 300.84 420.19 300.90 420.27 300.95 420.33 C 300.99 420.40 301.05 420.49 301.09 420.56 C 301.13 420.63 301.19 420.73 301.22 420.81 C 301.26 420.89 301.30 421.00 301.33 421.08 C 301.36 421.16 301.39 421.28 301.42 421.37 C 301.44 421.47 301.47 421.59 301.49 421.69 C 301.51 421.79 301.53 421.92 301.54 422.03 C 301.56 422.13 301.56 422.28 301.58 422.39 C 301.59 422.50 301.62 422.64 301.64 422.74 C 301.67 422.85 301.71 422.98 301.74 423.08 C 301.78 423.19 301.83 423.32 301.87 423.42 C 301.92 423.52 301.98 423.65 302.03 423.74 C 302.09 423.84 302.16 423.97 302.23 424.06 C 302.29 424.15 302.38 424.28 302.45 424.37 C 302.53 424.46 302.63 424.58 302.71 424.66 C 302.79 424.75 302.88 424.87 303.00 424.95 C 303.12 425.04 303.32 425.16 303.51 425.25 C 303.69 425.34 303.99 425.46 304.24 425.56 C 304.49 425.65 304.87 425.78 305.19 425.87 C 305.51 425.97 305.98 426.10 306.36 426.20 C 306.75 426.30 307.31 426.43 307.76 426.53 C 308.21 426.63 308.86 426.77 309.37 426.88 C 309.89 426.98 310.63 427.12 311.21 427.23 C 311.80 427.33 312.68 427.48 313.27 427.59 C 313.86 427.70 314.61 427.84 315.14 427.94 C 315.68 428.04 316.35 428.18 316.83 428.28 C 317.31 428.38 317.91 428.52 318.33 428.62 C 318.76 428.72 319.28 428.85 319.65 428.94 C 320.02 429.04 320.47 429.16 320.78 429.26 C 321.09 429.35 321.47 429.47 321.73 429.56 C 321.99 429.66 322.29 429.77 322.49 429.86 C 322.69 429.95 322.90 430.06 323.07 430.15 C 323.24 430.24 323.45 430.37 323.61 430.47 C 323.76 430.57 323.96 430.71 324.10 430.82 C 324.25 430.92 324.43 431.07 324.56 431.19 C 324.69 431.31 324.86 431.47 324.97 431.59 C 325.09 431.72 325.24 431.89 325.35 432.03 C 325.46 432.16 325.59 432.34 325.68 432.49 C 325.78 432.63 325.89 432.83 325.98 432.98 C 326.06 433.13 326.11 433.34 326.23 433.50 C 326.34 433.65 326.55 433.84 326.74 433.98 C 326.93 434.12 327.24 434.31 327.51 434.44 C 327.77 434.57 328.18 434.74 328.53 434.86 C 328.88 434.98 329.39 435.14 329.81 435.25 C 330.23 435.37 330.85 435.51 331.35 435.62 C 331.85 435.72 332.57 435.85 333.15 435.94 C 333.72 436.04 334.55 436.16 335.20 436.24 C 335.85 436.33 336.85 436.42 337.51 436.51 C 338.17 436.59 338.99 436.71 339.58 436.81 C 340.16 436.90 340.89 437.03 341.39 437.13 C 341.90 437.24 342.53 437.38 342.97 437.49 C 343.40 437.61 343.94 437.76 344.30 437.88 C 344.66 438.01 345.09 438.18 345.38 438.31 C 345.67 438.44 346.00 438.62 346.22 438.76 C 346.43 438.90 346.67 439.09 346.81 439.24 C 346.95 439.39 347.04 439.60 347.16 439.76 C 347.27 439.91 347.43 440.11 347.56 440.26 C 347.70 440.41 347.89 440.61 348.04 440.76 C 348.19 440.90 348.40 441.10 348.57 441.24 C 348.74 441.38 348.98 441.57 349.16 441.71 C 349.35 441.86 349.62 442.04 349.82 442.18 C 350.03 442.32 350.32 442.50 350.54 442.63 C 350.77 442.77 351.08 442.94 351.33 443.08 C 351.57 443.21 351.89 443.38 352.17 443.51 C 352.45 443.63 352.85 443.79 353.18 443.91 C 353.51 444.03 353.99 444.18 354.37 444.28 C 354.75 444.39 355.29 444.53 355.72 444.63 C 356.15 444.72 356.76 444.85 357.25 444.94 C 357.73 445.03 358.41 445.14 358.94 445.22 C 359.47 445.30 360.22 445.40 360.80 445.47 C 361.39 445.54 362.20 445.63 362.83 445.69 C 363.47 445.75 364.40 445.82 365.04 445.88 C 365.67 445.94 366.47 446.02 367.05 446.08 C 367.63 446.15 368.36 446.24 368.88 446.31 C 369.40 446.37 370.05 446.47 370.51 446.54 C 370.98 446.62 371.56 446.72 371.96 446.80 C 372.37 446.87 372.88 446.98 373.23 447.06 C 373.58 447.15 374.01 447.26 374.30 447.35 C 374.59 447.44 374.95 447.56 375.19 447.65 C 375.42 447.74 375.68 447.87 375.88 447.96 C 376.09 448.06 376.36 448.19 376.55 448.30 C 376.75 448.40 377.00 448.54 377.19 448.65 C 377.38 448.76 377.62 448.91 377.80 449.02 C 377.98 449.13 378.21 449.29 378.38 449.41 C 378.54 449.53 378.76 449.69 378.92 449.82 C 379.08 449.94 379.29 450.11 379.44 450.24 C 379.59 450.38 379.79 450.55 379.93 450.69 C 380.07 450.83 380.25 451.02 380.38 451.15 C 380.52 451.29 380.71 451.45 380.85 451.57 C 381.00 451.69 381.19 451.84 381.34 451.95 C 381.48 452.05 381.68 452.19 381.83 452.28 C 381.98 452.37 382.18 452.49 382.33 452.57 C 382.49 452.65 382.69 452.75 382.85 452.81 C 383.01 452.88 383.22 452.96 383.38 453.02 C 383.54 453.07 383.76 453.13 383.92 453.17 C 384.09 453.22 384.25 453.25 384.48 453.29 C 384.70 453.32 385.07 453.38 385.41 453.42 C 385.75 453.46 386.27 453.51 386.72 453.56 C 387.18 453.60 387.85 453.66 388.42 453.71 C 388.99 453.76 389.82 453.82 390.50 453.87 C 391.18 453.93 392.16 454.00 392.95 454.05 C 393.75 454.11 394.88 454.18 395.79 454.24 C 396.70 454.30 397.98 454.38 399.01 454.45 C 400.03 454.51 401.58 454.59 402.60 454.66 C 403.63 454.73 404.93 454.84 405.85 454.92 C 406.77 455.00 407.92 455.11 408.74 455.21 C 409.55 455.30 410.56 455.43 411.27 455.54 C 411.97 455.64 412.85 455.78 413.45 455.90 C 414.05 456.01 414.78 456.18 415.27 456.30 C 415.76 456.43 416.35 456.60 416.74 456.74 C 417.12 456.88 417.57 457.07 417.85 457.22 C 418.13 457.36 418.37 457.58 418.61 457.73 C 418.85 457.87 419.19 458.05 419.45 458.18 C 419.72 458.31 420.09 458.47 420.38 458.57 C 420.67 458.68 421.08 458.82 421.40 458.91 C 421.71 459.00 422.16 459.11 422.50 459.18 C 422.84 459.26 423.32 459.34 423.69 459.40 C 424.05 459.45 424.56 459.52 424.96 459.55 C 425.35 459.59 425.90 459.63 426.32 459.65 C 426.74 459.67 427.34 459.68 427.76 459.68 C 428.18 459.69 428.73 459.70 429.12 459.70 C 429.52 459.70 430.03 459.70 430.40 459.70 C 430.78 459.69 431.26 459.68 431.60 459.67 C 431.95 459.66 432.40 459.64 432.72 459.62 C 433.05 459.61 433.46 459.58 433.76 459.56 C 434.06 459.54 434.44 459.50 434.72 459.47 C 434.99 459.44 435.34 459.40 435.59 459.36 C 435.84 459.33 436.14 459.27 436.39 459.24 C 436.64 459.20 436.98 459.16 437.25 459.14 C 437.51 459.11 437.88 459.08 438.17 459.06 C 438.45 459.04 438.84 459.02 439.15 459.01 C 439.45 459.00 439.87 458.99 440.20 458.99 C 440.52 458.99 440.96 458.99 441.31 459.00 C 441.65 459.00 442.12 459.01 442.48 459.03 C 442.84 459.04 443.34 459.06 443.72 459.09 C 444.10 459.11 444.64 459.16 445.02 459.17 C 445.39 459.18 445.87 459.19 446.21 459.18 C 446.55 459.17 446.98 459.15 447.29 459.12 C 447.60 459.09 447.99 459.03 448.26 458.98 C 448.54 458.93 448.89 458.84 449.13 458.77 C 449.37 458.70 449.68 458.58 449.89 458.49 C 450.10 458.39 450.36 458.25 450.54 458.13 C 450.72 458.01 450.93 457.84 451.08 457.70 C 451.23 457.56 451.38 457.33 451.51 457.19 C 451.65 457.05 451.84 456.87 451.99 456.74 C 452.14 456.61 452.35 456.45 452.52 456.34 C 452.68 456.23 452.91 456.10 453.08 456.00 C 453.26 455.91 453.51 455.79 453.70 455.72 C 453.89 455.64 454.15 455.55 454.36 455.49 C 454.56 455.42 454.84 455.35 455.06 455.31 C 455.28 455.26 455.58 455.22 455.81 455.19 C 456.04 455.16 456.37 455.14 456.60 455.12 C 456.83 455.10 457.13 455.07 457.34 455.04 C 457.55 455.02 457.82 454.98 458.01 454.96 C 458.20 454.93 458.45 454.89 458.62 454.86 C 458.80 454.83 459.02 454.78 459.17 454.75 C 459.33 454.72 459.53 454.67 459.67 454.63 C 459.80 454.59 459.98 454.54 460.10 454.50 C 460.22 454.46 460.37 454.41 460.47 454.36 C 460.57 454.32 460.69 454.26 460.78 454.21 C 460.87 454.17 460.99 454.10 461.07 454.05 C 461.16 454.00 461.27 453.92 461.35 453.87 C 461.44 453.81 461.54 453.73 461.62 453.67 C 461.70 453.61 461.80 453.52 461.87 453.46 C 461.95 453.39 462.04 453.30 462.11 453.23 C 462.18 453.16 462.27 453.06 462.34 452.99 C 462.40 452.91 462.49 452.81 462.55 452.73 C 462.61 452.65 462.68 452.53 462.74 452.45 C 462.80 452.37 462.89 452.27 462.96 452.19 C 463.03 452.12 463.12 452.02 463.20 451.94 C 463.27 451.87 463.37 451.78 463.45 451.71 C 463.53 451.64 463.64 451.55 463.73 451.49 C 463.82 451.42 463.94 451.34 464.03 451.28 C 464.12 451.22 464.25 451.14 464.35 451.08 C 464.45 451.02 464.58 450.95 464.69 450.90 C 464.80 450.84 464.94 450.78 465.05 450.72 C 465.16 450.67 465.31 450.58 465.42 450.50 C 465.53 450.43 465.68 450.32 465.80 450.23 C 465.92 450.15 466.07 450.02 466.19 449.91 C 466.31 449.81 466.46 449.66 466.59 449.54 C 466.71 449.42 466.87 449.26 466.99 449.12 C 467.11 448.99 467.28 448.80 467.41 448.65 C 467.53 448.51 467.70 448.30 467.83 448.13 C 467.96 447.97 468.14 447.76 468.26 447.57 C 468.39 447.37 468.54 447.07 468.65 446.82 C 468.76 446.58 468.89 446.21 468.98 445.91 C 469.08 445.61 469.19 445.18 469.27 444.83 C 469.35 444.47 469.45 443.97 469.51 443.57 C 469.57 443.16 469.65 442.59 469.70 442.14 C 469.75 441.68 469.81 441.04 469.84 440.54 C 469.88 440.03 469.91 439.32 469.93 438.76 C 469.95 438.21 469.97 437.39 469.98 436.82 C 469.99 436.25 470.00 435.50 470.00 434.95 C 470.00 434.40 470.00 433.69 470.00 433.17 C 469.99 432.64 469.99 431.96 469.97 431.46 C 469.96 430.97 469.95 430.32 469.93 429.84 C 469.91 429.37 469.88 428.75 469.86 428.30 C 469.83 427.85 469.80 427.27 469.77 426.84 C 469.74 426.41 469.69 425.86 469.65 425.46 C 469.61 425.06 469.57 424.55 469.51 424.16 C 469.46 423.77 469.37 423.26 469.29 422.88 C 469.20 422.50 469.07 421.99 468.96 421.61 C 468.85 421.24 468.69 420.74 468.55 420.37 C 468.41 420.00 468.21 419.51 468.05 419.14 C 467.88 418.78 467.64 418.29 467.45 417.93 C 467.26 417.57 466.98 417.10 466.76 416.74 C 466.54 416.39 466.23 415.92 465.98 415.57 C 465.73 415.22 465.36 414.75 465.11 414.41 C 464.86 414.07 464.56 413.64 464.34 413.32 C 464.13 413.00 463.86 412.59 463.67 412.29 C 463.49 411.99 463.27 411.61 463.11 411.33 C 462.96 411.05 462.78 410.68 462.65 410.42 C 462.53 410.16 462.39 409.83 462.30 409.58 C 462.21 409.34 462.11 409.03 462.05 408.81 C 461.99 408.58 461.93 408.30 461.90 408.09 C 461.87 407.89 461.87 407.65 461.85 407.44 C 461.83 407.24 461.79 406.94 461.76 406.70 C 461.72 406.47 461.67 406.14 461.62 405.87 C 461.57 405.61 461.49 405.24 461.43 404.95 C 461.37 404.66 461.27 404.26 461.19 403.94 C 461.12 403.63 461.00 403.19 460.91 402.84 C 460.82 402.50 460.69 402.02 460.58 401.65 C 460.47 401.28 460.32 400.77 460.20 400.37 C 460.08 399.97 459.90 399.39 459.77 399.00 C 459.64 398.61 459.46 398.12 459.33 397.77 C 459.19 397.43 459.00 396.99 458.86 396.69 C 458.72 396.39 458.52 396.02 458.38 395.76 C 458.23 395.50 458.02 395.18 457.87 394.97 C 457.72 394.75 457.51 394.50 457.35 394.33 C 457.18 394.16 456.97 393.96 456.80 393.83 C 456.63 393.70 456.41 393.56 456.24 393.48 C 456.06 393.40 455.82 393.35 455.65 393.28 C 455.48 393.20 455.27 393.07 455.11 392.96 C 454.96 392.85 454.76 392.68 454.62 392.54 C 454.48 392.39 454.30 392.18 454.18 392.00 C 454.05 391.82 453.89 391.57 453.77 391.35 C 453.66 391.14 453.52 390.84 453.42 390.60 C 453.32 390.36 453.20 390.01 453.11 389.73 C 453.03 389.46 452.92 389.07 452.85 388.76 C 452.78 388.45 452.71 387.99 452.63 387.67 C 452.56 387.36 452.44 386.95 452.34 386.65 C 452.25 386.36 452.10 385.98 451.98 385.70 C 451.86 385.43 451.69 385.08 451.55 384.82 C 451.41 384.57 451.21 384.24 451.04 384.01 C 450.88 383.78 450.65 383.48 450.47 383.27 C 450.28 383.05 450.02 382.78 449.82 382.59 C 449.61 382.40 449.32 382.16 449.09 381.99 C 448.87 381.81 448.53 381.61 448.30 381.45 C 448.07 381.28 447.78 381.06 447.57 380.90 C 447.36 380.73 447.09 380.51 446.90 380.34 C 446.71 380.17 446.47 379.94 446.29 379.77 C 446.12 379.59 445.90 379.36 445.75 379.19 C 445.60 379.01 445.40 378.77 445.27 378.59 C 445.13 378.41 444.96 378.17 444.85 377.99 C 444.73 377.81 444.59 377.56 444.49 377.37 C 444.39 377.19 444.28 376.94 444.20 376.75 C 444.11 376.56 444.00 376.29 443.92 376.09 C 443.84 375.89 443.74 375.62 443.66 375.41 C 443.58 375.20 443.49 374.91 443.42 374.69 C 443.35 374.47 443.25 374.17 443.19 373.94 C 443.12 373.72 443.04 373.41 442.98 373.17 C 442.92 372.93 442.84 372.61 442.78 372.36 C 442.73 372.12 442.66 371.78 442.61 371.53 C 442.56 371.27 442.51 370.91 442.45 370.66 C 442.39 370.41 442.29 370.09 442.21 369.86 C 442.12 369.62 441.99 369.33 441.88 369.12 C 441.77 368.90 441.61 368.63 441.47 368.44 C 441.34 368.25 441.15 368.00 440.99 367.83 C 440.83 367.65 440.60 367.43 440.42 367.27 C 440.23 367.12 439.97 366.92 439.76 366.79 C 439.56 366.65 439.26 366.48 439.03 366.36 C 438.80 366.25 438.45 366.12 438.21 366.00 C 437.98 365.88 437.69 365.71 437.48 365.56 C 437.27 365.42 437.01 365.22 436.82 365.05 C 436.64 364.88 436.41 364.65 436.25 364.46 C 436.09 364.27 435.89 364.00 435.75 363.79 C 435.61 363.58 435.45 363.28 435.34 363.05 C 435.22 362.81 435.09 362.49 435.00 362.23 C 434.91 361.97 434.81 361.61 434.75 361.33 C 434.68 361.05 434.64 360.64 434.58 360.36 C 434.51 360.08 434.40 359.72 434.31 359.47 C 434.21 359.21 434.07 358.89 433.94 358.66 C 433.82 358.43 433.63 358.14 433.48 357.93 C 433.33 357.73 433.11 357.47 432.93 357.29 C 432.74 357.11 432.48 356.88 432.27 356.72 C 432.06 356.57 431.77 356.38 431.53 356.25 C 431.29 356.11 430.95 355.95 430.68 355.85 C 430.42 355.74 430.01 355.64 429.75 355.53 C 429.48 355.43 429.14 355.27 428.90 355.15 C 428.66 355.02 428.35 354.84 428.14 354.69 C 427.92 354.54 427.66 354.33 427.47 354.17 C 427.28 354.00 427.05 353.76 426.89 353.57 C 426.73 353.38 426.54 353.11 426.41 352.90 C 426.27 352.69 426.11 352.40 426.01 352.17 C 425.90 351.93 425.78 351.61 425.70 351.36 C 425.62 351.11 425.56 350.73 425.49 350.48 C 425.41 350.23 425.31 349.91 425.22 349.69 C 425.13 349.46 425.00 349.18 424.90 348.97 C 424.80 348.77 424.65 348.52 424.53 348.35 C 424.42 348.17 424.25 347.95 424.12 347.80 C 423.98 347.65 423.80 347.46 423.65 347.33 C 423.50 347.21 423.29 347.05 423.13 346.95 C 422.97 346.85 422.74 346.73 422.56 346.65 C 422.38 346.58 422.13 346.52 421.94 346.44 C 421.76 346.35 421.51 346.21 421.32 346.08 C 421.14 345.95 420.89 345.76 420.71 345.59 C 420.52 345.42 420.28 345.16 420.09 344.95 C 419.91 344.74 419.66 344.43 419.48 344.18 C 419.30 343.93 419.05 343.56 418.87 343.27 C 418.68 342.97 418.44 342.55 418.26 342.22 C 418.07 341.88 417.83 341.41 417.65 341.03 C 417.46 340.65 417.22 340.08 417.04 339.70 C 416.86 339.32 416.63 338.83 416.45 338.49 C 416.28 338.14 416.06 337.70 415.89 337.39 C 415.73 337.08 415.51 336.68 415.35 336.41 C 415.20 336.13 414.99 335.78 414.84 335.54 C 414.69 335.30 414.49 335.00 414.35 334.79 C 414.21 334.58 414.02 334.33 413.89 334.15 C 413.75 333.98 413.57 333.77 413.44 333.63 C 413.31 333.50 413.15 333.35 413.02 333.23 C 412.90 333.11 412.72 332.96 412.59 332.85 C 412.46 332.74 412.28 332.60 412.14 332.49 C 412.01 332.39 411.82 332.26 411.68 332.16 C 411.54 332.06 411.35 331.94 411.21 331.85 C 411.06 331.76 410.87 331.64 410.72 331.56 C 410.57 331.48 410.37 331.37 410.22 331.30 C 410.06 331.22 409.86 331.13 409.70 331.06 C 409.54 330.99 409.32 330.92 409.17 330.84 C 409.02 330.76 408.82 330.65 408.69 330.55 C 408.55 330.45 408.38 330.31 408.26 330.19 C 408.13 330.07 407.98 329.90 407.88 329.76 C 407.77 329.62 407.64 329.41 407.55 329.25 C 407.45 329.09 407.34 328.86 407.26 328.67 C 407.19 328.49 407.10 328.23 407.03 328.03 C 406.97 327.82 406.90 327.53 406.85 327.30 C 406.81 327.08 406.76 326.73 406.72 326.51 C 406.69 326.28 406.63 326.00 406.59 325.80 C 406.55 325.59 406.50 325.34 406.46 325.16 C 406.42 324.99 406.37 324.77 406.33 324.61 C 406.29 324.46 406.24 324.27 406.20 324.14 C 406.16 324.02 406.11 323.86 406.07 323.76 C 406.03 323.65 405.97 323.53 405.93 323.45 C 405.89 323.37 405.84 323.28 405.80 323.22 C 405.76 323.17 405.71 323.12 405.66 323.08 C 405.61 323.04 405.53 322.98 405.46 322.94 C 405.39 322.90 405.29 322.85 405.20 322.81 C 405.11 322.77 404.97 322.72 404.86 322.68 C 404.76 322.64 404.60 322.60 404.47 322.56 C 404.34 322.53 404.15 322.48 404.00 322.45 C 403.85 322.41 403.64 322.37 403.47 322.34 C 403.30 322.31 403.06 322.26 402.87 322.23 C 402.68 322.20 402.40 322.17 402.21 322.14 C 402.02 322.11 401.78 322.06 401.61 322.03 C 401.44 321.99 401.22 321.95 401.06 321.91 C 400.91 321.87 400.71 321.82 400.58 321.78 C 400.44 321.73 400.27 321.68 400.15 321.63 C 400.03 321.59 399.89 321.52 399.79 321.48 C 399.69 321.43 399.56 321.36 399.48 321.31 C 399.40 321.25 399.30 321.18 399.23 321.13 C 399.17 321.07 399.10 321.00 399.04 320.94 C 398.99 320.87 398.91 320.76 398.84 320.67 C 398.78 320.58 398.70 320.44 398.63 320.33 C 398.57 320.21 398.48 320.04 398.41 319.91 C 398.34 319.77 398.25 319.57 398.18 319.41 C 398.10 319.26 398.00 319.03 397.93 318.85 C 397.85 318.66 397.75 318.41 397.67 318.20 C 397.59 318.00 397.48 317.71 397.40 317.48 C 397.32 317.26 397.21 316.92 397.12 316.69 C 397.03 316.46 396.89 316.17 396.78 315.97 C 396.67 315.76 396.51 315.50 396.39 315.32 C 396.26 315.13 396.08 314.90 395.94 314.74 C 395.79 314.58 395.59 314.38 395.43 314.23 C 395.27 314.09 395.04 313.92 394.86 313.80 C 394.69 313.68 394.44 313.54 394.24 313.44 C 394.05 313.34 393.78 313.23 393.56 313.15 C 393.35 313.08 393.04 313.01 392.83 312.94 C 392.62 312.86 392.35 312.74 392.16 312.64 C 391.96 312.53 391.72 312.38 391.55 312.25 C 391.37 312.13 391.15 311.94 391.00 311.79 C 390.84 311.64 390.65 311.42 390.51 311.24 C 390.37 311.06 390.20 310.81 390.08 310.61 C 389.97 310.41 389.82 310.12 389.72 309.89 C 389.62 309.67 389.50 309.35 389.42 309.10 C 389.34 308.85 389.26 308.47 389.18 308.22 C 389.10 307.97 388.97 307.65 388.86 307.42 C 388.76 307.20 388.60 306.91 388.47 306.71 C 388.35 306.51 388.16 306.26 388.01 306.08 C 387.86 305.91 387.64 305.69 387.47 305.54 C 387.30 305.39 387.05 305.21 386.86 305.09 C 386.66 304.96 386.39 304.81 386.17 304.71 C 385.95 304.61 385.65 304.50 385.41 304.43 C 385.17 304.35 384.81 304.30 384.57 304.22 C 384.33 304.15 384.01 304.03 383.79 303.93 C 383.56 303.83 383.27 303.67 383.06 303.54 C 382.85 303.41 382.58 303.22 382.39 303.06 C 382.19 302.91 381.95 302.68 381.77 302.49 C 381.59 302.31 381.37 302.04 381.21 301.83 C 381.05 301.62 380.84 301.31 380.70 301.07 C 380.56 300.83 380.38 300.50 380.25 300.23 C 380.12 299.96 379.98 299.56 379.85 299.29 C 379.73 299.02 379.55 298.68 379.42 298.44 C 379.28 298.20 379.09 297.90 378.94 297.68 C 378.79 297.47 378.59 297.20 378.43 297.02 C 378.27 296.83 378.04 296.60 377.87 296.44 C 377.70 296.28 377.46 296.08 377.28 295.95 C 377.10 295.82 376.84 295.66 376.65 295.55 C 376.45 295.45 376.19 295.32 375.98 295.25 C 375.77 295.17 375.47 295.10 375.27 295.03 C 375.06 294.96 374.80 294.87 374.62 294.80 C 374.43 294.74 374.19 294.64 374.02 294.57 C 373.85 294.50 373.64 294.40 373.48 294.33 C 373.33 294.25 373.14 294.15 373.00 294.07 C 372.87 294.00 372.70 293.89 372.58 293.81 C 372.46 293.73 372.32 293.62 372.22 293.54 C 372.11 293.46 371.99 293.35 371.91 293.26 C 371.82 293.18 371.73 293.06 371.66 292.97 C 371.59 292.88 371.50 292.76 371.43 292.67 C 371.37 292.58 371.29 292.46 371.23 292.36 C 371.18 292.27 371.11 292.14 371.06 292.05 C 371.01 291.95 370.95 291.82 370.91 291.72 C 370.87 291.62 370.82 291.48 370.79 291.38 C 370.76 291.28 370.72 291.14 370.70 291.03 C 370.67 290.92 370.65 290.78 370.63 290.67 C 370.61 290.56 370.61 290.42 370.58 290.30 C 370.56 290.19 370.49 290.04 370.43 289.93 C 370.37 289.82 370.26 289.67 370.16 289.55 C 370.07 289.44 369.91 289.29 369.78 289.17 C 369.65 289.05 369.46 288.90 369.29 288.78 C 369.13 288.66 368.89 288.51 368.69 288.39 C 368.49 288.27 368.21 288.11 367.97 287.99 C 367.74 287.87 367.41 287.71 367.15 287.59 C 366.88 287.46 366.48 287.30 366.21 287.18 C 365.94 287.05 365.59 286.87 365.34 286.74 C 365.09 286.60 364.78 286.41 364.55 286.26 C 364.32 286.12 364.03 285.91 363.83 285.76 C 363.62 285.60 363.36 285.39 363.18 285.22 C 362.99 285.05 362.76 284.83 362.60 284.65 C 362.44 284.47 362.23 284.23 362.09 284.05 C 361.95 283.86 361.78 283.61 361.66 283.41 C 361.54 283.22 361.43 282.95 361.30 282.74 C 361.17 282.54 360.97 282.26 360.80 282.04 C 360.63 281.82 360.38 281.52 360.17 281.29 C 359.96 281.06 359.66 280.75 359.40 280.50 C 359.15 280.26 358.79 279.93 358.50 279.68 C 358.21 279.42 357.80 279.08 357.46 278.81 C 357.13 278.54 356.66 278.18 356.29 277.90 C 355.92 277.62 355.40 277.25 354.98 276.96 C 354.57 276.67 353.95 276.26 353.54 275.97 C 353.12 275.68 352.59 275.30 352.21 275.02 C 351.83 274.74 351.35 274.38 351.00 274.11 C 350.66 273.84 350.22 273.49 349.91 273.24 C 349.60 272.98 349.21 272.65 348.94 272.40 C 348.66 272.16 348.32 271.84 348.08 271.61 C 347.84 271.37 347.54 271.07 347.34 270.85 C 347.13 270.63 346.88 270.34 346.72 270.13 C 346.55 269.92 346.37 269.64 346.21 269.44 C 346.05 269.25 345.84 269.00 345.68 268.82 C 345.51 268.65 345.29 268.42 345.12 268.26 C 344.95 268.10 344.71 267.90 344.53 267.76 C 344.35 267.62 344.11 267.45 343.92 267.33 C 343.73 267.20 343.47 267.05 343.28 266.95 C 343.08 266.85 342.81 266.72 342.61 266.63 C 342.40 266.55 342.13 266.45 341.91 266.38 C 341.70 266.31 341.40 266.26 341.19 266.19 C 340.99 266.12 340.72 266.02 340.54 265.94 C 340.35 265.85 340.12 265.73 339.95 265.63 C 339.78 265.52 339.58 265.38 339.43 265.26 C 339.28 265.14 339.10 264.97 338.98 264.83 C 338.85 264.69 338.70 264.50 338.59 264.34 C 338.49 264.19 338.36 263.97 338.27 263.79 C 338.19 263.62 338.09 263.38 338.02 263.19 C 337.96 263.00 337.89 262.71 337.84 262.52 C 337.78 262.33 337.70 262.08 337.64 261.90 C 337.58 261.73 337.50 261.50 337.43 261.33 C 337.37 261.17 337.28 260.96 337.21 260.81 C 337.14 260.66 337.05 260.47 336.98 260.33 C 336.91 260.20 336.81 260.02 336.73 259.90 C 336.66 259.78 336.55 259.63 336.47 259.52 C 336.39 259.41 336.29 259.28 336.20 259.18 C 336.12 259.09 336.01 258.98 335.92 258.89 C 335.83 258.81 335.69 258.71 335.59 258.63 C 335.48 258.56 335.32 258.46 335.20 258.40 C 335.07 258.33 334.90 258.25 334.76 258.19 C 334.62 258.13 334.42 258.06 334.27 258.01 C 334.11 257.96 333.90 257.90 333.73 257.86 C 333.56 257.81 333.32 257.76 333.13 257.73 C 332.95 257.70 332.69 257.66 332.49 257.63 C 332.28 257.60 331.99 257.59 331.79 257.56 C 331.58 257.52 331.32 257.45 331.14 257.39 C 330.95 257.32 330.71 257.21 330.53 257.12 C 330.36 257.02 330.14 256.87 329.98 256.75 C 329.82 256.62 329.62 256.43 329.48 256.28 C 329.33 256.12 329.15 255.89 329.02 255.71 C 328.89 255.52 328.73 255.26 328.61 255.04 C 328.50 254.82 328.36 254.52 328.26 254.27 C 328.16 254.03 328.05 253.65 327.95 253.41 C 327.84 253.16 327.69 252.85 327.56 252.62 C 327.43 252.40 327.25 252.12 327.10 251.92 C 326.95 251.72 326.74 251.47 326.57 251.30 C 326.40 251.12 326.15 250.91 325.96 250.76 C 325.77 250.61 325.49 250.43 325.28 250.30 C 325.06 250.18 324.76 250.03 324.52 249.93 C 324.28 249.83 323.95 249.71 323.69 249.63 C 323.43 249.56 323.04 249.50 322.78 249.42 C 322.52 249.34 322.19 249.22 321.96 249.12 C 321.73 249.01 321.44 248.85 321.23 248.72 C 321.03 248.59 320.77 248.40 320.59 248.24 C 320.42 248.08 320.20 247.85 320.04 247.66 C 319.89 247.47 319.71 247.20 319.58 246.99 C 319.46 246.78 319.31 246.47 319.21 246.23 C 319.11 245.99 319.00 245.65 318.93 245.38 C 318.86 245.11 318.81 244.70 318.74 244.43 C 318.67 244.17 318.55 243.83 318.45 243.59 C 318.35 243.36 318.19 243.06 318.06 242.85 C 317.93 242.65 317.74 242.39 317.58 242.22 C 317.42 242.04 317.19 241.83 317.01 241.69 C 316.82 241.54 316.55 241.37 316.33 241.25 C 316.11 241.14 315.81 241.01 315.56 240.93 C 315.32 240.84 314.97 240.75 314.70 240.70 C 314.42 240.65 314.01 240.63 313.73 240.58 C 313.46 240.52 313.12 240.43 312.87 240.35 C 312.63 240.26 312.33 240.13 312.12 240.01 C 311.90 239.90 311.64 239.72 311.46 239.58 C 311.28 239.43 311.06 239.21 310.91 239.04 C 310.76 238.86 310.58 238.60 310.46 238.39 C 310.34 238.18 310.20 237.88 310.11 237.64 C 310.03 237.40 309.93 237.06 309.87 236.79 C 309.81 236.51 309.79 236.10 309.73 235.83 C 309.68 235.55 309.59 235.22 309.51 234.98 C 309.43 234.74 309.31 234.45 309.20 234.24 C 309.10 234.04 308.95 233.79 308.82 233.62 C 308.69 233.45 308.50 233.24 308.35 233.10 C 308.19 232.97 307.97 232.81 307.80 232.70 C 307.62 232.60 307.36 232.48 307.16 232.41 C 306.96 232.34 306.67 232.27 306.45 232.23 C 306.22 232.20 305.88 232.19 305.65 232.16 C 305.42 232.14 305.13 232.11 304.92 232.09 C 304.72 232.06 304.46 232.03 304.27 232.00 C 304.09 231.97 303.86 231.93 303.70 231.90 C 303.54 231.87 303.33 231.83 303.19 231.79 C 303.06 231.76 302.88 231.71 302.77 231.67 C 302.65 231.64 302.51 231.59 302.41 231.55 C 302.32 231.51 302.20 231.45 302.13 231.41 C 302.06 231.36 301.99 231.31 301.92 231.26 C 301.86 231.20 301.78 231.11 301.72 231.03 C 301.67 230.94 301.59 230.82 301.53 230.71 C 301.47 230.60 301.40 230.45 301.34 230.31 C 301.29 230.18 301.22 229.99 301.16 229.83 C 301.11 229.68 301.04 229.45 300.99 229.27 C 300.94 229.09 300.87 228.83 300.82 228.63 C 300.77 228.42 300.71 228.13 300.66 227.90 C 300.61 227.67 300.57 227.32 300.51 227.09 C 300.45 226.86 300.35 226.57 300.26 226.36 C 300.17 226.16 300.04 225.90 299.93 225.72 C 299.81 225.54 299.64 225.32 299.50 225.17 C 299.36 225.01 299.15 224.83 298.99 224.70 C 298.82 224.57 298.57 224.42 298.38 224.32 C 298.18 224.21 297.90 224.09 297.68 224.02 C 297.46 223.94 297.14 223.85 296.90 223.80 C 296.65 223.75 296.27 223.71 296.02 223.68 C 295.77 223.64 295.45 223.58 295.23 223.55 C 295.01 223.51 294.73 223.45 294.54 223.41 C 294.34 223.37 294.10 223.32 293.93 223.28 C 293.76 223.24 293.56 223.18 293.42 223.14 C 293.28 223.10 293.11 223.05 293.00 223.00 C 292.88 222.96 292.75 222.91 292.66 222.86 C 292.58 222.82 292.48 222.76 292.42 222.72 C 292.37 222.68 292.32 222.63 292.27 222.58 C 292.23 222.52 292.17 222.43 292.12 222.35 C 292.07 222.27 292.01 222.14 291.96 222.03 C 291.91 221.93 291.84 221.77 291.79 221.63 C 291.74 221.50 291.67 221.31 291.61 221.15 C 291.56 220.99 291.49 220.76 291.43 220.58 C 291.38 220.40 291.30 220.14 291.24 219.93 C 291.19 219.72 291.11 219.42 291.05 219.19 C 290.99 218.95 290.92 218.60 290.85 218.36 C 290.78 218.13 290.66 217.83 290.57 217.62 C 290.47 217.41 290.33 217.14 290.20 216.95 C 290.08 216.77 289.91 216.53 289.76 216.37 C 289.61 216.20 289.40 216.00 289.23 215.86 C 289.06 215.72 288.82 215.55 288.63 215.44 C 288.43 215.32 288.16 215.18 287.94 215.09 C 287.72 215.00 287.41 214.89 287.17 214.82 C 286.93 214.76 286.56 214.70 286.32 214.64 C 286.08 214.58 285.77 214.50 285.55 214.44 C 285.33 214.38 285.05 214.29 284.85 214.23 C 284.65 214.16 284.40 214.07 284.23 214.00 C 284.05 213.93 283.83 213.84 283.68 213.76 C 283.53 213.69 283.34 213.59 283.21 213.51 C 283.08 213.44 282.93 213.33 282.82 213.25 C 282.72 213.17 282.59 213.06 282.51 212.97 C 282.42 212.89 282.34 212.78 282.27 212.69 C 282.20 212.60 282.11 212.47 282.05 212.38 C 281.99 212.29 281.91 212.16 281.85 212.06 C 281.80 211.96 281.73 211.82 281.68 211.72 C 281.63 211.61 281.57 211.47 281.53 211.36 C 281.48 211.25 281.43 211.10 281.40 210.98 C 281.36 210.87 281.32 210.71 281.29 210.59 C 281.26 210.47 281.22 210.31 281.20 210.18 C 281.18 210.06 281.17 209.88 281.13 209.76 C 281.10 209.63 281.03 209.47 280.97 209.34 C 280.90 209.22 280.80 209.06 280.70 208.93 C 280.61 208.81 280.46 208.66 280.34 208.54 C 280.21 208.42 280.03 208.26 279.87 208.15 C 279.72 208.03 279.49 207.88 279.31 207.77 C 279.12 207.66 278.85 207.51 278.64 207.40 C 278.42 207.29 278.12 207.15 277.87 207.04 C 277.63 206.94 277.26 206.80 277.01 206.69 C 276.75 206.59 276.43 206.44 276.19 206.34 C 275.96 206.23 275.66 206.08 275.44 205.97 C 275.22 205.86 274.94 205.72 274.73 205.60 C 274.53 205.49 274.27 205.34 274.08 205.23 C 273.90 205.12 273.66 204.96 273.49 204.85 C 273.32 204.73 273.10 204.58 272.95 204.46 C 272.79 204.34 272.60 204.19 272.46 204.07 C 272.32 203.95 272.15 203.78 272.03 203.67 C 271.90 203.55 271.75 203.40 271.64 203.28 C 271.53 203.17 271.39 203.02 271.29 202.92 C 271.20 202.81 271.08 202.67 271.00 202.57 C 270.91 202.46 270.81 202.33 270.74 202.23 C 270.67 202.14 270.59 202.01 270.54 201.92 C 270.48 201.82 270.42 201.70 270.37 201.61 C 270.33 201.53 270.28 201.41 270.26 201.33 C 270.23 201.25 270.21 201.14 270.18 201.06 C 270.16 200.99 270.12 200.89 270.09 200.82 C 270.06 200.75 270.01 200.66 269.97 200.60 C 269.93 200.54 269.87 200.46 269.83 200.40 C 269.78 200.35 269.72 200.28 269.66 200.23 C 269.61 200.19 269.53 200.13 269.47 200.09 C 269.41 200.05 269.33 200.00 269.26 199.97 C 269.20 199.93 269.10 199.90 269.03 199.87 C 268.95 199.85 268.85 199.83 268.77 199.80 C 268.69 199.77 268.58 199.72 268.49 199.67 C 268.40 199.62 268.27 199.55 268.18 199.49 C 268.08 199.42 267.95 199.33 267.84 199.25 C 267.74 199.16 267.59 199.05 267.48 198.95 C 267.37 198.85 267.21 198.71 267.09 198.60 C 266.97 198.48 266.81 198.32 266.68 198.19 C 266.55 198.06 266.38 197.87 266.24 197.72 C 266.11 197.58 265.92 197.35 265.78 197.20 C 265.64 197.05 265.44 196.86 265.30 196.72 C 265.15 196.58 264.95 196.41 264.79 196.28 C 264.64 196.15 264.43 195.99 264.27 195.88 C 264.11 195.77 263.90 195.62 263.73 195.52 C 263.56 195.42 263.34 195.29 263.17 195.20 C 263.00 195.11 262.77 194.99 262.59 194.92 C 262.41 194.84 262.17 194.74 261.99 194.68 C 261.81 194.61 261.55 194.54 261.37 194.47 C 261.19 194.41 260.96 194.30 260.79 194.22 C 260.62 194.13 260.40 194.01 260.24 193.91 C 260.09 193.81 259.88 193.66 259.74 193.54 C 259.59 193.42 259.40 193.26 259.27 193.12 C 259.13 192.99 258.96 192.80 258.84 192.65 C 258.71 192.50 258.56 192.29 258.44 192.12 C 258.33 191.95 258.19 191.72 258.09 191.54 C 257.98 191.35 257.86 191.08 257.77 190.90 C 257.67 190.71 257.54 190.48 257.45 190.31 C 257.36 190.14 257.23 189.93 257.14 189.77 C 257.05 189.62 256.93 189.43 256.84 189.29 C 256.75 189.15 256.63 188.98 256.54 188.86 C 256.45 188.73 256.33 188.58 256.25 188.47 C 256.16 188.37 256.04 188.24 255.96 188.14 C 255.87 188.05 255.76 187.94 255.67 187.86 C 255.59 187.79 255.49 187.70 255.40 187.64 C 255.31 187.57 255.17 187.49 255.07 187.43 C 254.96 187.37 254.80 187.29 254.68 187.24 C 254.56 187.19 254.38 187.12 254.24 187.07 C 254.10 187.02 253.91 186.96 253.75 186.92 C 253.60 186.88 253.38 186.82 253.21 186.79 C 253.04 186.75 252.80 186.71 252.61 186.68 C 252.42 186.65 252.16 186.61 251.96 186.59 C 251.75 186.56 251.45 186.55 251.25 186.51 C 251.05 186.48 250.79 186.40 250.60 186.33 C 250.41 186.26 250.17 186.15 249.99 186.04 C 249.82 185.94 249.60 185.78 249.44 185.65 C 249.29 185.51 249.09 185.31 248.94 185.14 C 248.80 184.97 248.62 184.73 248.50 184.53 C 248.37 184.33 248.21 184.04 248.10 183.81 C 247.99 183.57 247.85 183.24 247.75 182.98 C 247.66 182.71 247.56 182.31 247.46 182.04 C 247.36 181.77 247.21 181.43 247.09 181.19 C 246.96 180.95 246.78 180.64 246.64 180.43 C 246.49 180.22 246.28 179.95 246.11 179.76 C 245.94 179.58 245.69 179.35 245.50 179.19 C 245.31 179.03 245.03 178.83 244.81 178.70 C 244.60 178.57 244.29 178.41 244.05 178.30 C 243.81 178.20 243.47 178.07 243.21 177.99 C 242.94 177.92 242.55 177.85 242.29 177.78 C 242.02 177.70 241.69 177.58 241.46 177.48 C 241.22 177.38 240.93 177.23 240.72 177.10 C 240.51 176.97 240.26 176.79 240.08 176.64 C 239.90 176.49 239.68 176.27 239.53 176.10 C 239.38 175.92 239.19 175.68 239.07 175.48 C 238.94 175.28 238.80 175.00 238.70 174.77 C 238.61 174.55 238.50 174.23 238.43 173.99 C 238.36 173.74 238.32 173.37 238.25 173.12 C 238.18 172.87 238.07 172.56 237.96 172.34 C 237.86 172.11 237.71 171.83 237.58 171.63 C 237.45 171.43 237.25 171.18 237.09 171.01 C 236.93 170.83 236.69 170.62 236.50 170.47 C 236.31 170.32 236.03 170.13 235.80 170.01 C 235.58 169.88 235.26 169.73 235.01 169.63 C 234.75 169.53 234.39 169.41 234.11 169.33 C 233.82 169.25 233.39 169.19 233.11 169.11 C 232.82 169.04 232.46 168.92 232.21 168.82 C 231.96 168.73 231.64 168.58 231.42 168.46 C 231.20 168.34 230.93 168.17 230.74 168.03 C 230.55 167.89 230.31 167.68 230.16 167.52 C 230.00 167.36 229.81 167.13 229.68 166.94 C 229.56 166.76 229.41 166.50 229.31 166.29 C 229.22 166.08 229.11 165.79 229.05 165.56 C 228.99 165.34 228.94 164.99 228.89 164.77 C 228.85 164.54 228.78 164.25 228.73 164.05 C 228.69 163.85 228.62 163.60 228.57 163.42 C 228.52 163.24 228.46 163.02 228.41 162.87 C 228.36 162.71 228.29 162.53 228.24 162.40 C 228.19 162.27 228.12 162.11 228.07 162.01 C 228.02 161.91 227.95 161.78 227.90 161.70 C 227.85 161.63 227.78 161.54 227.73 161.48 C 227.67 161.43 227.61 161.38 227.55 161.34 C 227.49 161.30 227.39 161.25 227.30 161.21 C 227.22 161.17 227.09 161.12 226.99 161.08 C 226.88 161.05 226.73 161.00 226.61 160.97 C 226.48 160.94 226.30 160.89 226.15 160.86 C 226.01 160.83 225.80 160.79 225.63 160.76 C 225.46 160.74 225.23 160.70 225.04 160.67 C 224.85 160.65 224.59 160.62 224.38 160.59 C 224.17 160.57 223.86 160.56 223.65 160.52 C 223.43 160.49 223.16 160.42 222.95 160.35 C 222.75 160.28 222.48 160.18 222.29 160.08 C 222.10 159.98 221.85 159.84 221.67 159.71 C 221.48 159.58 221.25 159.40 221.08 159.24 C 220.90 159.08 220.68 158.86 220.52 158.67 C 220.36 158.49 220.15 158.22 220.00 158.00 C 219.85 157.79 219.65 157.48 219.51 157.24 C 219.37 156.99 219.20 156.62 219.06 156.37 C 218.92 156.12 218.73 155.81 218.58 155.59 C 218.43 155.36 218.22 155.08 218.05 154.88 C 217.89 154.69 217.67 154.44 217.50 154.26 C 217.32 154.09 217.09 153.88 216.90 153.73 C 216.72 153.58 216.47 153.40 216.27 153.27 C 216.08 153.15 215.81 153.00 215.61 152.90 C 215.40 152.80 215.12 152.68 214.91 152.61 C 214.69 152.53 214.39 152.47 214.17 152.40 C 213.96 152.33 213.67 152.22 213.47 152.14 C 213.26 152.05 212.99 151.92 212.80 151.82 C 212.60 151.71 212.35 151.56 212.16 151.44 C 211.98 151.32 211.74 151.14 211.56 151.01 C 211.38 150.87 211.16 150.67 210.99 150.52 C 210.82 150.36 210.61 150.14 210.45 149.97 C 210.30 149.80 210.10 149.56 209.95 149.37 C 209.81 149.18 209.62 148.90 209.48 148.71 C 209.34 148.52 209.16 148.28 209.02 148.11 C 208.89 147.94 208.70 147.72 208.57 147.57 C 208.44 147.42 208.26 147.22 208.13 147.09 C 208.00 146.95 207.82 146.78 207.70 146.67 C 207.57 146.55 207.40 146.40 207.27 146.30 C 207.14 146.20 206.98 146.08 206.86 146.00 C 206.73 145.91 206.57 145.81 206.45 145.75 C 206.33 145.68 206.17 145.62 206.05 145.56 C 205.94 145.50 205.79 145.43 205.68 145.37 C 205.58 145.31 205.44 145.23 205.34 145.16 C 205.24 145.10 205.11 145.02 205.02 144.96 C 204.93 144.89 204.81 144.80 204.73 144.74 C 204.65 144.67 204.54 144.58 204.47 144.52 C 204.39 144.45 204.30 144.35 204.23 144.28 C 204.16 144.21 204.08 144.12 204.02 144.05 C 203.96 143.97 203.91 143.87 203.84 143.80 C 203.77 143.73 203.66 143.64 203.56 143.57 C 203.47 143.50 203.32 143.41 203.20 143.35 C 203.07 143.28 202.89 143.20 202.74 143.14 C 202.59 143.08 202.37 143.00 202.19 142.94 C 202.02 142.89 201.76 142.82 201.56 142.76 C 201.35 142.71 201.06 142.64 200.83 142.59 C 200.60 142.54 200.27 142.48 200.01 142.44 C 199.75 142.39 199.36 142.35 199.10 142.29 C 198.84 142.23 198.50 142.14 198.27 142.05 C 198.03 141.96 197.72 141.82 197.51 141.70 C 197.29 141.59 197.01 141.41 196.82 141.26 C 196.63 141.11 196.38 140.90 196.21 140.72 C 196.04 140.54 195.82 140.29 195.67 140.08 C 195.52 139.87 195.34 139.58 195.21 139.34 C 195.09 139.10 194.93 138.77 194.83 138.50 C 194.72 138.23 194.62 137.83 194.52 137.56 C 194.41 137.29 194.25 136.96 194.12 136.72 C 193.99 136.48 193.80 136.18 193.64 135.96 C 193.49 135.75 193.26 135.49 193.08 135.30 C 192.90 135.12 192.64 134.89 192.44 134.74 C 192.23 134.58 191.94 134.39 191.71 134.26 C 191.48 134.13 191.15 133.98 190.90 133.88 C 190.64 133.78 190.28 133.66 190.00 133.59 C 189.72 133.52 189.31 133.47 189.03 133.40 C 188.74 133.32 188.39 133.21 188.13 133.11 C 187.88 133.02 187.55 132.87 187.32 132.74 C 187.09 132.62 186.81 132.44 186.60 132.29 C 186.40 132.14 186.14 131.92 185.96 131.75 C 185.79 131.57 185.56 131.32 185.41 131.12 C 185.26 130.92 185.07 130.63 184.94 130.41 C 184.82 130.18 184.66 129.86 184.56 129.60 C 184.46 129.35 184.37 128.97 184.26 128.72 C 184.16 128.46 184.01 128.14 183.89 127.91 C 183.76 127.69 183.58 127.40 183.43 127.20 C 183.28 126.99 183.06 126.74 182.89 126.56 C 182.71 126.38 182.47 126.16 182.27 126.01 C 182.07 125.85 181.79 125.67 181.57 125.54 C 181.34 125.41 181.03 125.26 180.78 125.16 C 180.54 125.05 180.19 124.93 179.92 124.86 C 179.65 124.78 179.25 124.71 178.98 124.64 C 178.71 124.56 178.37 124.45 178.13 124.35 C 177.89 124.25 177.59 124.11 177.37 123.99 C 177.16 123.87 176.90 123.70 176.71 123.56 C 176.53 123.41 176.30 123.21 176.15 123.05 C 175.99 122.89 175.80 122.66 175.67 122.47 C 175.54 122.29 175.39 122.03 175.29 121.82 C 175.19 121.62 175.08 121.33 175.01 121.10 C 174.93 120.87 174.89 120.53 174.81 120.31 C 174.74 120.08 174.63 119.79 174.53 119.59 C 174.43 119.38 174.27 119.12 174.15 118.94 C 174.02 118.75 173.83 118.52 173.67 118.36 C 173.51 118.20 173.28 118.00 173.10 117.86 C 172.91 117.72 172.65 117.55 172.43 117.43 C 172.22 117.31 171.91 117.17 171.67 117.07 C 171.43 116.98 171.09 116.86 170.82 116.79 C 170.55 116.72 170.14 116.64 169.87 116.58 C 169.59 116.51 169.25 116.43 169.00 116.36 C 168.75 116.29 168.43 116.20 168.21 116.13 C 167.98 116.06 167.70 115.96 167.50 115.88 C 167.30 115.81 167.05 115.71 166.87 115.63 C 166.70 115.55 166.48 115.45 166.33 115.37 C 166.17 115.29 165.99 115.18 165.86 115.09 C 165.73 115.01 165.58 114.90 165.47 114.81 C 165.37 114.72 165.26 114.61 165.17 114.52 C 165.08 114.42 164.97 114.30 164.89 114.21 C 164.81 114.11 164.70 113.98 164.63 113.88 C 164.55 113.79 164.46 113.65 164.39 113.55 C 164.32 113.45 164.23 113.31 164.17 113.20 C 164.11 113.09 164.03 112.95 163.98 112.84 C 163.92 112.72 163.85 112.57 163.80 112.46 C 163.76 112.34 163.70 112.19 163.65 112.07 C 163.61 111.95 163.57 111.78 163.52 111.66 C 163.48 111.55 163.42 111.40 163.37 111.30 C 163.32 111.20 163.24 111.07 163.18 110.98 C 163.12 110.89 163.03 110.77 162.97 110.69 C 162.90 110.62 162.80 110.52 162.72 110.45 C 162.64 110.39 162.53 110.31 162.45 110.25 C 162.36 110.20 162.24 110.13 162.14 110.09 C 162.05 110.05 161.92 110.00 161.81 109.97 C 161.71 109.94 161.56 109.92 161.45 109.89 C 161.34 109.86 161.20 109.82 161.09 109.77 C 160.98 109.73 160.84 109.67 160.73 109.62 C 160.62 109.57 160.48 109.49 160.37 109.42 C 160.26 109.36 160.12 109.27 160.01 109.19 C 159.90 109.12 159.75 109.01 159.65 108.92 C 159.54 108.84 159.39 108.71 159.29 108.61 C 159.18 108.52 159.03 108.38 158.92 108.27 C 158.82 108.16 158.68 107.99 158.56 107.88 C 158.45 107.77 158.28 107.63 158.15 107.53 C 158.02 107.42 157.83 107.29 157.68 107.20 C 157.53 107.10 157.32 106.98 157.16 106.89 C 156.99 106.81 156.76 106.70 156.58 106.62 C 156.40 106.54 156.14 106.44 155.95 106.37 C 155.75 106.30 155.47 106.21 155.26 106.15 C 155.05 106.09 154.75 106.01 154.52 105.95 C 154.29 105.90 153.95 105.85 153.73 105.79 C 153.50 105.73 153.21 105.63 153.00 105.55 C 152.80 105.47 152.54 105.35 152.35 105.25 C 152.17 105.14 151.94 104.99 151.78 104.87 C 151.61 104.75 151.41 104.57 151.27 104.43 C 151.13 104.28 150.96 104.08 150.84 103.91 C 150.72 103.75 150.57 103.52 150.48 103.33 C 150.38 103.14 150.26 102.88 150.19 102.68 C 150.11 102.47 150.04 102.16 149.97 101.96 C 149.91 101.75 149.82 101.49 149.76 101.31 C 149.70 101.12 149.62 100.89 149.57 100.73 C 149.51 100.57 149.43 100.36 149.38 100.22 C 149.32 100.08 149.25 99.91 149.20 99.79 C 149.14 99.67 149.07 99.53 149.02 99.43 C 148.97 99.33 148.91 99.22 148.86 99.14 C 148.81 99.07 148.75 98.98 148.71 98.93 C 148.66 98.88 148.62 98.83 148.56 98.79 C 148.51 98.74 148.41 98.68 148.32 98.64 C 148.23 98.59 148.10 98.53 147.98 98.48 C 147.86 98.43 147.69 98.37 147.54 98.32 C 147.40 98.27 147.18 98.20 147.00 98.15 C 146.83 98.10 146.57 98.03 146.37 97.98 C 146.16 97.92 145.87 97.85 145.64 97.79 C 145.40 97.74 145.07 97.66 144.80 97.61 C 144.54 97.55 144.14 97.48 143.88 97.41 C 143.61 97.34 143.27 97.24 143.02 97.15 C 142.78 97.06 142.47 96.92 142.25 96.81 C 142.03 96.70 141.76 96.54 141.56 96.41 C 141.36 96.27 141.12 96.08 140.95 95.93 C 140.77 95.77 140.56 95.55 140.41 95.38 C 140.26 95.20 140.08 94.96 139.96 94.76 C 139.83 94.56 139.68 94.29 139.58 94.07 C 139.48 93.85 139.38 93.53 139.28 93.31 C 139.18 93.09 139.03 92.82 138.91 92.62 C 138.79 92.42 138.62 92.18 138.48 92.00 C 138.34 91.83 138.13 91.61 137.97 91.46 C 137.81 91.31 137.58 91.12 137.39 90.99 C 137.21 90.86 136.95 90.70 136.75 90.60 C 136.54 90.49 136.26 90.36 136.03 90.27 C 135.81 90.19 135.49 90.09 135.25 90.02 C 135.00 89.96 134.64 89.91 134.39 89.85 C 134.14 89.78 133.83 89.69 133.60 89.61 C 133.37 89.53 133.08 89.41 132.87 89.31 C 132.66 89.22 132.39 89.07 132.20 88.96 C 132.01 88.84 131.77 88.68 131.59 88.55 C 131.42 88.41 131.20 88.22 131.05 88.07 C 130.90 87.92 130.70 87.71 130.57 87.54 C 130.43 87.37 130.26 87.14 130.15 86.95 C 130.03 86.76 129.90 86.49 129.79 86.30 C 129.67 86.11 129.51 85.86 129.39 85.68 C 129.26 85.49 129.08 85.26 128.94 85.08 C 128.80 84.91 128.61 84.68 128.46 84.51 C 128.31 84.35 128.09 84.13 127.93 83.97 C 127.76 83.81 127.53 83.61 127.36 83.46 C 127.18 83.31 126.93 83.11 126.74 82.97 C 126.55 82.83 126.29 82.64 126.08 82.51 C 125.88 82.38 125.60 82.20 125.38 82.08 C 125.17 81.95 124.87 81.79 124.64 81.67 C 124.41 81.55 124.10 81.40 123.85 81.29 C 123.61 81.18 123.28 81.04 123.02 80.94 C 122.77 80.84 122.42 80.71 122.15 80.62 C 121.88 80.53 121.51 80.41 121.23 80.33 C 120.95 80.24 120.57 80.13 120.27 80.06 C 119.98 79.98 119.58 79.89 119.27 79.82 C 118.96 79.75 118.52 79.68 118.22 79.61 C 117.92 79.53 117.54 79.41 117.27 79.31 C 117.00 79.21 116.65 79.06 116.41 78.93 C 116.17 78.81 115.86 78.63 115.65 78.48 C 115.43 78.33 115.16 78.11 114.98 77.93 C 114.79 77.76 114.56 77.51 114.40 77.31 C 114.24 77.11 114.05 76.83 113.92 76.60 C 113.79 76.38 113.63 76.06 113.53 75.82 C 113.43 75.57 113.34 75.19 113.24 74.94 C 113.14 74.70 112.99 74.39 112.87 74.17 C 112.75 73.96 112.58 73.69 112.43 73.50 C 112.29 73.32 112.09 73.09 111.92 72.93 C 111.76 72.77 111.52 72.59 111.34 72.46 C 111.15 72.33 110.89 72.18 110.68 72.09 C 110.47 71.99 110.18 71.88 109.95 71.82 C 109.72 71.75 109.40 71.68 109.15 71.64 C 108.89 71.61 108.52 71.60 108.27 71.57 C 108.02 71.55 107.70 71.51 107.47 71.47 C 107.24 71.44 106.95 71.39 106.74 71.35 C 106.53 71.30 106.27 71.24 106.08 71.19 C 105.90 71.14 105.67 71.07 105.50 71.01 C 105.34 70.95 105.13 70.87 104.99 70.80 C 104.85 70.74 104.68 70.64 104.56 70.57 C 104.44 70.50 104.29 70.39 104.20 70.31 C 104.10 70.23 103.99 70.11 103.91 70.02 C 103.82 69.93 103.72 69.81 103.65 69.72 C 103.57 69.63 103.48 69.50 103.42 69.41 C 103.35 69.31 103.27 69.19 103.21 69.09 C 103.16 68.99 103.09 68.86 103.04 68.76 C 102.99 68.65 102.93 68.52 102.90 68.41 C 102.86 68.31 102.81 68.17 102.78 68.06 C 102.75 67.95 102.71 67.81 102.69 67.69 C 102.67 67.58 102.66 67.43 102.63 67.32 C 102.61 67.21 102.57 67.06 102.53 66.96 C 102.50 66.85 102.44 66.71 102.40 66.61 C 102.35 66.50 102.28 66.37 102.22 66.27 C 102.16 66.17 102.07 66.04 102.00 65.94 C 101.93 65.85 101.83 65.72 101.75 65.63 C 101.66 65.54 101.54 65.42 101.45 65.33 C 101.35 65.24 101.22 65.13 101.11 65.04 C 101.01 64.96 100.85 64.85 100.74 64.77 C 100.62 64.69 100.46 64.58 100.34 64.51 C 100.22 64.43 100.05 64.33 99.92 64.25 C 99.79 64.18 99.61 64.08 99.47 64.01 C 99.33 63.94 99.15 63.84 99.00 63.78 C 98.86 63.71 98.66 63.62 98.51 63.55 C 98.36 63.49 98.15 63.40 97.99 63.34 C 97.83 63.28 97.62 63.20 97.45 63.14 C 97.29 63.08 97.07 63.00 96.89 62.94 C 96.71 62.89 96.47 62.82 96.27 62.76 C 96.08 62.71 95.81 62.64 95.60 62.59 C 95.39 62.55 95.10 62.48 94.87 62.44 C 94.65 62.39 94.34 62.34 94.09 62.29 C 93.85 62.25 93.52 62.20 93.26 62.16 C 93.00 62.12 92.64 62.08 92.37 62.04 C 92.09 62.01 91.71 61.96 91.42 61.93 C 91.13 61.90 90.71 61.88 90.42 61.84 C 90.14 61.79 89.77 61.72 89.51 61.65 C 89.25 61.58 88.92 61.48 88.69 61.38 C 88.45 61.29 88.16 61.14 87.95 61.02 C 87.74 60.90 87.48 60.72 87.30 60.58 C 87.12 60.43 86.90 60.21 86.74 60.04 C 86.58 59.87 86.39 59.62 86.26 59.42 C 86.13 59.22 85.98 58.94 85.88 58.71 C 85.77 58.48 85.73 58.14 85.58 57.91 C 85.42 57.68 85.13 57.38 84.85 57.16 C 84.57 56.94 84.11 56.65 83.71 56.44 C 83.30 56.23 82.67 55.96 82.14 55.77 C 81.60 55.57 80.81 55.32 80.15 55.14 C 79.48 54.95 78.52 54.72 77.73 54.55 C 76.94 54.38 75.81 54.16 74.89 54.00 C 73.98 53.84 72.68 53.64 71.63 53.49 C 70.59 53.34 69.01 53.15 67.95 53.02 C 66.89 52.90 65.53 52.76 64.56 52.67 C 63.58 52.58 62.34 52.49 61.45 52.43 C 60.57 52.38 59.44 52.33 58.64 52.31 C 57.84 52.29 56.83 52.29 56.11 52.30 C 55.40 52.31 54.50 52.36 53.87 52.40 C 53.25 52.45 52.47 52.54 51.92 52.62 C 51.38 52.70 50.72 52.84 50.26 52.95 C 49.81 53.07 49.28 53.27 48.89 53.40 C 48.50 53.54 48.02 53.71 47.67 53.85 C 47.33 53.98 46.90 54.16 46.61 54.30 C 46.31 54.43 45.95 54.61 45.70 54.75 C 45.45 54.88 45.14 55.06 44.94 55.20 C 44.73 55.33 44.49 55.52 44.33 55.65 C 44.18 55.79 44.00 55.97 43.88 56.10 C 43.77 56.24 43.65 56.42 43.59 56.56 C 43.52 56.70 43.48 56.85 43.44 57.02 C 43.40 57.18 43.34 57.45 43.29 57.68 C 43.25 57.91 43.19 58.25 43.15 58.54 C 43.10 58.83 43.04 59.26 43.00 59.61 C 42.95 59.96 42.89 60.47 42.85 60.89 C 42.80 61.30 42.74 61.89 42.70 62.37 C 42.65 62.84 42.59 63.51 42.54 64.05 C 42.50 64.59 42.44 65.34 42.39 65.94 C 42.34 66.54 42.27 67.36 42.23 68.03 C 42.19 68.71 42.15 69.67 42.12 70.44 C 42.09 71.21 42.06 72.30 42.04 73.17 C 42.02 74.03 42.01 75.25 42.00 76.21 C 41.99 77.17 41.99 78.51 42.00 79.57 C 42.01 80.62 42.02 82.09 42.04 83.24 C 42.06 84.39 42.09 85.99 42.12 87.23 C 42.15 88.47 42.19 90.20 42.23 91.53 C 42.27 92.87 42.34 94.85 42.39 96.16 C 42.44 97.46 42.50 99.10 42.54 100.25 C 42.59 101.41 42.65 102.84 42.70 103.83 C 42.74 104.83 42.80 106.05 42.85 106.89 C 42.89 107.72 42.95 108.74 43.00 109.42 C 43.04 110.10 43.10 110.90 43.15 111.43 C 43.19 111.95 43.25 112.55 43.29 112.91 C 43.34 113.28 43.40 113.67 43.44 113.88 C 43.48 114.09 43.54 114.20 43.59 114.32 C 43.63 114.45 43.69 114.61 43.74 114.72 C 43.79 114.83 43.85 114.97 43.90 115.07 C 43.95 115.17 44.02 115.29 44.08 115.37 C 44.13 115.45 44.21 115.55 44.26 115.62 C 44.32 115.69 44.40 115.77 44.46 115.83 C 44.52 115.88 44.60 115.94 44.66 115.98 C 44.72 116.02 44.81 116.07 44.87 116.09 C 44.94 116.12 45.03 116.12 45.10 116.15 C 45.17 116.19 45.27 116.24 45.35 116.30 C 45.43 116.36 45.54 116.45 45.63 116.53 C 45.71 116.61 45.84 116.73 45.93 116.84 C 46.03 116.94 46.16 117.10 46.27 117.23 C 46.37 117.36 46.51 117.55 46.62 117.70 C 46.74 117.86 46.89 118.08 47.01 118.26 C 47.13 118.44 47.30 118.69 47.43 118.90 C 47.55 119.10 47.74 119.36 47.87 119.62 C 48.00 119.88 48.17 120.30 48.31 120.66 C 48.44 121.02 48.61 121.56 48.74 122.02 C 48.87 122.47 49.04 123.14 49.17 123.70 C 49.30 124.25 49.48 125.04 49.60 125.69 C 49.73 126.34 49.90 127.26 50.03 128.00 C 50.16 128.74 50.33 129.80 50.45 130.63 C 50.58 131.47 50.75 132.65 50.87 133.58 C 51.00 134.51 51.17 135.93 51.29 136.85 C 51.41 137.77 51.57 138.93 51.69 139.74 C 51.80 140.55 51.95 141.56 52.06 142.26 C 52.16 142.96 52.30 143.82 52.40 144.40 C 52.50 144.99 52.63 145.70 52.72 146.17 C 52.81 146.65 52.93 147.20 53.02 147.57 C 53.10 147.93 53.21 148.34 53.29 148.59 C 53.37 148.84 53.47 149.09 53.54 149.23 C 53.61 149.37 53.69 149.42 53.76 149.50 C 53.84 149.58 53.94 149.69 54.03 149.78 C 54.12 149.86 54.24 149.97 54.34 150.05 C 54.44 150.13 54.58 150.24 54.69 150.33 C 54.81 150.41 54.96 150.52 55.09 150.61 C 55.22 150.69 55.39 150.80 55.53 150.89 C 55.67 150.97 55.86 151.09 56.01 151.17 C 56.17 151.26 56.38 151.37 56.54 151.46 C 56.71 151.55 56.94 151.62 57.11 151.75 C 57.28 151.88 57.50 152.12 57.66 152.34 C 57.82 152.56 58.02 152.91 58.17 153.22 C 58.33 153.53 58.52 154.00 58.67 154.40 C 58.81 154.80 59.00 155.39 59.13 155.88 C 59.27 156.37 59.44 157.08 59.57 157.66 C 59.70 158.24 59.86 159.07 59.98 159.74 C 60.10 160.40 60.26 161.35 60.37 162.11 C 60.48 162.87 60.63 164.02 60.73 164.78 C 60.84 165.54 60.98 166.49 61.08 167.16 C 61.19 167.84 61.32 168.67 61.42 169.26 C 61.53 169.84 61.66 170.56 61.76 171.06 C 61.85 171.56 61.98 172.17 62.08 172.58 C 62.17 172.99 62.30 173.48 62.39 173.81 C 62.48 174.13 62.60 174.51 62.69 174.75 C 62.78 174.98 62.90 175.24 62.98 175.39 C 63.07 175.55 63.18 175.65 63.26 175.76 C 63.35 175.86 63.47 176.00 63.57 176.10 C 63.66 176.20 63.79 176.33 63.89 176.42 C 63.99 176.52 64.13 176.64 64.24 176.73 C 64.35 176.82 64.50 176.94 64.61 177.02 C 64.72 177.10 64.88 177.21 65.00 177.29 C 65.12 177.37 65.29 177.47 65.42 177.54 C 65.54 177.62 65.72 177.71 65.85 177.78 C 65.99 177.85 66.17 177.90 66.31 177.99 C 66.44 178.09 66.62 178.27 66.75 178.44 C 66.88 178.60 67.05 178.87 67.17 179.10 C 67.30 179.34 67.46 179.70 67.58 180.00 C 67.70 180.30 67.86 180.75 67.97 181.12 C 68.09 181.49 68.24 182.02 68.34 182.46 C 68.45 182.90 68.60 183.53 68.70 184.03 C 68.81 184.54 68.94 185.26 69.04 185.83 C 69.14 186.40 69.26 187.27 69.36 187.85 C 69.47 188.42 69.62 189.15 69.75 189.66 C 69.87 190.17 70.05 190.82 70.19 191.27 C 70.34 191.72 70.54 192.28 70.70 192.66 C 70.86 193.05 71.09 193.52 71.27 193.85 C 71.45 194.17 71.70 194.57 71.90 194.83 C 72.10 195.09 72.37 195.40 72.59 195.60 C 72.81 195.80 73.11 196.02 73.34 196.16 C 73.58 196.30 73.93 196.38 74.16 196.51 C 74.39 196.65 74.69 196.86 74.90 197.05 C 75.11 197.23 75.38 197.52 75.57 197.76 C 75.75 198.00 75.99 198.35 76.16 198.65 C 76.32 198.94 76.53 199.37 76.67 199.72 C 76.82 200.07 76.99 200.56 77.11 200.97 C 77.24 201.37 77.38 201.94 77.48 202.39 C 77.58 202.85 77.70 203.49 77.77 204.00 C 77.85 204.51 77.92 205.28 77.99 205.79 C 78.05 206.30 78.14 206.93 78.21 207.38 C 78.28 207.83 78.37 208.39 78.44 208.78 C 78.51 209.17 78.60 209.66 78.67 209.99 C 78.74 210.32 78.84 210.73 78.91 211.01 C 78.98 211.28 79.08 211.61 79.15 211.83 C 79.23 212.05 79.33 212.30 79.40 212.46 C 79.48 212.62 79.58 212.79 79.66 212.89 C 79.73 212.99 79.83 213.07 79.92 213.14 C 80.00 213.21 80.11 213.29 80.20 213.36 C 80.29 213.42 80.42 213.50 80.52 213.56 C 80.61 213.61 80.75 213.69 80.86 213.74 C 80.96 213.79 81.11 213.85 81.22 213.89 C 81.34 213.94 81.49 213.99 81.61 214.03 C 81.74 214.07 81.90 214.11 82.03 214.14 C 82.16 214.18 82.34 214.21 82.48 214.24 C 82.62 214.26 82.82 214.29 82.95 214.31 C 83.09 214.34 83.26 214.37 83.38 214.40 C 83.50 214.43 83.66 214.48 83.77 214.52 C 83.88 214.56 84.02 214.61 84.11 214.65 C 84.21 214.70 84.33 214.76 84.42 214.81 C 84.50 214.86 84.61 214.93 84.68 214.99 C 84.75 215.04 84.84 215.12 84.90 215.19 C 84.96 215.25 85.03 215.34 85.07 215.41 C 85.12 215.47 85.16 215.55 85.21 215.65 C 85.25 215.75 85.32 215.92 85.37 216.08 C 85.42 216.24 85.49 216.49 85.55 216.71 C 85.61 216.92 85.69 217.25 85.76 217.52 C 85.82 217.80 85.92 218.20 85.99 218.53 C 86.06 218.87 86.16 219.35 86.25 219.74 C 86.33 220.13 86.44 220.69 86.53 221.13 C 86.61 221.58 86.74 222.22 86.83 222.72 C 86.93 223.23 87.05 224.00 87.16 224.50 C 87.27 225.01 87.43 225.65 87.55 226.10 C 87.68 226.56 87.86 227.13 88.01 227.52 C 88.15 227.92 88.36 228.42 88.52 228.77 C 88.69 229.11 88.92 229.54 89.10 229.83 C 89.28 230.12 89.54 230.47 89.74 230.71 C 89.94 230.95 90.22 231.23 90.44 231.41 C 90.66 231.59 90.97 231.80 91.20 231.93 C 91.44 232.06 91.80 232.16 92.03 232.27 C 92.26 232.38 92.56 232.54 92.76 232.67 C 92.97 232.80 93.22 232.98 93.40 233.13 C 93.57 233.28 93.79 233.49 93.94 233.65 C 94.09 233.81 94.27 234.05 94.39 234.23 C 94.51 234.41 94.65 234.66 94.74 234.86 C 94.83 235.06 94.93 235.34 95.00 235.56 C 95.06 235.78 95.12 236.08 95.16 236.31 C 95.19 236.55 95.20 236.89 95.23 237.13 C 95.25 237.36 95.29 237.66 95.32 237.88 C 95.35 238.09 95.39 238.36 95.43 238.56 C 95.47 238.75 95.52 239.00 95.57 239.18 C 95.61 239.35 95.67 239.57 95.72 239.73 C 95.77 239.88 95.84 240.08 95.90 240.21 C 95.96 240.35 96.04 240.52 96.10 240.63 C 96.17 240.75 96.26 240.89 96.33 240.99 C 96.40 241.08 96.50 241.18 96.57 241.28 C 96.64 241.37 96.73 241.50 96.80 241.61 C 96.86 241.72 96.95 241.87 97.01 241.99 C 97.06 242.11 97.14 242.28 97.19 242.41 C 97.25 242.55 97.31 242.74 97.36 242.88 C 97.41 243.03 97.47 243.24 97.51 243.40 C 97.56 243.56 97.61 243.78 97.64 243.96 C 97.68 244.13 97.73 244.37 97.76 244.56 C 97.79 244.75 97.81 245.03 97.85 245.21 C 97.89 245.40 97.95 245.64 98.02 245.81 C 98.08 245.98 98.17 246.19 98.25 246.35 C 98.34 246.50 98.46 246.70 98.57 246.84 C 98.67 246.97 98.83 247.15 98.95 247.27 C 99.08 247.39 99.26 247.54 99.41 247.65 C 99.56 247.75 99.77 247.88 99.94 247.97 C 100.11 248.06 100.36 248.17 100.55 248.24 C 100.74 248.32 101.03 248.38 101.23 248.46 C 101.42 248.54 101.67 248.67 101.85 248.78 C 102.02 248.90 102.25 249.07 102.41 249.21 C 102.57 249.36 102.77 249.57 102.91 249.75 C 103.06 249.92 103.24 250.18 103.36 250.39 C 103.49 250.59 103.64 250.89 103.75 251.13 C 103.86 251.37 103.99 251.71 104.08 251.99 C 104.17 252.26 104.28 252.64 104.35 252.94 C 104.42 253.25 104.49 253.70 104.57 254.01 C 104.64 254.31 104.76 254.70 104.85 254.98 C 104.95 255.25 105.10 255.60 105.22 255.85 C 105.34 256.10 105.51 256.41 105.65 256.63 C 105.79 256.85 106.00 257.13 106.16 257.32 C 106.32 257.51 106.56 257.75 106.74 257.91 C 106.93 258.07 107.19 258.27 107.40 258.41 C 107.61 258.54 107.90 258.70 108.13 258.81 C 108.36 258.92 108.70 259.00 108.94 259.12 C 109.17 259.23 109.47 259.42 109.69 259.59 C 109.91 259.75 110.20 260.00 110.40 260.22 C 110.61 260.43 110.87 260.75 111.06 261.01 C 111.25 261.27 111.50 261.66 111.68 261.97 C 111.85 262.28 112.08 262.73 112.24 263.09 C 112.41 263.45 112.61 263.96 112.76 264.37 C 112.91 264.77 113.10 265.35 113.23 265.81 C 113.37 266.27 113.52 266.95 113.65 267.41 C 113.79 267.87 113.99 268.46 114.14 268.88 C 114.30 269.30 114.52 269.83 114.69 270.20 C 114.87 270.58 115.12 271.06 115.31 271.39 C 115.51 271.73 115.78 272.14 115.99 272.44 C 116.21 272.73 116.51 273.09 116.74 273.34 C 116.97 273.60 117.30 273.90 117.55 274.11 C 117.80 274.32 118.15 274.57 118.43 274.74 C 118.70 274.91 119.10 275.08 119.37 275.23 C 119.63 275.39 119.96 275.60 120.20 275.78 C 120.43 275.95 120.72 276.19 120.92 276.38 C 121.12 276.57 121.37 276.83 121.53 277.04 C 121.70 277.24 121.90 277.53 122.04 277.75 C 122.18 277.97 122.33 278.28 122.44 278.52 C 122.54 278.76 122.65 279.09 122.72 279.35 C 122.79 279.60 122.87 279.96 122.90 280.23 C 122.94 280.50 122.94 280.90 122.97 281.17 C 123.01 281.44 123.08 281.77 123.15 282.02 C 123.21 282.26 123.32 282.56 123.42 282.77 C 123.51 282.99 123.66 283.25 123.79 283.44 C 123.91 283.63 124.10 283.86 124.26 284.02 C 124.41 284.18 124.64 284.37 124.83 284.51 C 125.01 284.64 125.28 284.80 125.50 284.90 C 125.71 285.01 126.02 285.13 126.27 285.21 C 126.52 285.29 126.89 285.35 127.14 285.43 C 127.39 285.51 127.70 285.63 127.93 285.73 C 128.15 285.84 128.44 286.00 128.64 286.13 C 128.83 286.26 129.08 286.46 129.26 286.62 C 129.43 286.78 129.65 287.01 129.80 287.19 C 129.95 287.38 130.13 287.65 130.26 287.86 C 130.39 288.07 130.54 288.37 130.64 288.62 C 130.74 288.86 130.85 289.19 130.93 289.46 C 131.01 289.73 131.07 290.12 131.14 290.40 C 131.22 290.67 131.33 291.02 131.43 291.28 C 131.52 291.54 131.67 291.87 131.79 292.11 C 131.90 292.35 132.08 292.66 132.22 292.88 C 132.36 293.11 132.56 293.40 132.72 293.61 C 132.88 293.81 133.11 294.08 133.29 294.27 C 133.48 294.47 133.74 294.71 133.94 294.89 C 134.15 295.07 134.44 295.29 134.67 295.45 C 134.89 295.61 135.23 295.81 135.46 295.96 C 135.69 296.11 135.97 296.32 136.18 296.48 C 136.38 296.63 136.64 296.84 136.82 297.00 C 137.01 297.16 137.23 297.37 137.39 297.54 C 137.55 297.70 137.75 297.91 137.89 298.08 C 138.03 298.24 138.19 298.46 138.31 298.63 C 138.42 298.80 138.56 299.02 138.65 299.19 C 138.75 299.36 138.86 299.59 138.93 299.76 C 139.00 299.93 139.04 300.15 139.12 300.34 C 139.20 300.52 139.33 300.78 139.44 300.99 C 139.56 301.19 139.74 301.48 139.89 301.71 C 140.04 301.94 140.27 302.25 140.46 302.50 C 140.65 302.75 140.92 303.10 141.15 303.37 C 141.38 303.64 141.70 304.01 141.97 304.31 C 142.23 304.60 142.61 305.00 142.91 305.32 C 143.21 305.63 143.64 306.07 143.98 306.40 C 144.31 306.74 144.83 307.22 145.17 307.56 C 145.51 307.90 145.94 308.34 146.25 308.67 C 146.55 308.99 146.94 309.42 147.22 309.73 C 147.49 310.04 147.84 310.45 148.08 310.75 C 148.32 311.05 148.62 311.44 148.83 311.73 C 149.04 312.01 149.29 312.38 149.47 312.66 C 149.64 312.93 149.85 313.28 150.00 313.54 C 150.14 313.80 150.31 314.13 150.42 314.38 C 150.53 314.62 150.62 314.94 150.73 315.17 C 150.83 315.40 150.98 315.70 151.10 315.91 C 151.22 316.13 151.40 316.40 151.54 316.60 C 151.68 316.79 151.89 317.05 152.05 317.23 C 152.21 317.41 152.44 317.64 152.62 317.80 C 152.80 317.97 153.05 318.18 153.25 318.32 C 153.45 318.47 153.73 318.66 153.95 318.79 C 154.17 318.92 154.48 319.09 154.72 319.20 C 154.96 319.32 155.31 319.44 155.55 319.56 C 155.79 319.67 156.09 319.83 156.31 319.96 C 156.53 320.09 156.81 320.27 157.01 320.41 C 157.21 320.55 157.47 320.75 157.65 320.90 C 157.83 321.06 158.06 321.28 158.22 321.44 C 158.38 321.61 158.58 321.85 158.72 322.03 C 158.86 322.22 159.04 322.47 159.16 322.67 C 159.28 322.86 159.43 323.14 159.53 323.35 C 159.64 323.56 159.74 323.86 159.84 324.07 C 159.94 324.28 160.09 324.56 160.21 324.75 C 160.33 324.95 160.50 325.21 160.64 325.39 C 160.77 325.57 160.97 325.81 161.12 325.98 C 161.27 326.15 161.49 326.37 161.66 326.52 C 161.83 326.68 162.07 326.88 162.26 327.02 C 162.45 327.16 162.72 327.35 162.92 327.47 C 163.13 327.60 163.42 327.77 163.64 327.88 C 163.87 328.00 164.19 328.12 164.42 328.24 C 164.64 328.36 164.93 328.53 165.14 328.66 C 165.35 328.80 165.62 328.99 165.81 329.15 C 166.01 329.30 166.26 329.52 166.43 329.69 C 166.61 329.87 166.84 330.11 167.00 330.30 C 167.17 330.49 167.37 330.76 167.52 330.97 C 167.67 331.18 167.85 331.47 167.98 331.70 C 168.11 331.93 168.28 332.24 168.39 332.49 C 168.51 332.74 168.64 333.10 168.75 333.34 C 168.87 333.59 169.03 333.90 169.16 334.12 C 169.30 334.34 169.48 334.62 169.63 334.81 C 169.78 335.01 169.99 335.26 170.15 335.43 C 170.32 335.60 170.55 335.82 170.73 335.96 C 170.91 336.11 171.16 336.30 171.36 336.42 C 171.56 336.55 171.83 336.70 172.05 336.80 C 172.26 336.90 172.56 337.02 172.79 337.10 C 173.02 337.17 173.35 337.24 173.58 337.31 C 173.81 337.39 174.11 337.51 174.32 337.61 C 174.54 337.70 174.82 337.85 175.02 337.97 C 175.22 338.09 175.47 338.27 175.66 338.41 C 175.85 338.55 176.08 338.76 176.25 338.92 C 176.42 339.09 176.64 339.32 176.79 339.51 C 176.95 339.69 177.14 339.96 177.28 340.17 C 177.42 340.37 177.60 340.67 177.72 340.90 C 177.85 341.13 177.99 341.47 178.11 341.70 C 178.23 341.93 178.40 342.23 178.52 342.43 C 178.65 342.64 178.82 342.91 178.95 343.09 C 179.09 343.28 179.27 343.51 179.40 343.67 C 179.54 343.84 179.73 344.04 179.87 344.18 C 180.02 344.32 180.21 344.49 180.36 344.61 C 180.51 344.73 180.72 344.88 180.87 344.97 C 181.03 345.07 181.24 345.18 181.40 345.26 C 181.56 345.33 181.78 345.40 181.95 345.46 C 182.11 345.53 182.33 345.63 182.50 345.71 C 182.67 345.80 182.89 345.91 183.06 346.01 C 183.22 346.10 183.45 346.23 183.62 346.34 C 183.78 346.44 184.01 346.59 184.18 346.71 C 184.35 346.82 184.58 346.99 184.75 347.12 C 184.92 347.25 185.15 347.43 185.32 347.57 C 185.49 347.71 185.72 347.91 185.89 348.06 C 186.06 348.22 186.30 348.44 186.47 348.60 C 186.63 348.75 186.84 348.95 186.98 349.10 C 187.13 349.24 187.31 349.43 187.43 349.56 C 187.56 349.70 187.72 349.87 187.82 350.00 C 187.93 350.12 188.06 350.28 188.15 350.40 C 188.23 350.51 188.34 350.66 188.41 350.77 C 188.48 350.87 188.56 351.01 188.61 351.10 C 188.66 351.20 188.71 351.32 188.74 351.40 C 188.77 351.49 188.78 351.59 188.81 351.67 C 188.85 351.76 188.92 351.87 188.98 351.97 C 189.04 352.06 189.14 352.19 189.23 352.30 C 189.32 352.40 189.46 352.54 189.58 352.65 C 189.70 352.76 189.87 352.92 190.02 353.04 C 190.17 353.16 190.38 353.33 190.55 353.46 C 190.72 353.59 190.97 353.76 191.17 353.90 C 191.37 354.04 191.66 354.23 191.89 354.38 C 192.11 354.53 192.45 354.74 192.69 354.88 C 192.93 355.03 193.25 355.22 193.49 355.35 C 193.73 355.49 194.05 355.66 194.29 355.78 C 194.53 355.91 194.85 356.07 195.09 356.18 C 195.33 356.29 195.65 356.44 195.88 356.54 C 196.12 356.64 196.44 356.77 196.68 356.86 C 196.91 356.95 197.23 357.06 197.46 357.14 C 197.70 357.22 198.02 357.32 198.25 357.39 C 198.49 357.46 198.81 357.53 199.03 357.60 C 199.26 357.68 199.53 357.78 199.73 357.87 C 199.92 357.96 200.16 358.09 200.33 358.19 C 200.50 358.30 200.70 358.45 200.84 358.57 C 200.99 358.69 201.16 358.87 201.27 359.00 C 201.38 359.14 201.52 359.34 201.60 359.49 C 201.69 359.65 201.79 359.87 201.85 360.04 C 201.91 360.21 201.97 360.45 202.00 360.64 C 202.04 360.82 202.05 361.10 202.07 361.29 C 202.09 361.48 202.12 361.72 202.15 361.89 C 202.17 362.05 202.20 362.27 202.23 362.42 C 202.26 362.57 202.30 362.76 202.33 362.89 C 202.36 363.02 202.40 363.19 202.44 363.30 C 202.47 363.42 202.52 363.56 202.56 363.65 C 202.59 363.75 202.65 363.87 202.69 363.95 C 202.73 364.02 202.78 364.12 202.83 364.18 C 202.87 364.23 202.92 364.29 202.98 364.34 C 203.04 364.39 203.14 364.46 203.23 364.51 C 203.32 364.56 203.46 364.63 203.58 364.68 C 203.70 364.73 203.87 364.80 204.02 364.85 C 204.17 364.90 204.39 364.96 204.57 365.01 C 204.75 365.06 205.00 365.13 205.21 365.18 C 205.42 365.23 205.72 365.29 205.95 365.34 C 206.19 365.39 206.53 365.45 206.79 365.50 C 207.06 365.55 207.46 365.60 207.73 365.66 C 208.00 365.72 208.33 365.82 208.57 365.90 C 208.80 365.98 209.10 366.11 209.30 366.21 C 209.50 366.31 209.76 366.47 209.93 366.59 C 210.10 366.72 210.32 366.90 210.46 367.05 C 210.60 367.20 210.77 367.41 210.88 367.58 C 211.00 367.75 211.12 367.99 211.21 368.18 C 211.29 368.38 211.37 368.65 211.42 368.86 C 211.47 369.08 211.51 369.40 211.54 369.62 C 211.58 369.83 211.62 370.10 211.66 370.29 C 211.70 370.48 211.74 370.72 211.78 370.89 C 211.82 371.06 211.86 371.27 211.90 371.42 C 211.94 371.56 211.99 371.74 212.02 371.86 C 212.06 371.99 212.11 372.14 212.15 372.24 C 212.19 372.34 212.24 372.45 212.28 372.53 C 212.31 372.61 212.36 372.70 212.40 372.75 C 212.44 372.81 212.50 372.86 212.53 372.90 C 212.57 372.94 212.62 372.99 212.65 373.03 C 212.69 373.06 212.73 373.11 212.76 373.14 C 212.79 373.17 212.83 373.21 212.86 373.23 C 212.88 373.26 212.92 373.29 212.94 373.31 C 212.97 373.33 213.00 373.36 213.02 373.37 C 213.04 373.39 213.06 373.41 213.08 373.42 C 213.10 373.43 213.12 373.45 213.14 373.45 C 213.15 373.46 213.15 373.46 213.18 373.47 C 213.21 373.47 213.26 373.48 213.32 373.49 C 213.37 373.49 213.47 373.50 213.55 373.51 C 213.64 373.52 213.77 373.53 213.88 373.54 C 214.00 373.55 214.17 373.57 214.31 373.58 C 214.45 373.59 214.66 373.61 214.84 373.62 C 215.01 373.63 215.25 373.65 215.46 373.67 C 215.66 373.68 215.94 373.70 216.17 373.72 Z" fill="#121827" fill-rule="evenodd" clip-rule="evenodd"/>
</svg>
