<svg width="1560" height="640" viewBox="0 0 1560 640" fill="none" xmlns="http://www.w3.org/2000/svg">
  <rect width="1560" height="640" fill="#F4F6FB"/>

  <text x="52" y="72" fill="#111827" font-family="Inter, Arial, sans-serif" font-size="40" font-weight="800">Iris Pick 23 Study</text>
  <text x="52" y="106" fill="#566277" font-family="Inter, Arial, sans-serif" font-size="20">Trace, simplify, and adapt the selected organic branch mark without losing the original internal logic.</text>

  <g>
    <rect x="40" y="140" width="460" height="452" rx="28" fill="#FFFFFF" stroke="#E1E7F1"/>
    <text x="68" y="182" fill="#6A768E" font-family="IBM Plex Mono, monospace" font-size="17">01 / TRACE</text>
    <text x="68" y="212" fill="#111827" font-family="Inter, Arial, sans-serif" font-size="28" font-weight="700">Preserve the source geometry</text>
    <rect x="68" y="244" width="404" height="320" rx="28" fill="#05070C"/>

    <ellipse cx="206" cy="374" rx="72" ry="94" transform="rotate(14 206 374)" fill="#FFFDF7"/>
    <ellipse cx="271" cy="462" rx="54" ry="96" transform="rotate(44 271 462)" fill="#FFFDF7"/>
    <ellipse cx="335" cy="356" rx="72" ry="92" transform="rotate(-16 335 356)" fill="#FFFDF7"/>
    <ellipse cx="362" cy="467" rx="50" ry="88" transform="rotate(38 362 467)" fill="#FFFDF7"/>
    <ellipse cx="239" cy="294" rx="26" ry="34" transform="rotate(-18 239 294)" fill="#FFFDF7"/>
    <ellipse cx="305" cy="297" rx="28" ry="34" transform="rotate(16 305 297)" fill="#FFFDF7"/>

    <path d="M248 314C265 332 271 350 269 389C266 435 275 475 305 519" stroke="#05070C" stroke-width="19" stroke-linecap="round"/>
    <path d="M271 392C311 379 331 363 348 327" stroke="#05070C" stroke-width="18" stroke-linecap="round"/>
    <path d="M276 447C311 432 337 416 361 389" stroke="#05070C" stroke-width="18" stroke-linecap="round"/>
  </g>

  <g>
    <rect x="550" y="140" width="460" height="452" rx="28" fill="#FFFFFF" stroke="#E1E7F1"/>
    <text x="578" y="182" fill="#6A768E" font-family="IBM Plex Mono, monospace" font-size="17">02 / SIMPLIFY</text>
    <text x="578" y="212" fill="#111827" font-family="Inter, Arial, sans-serif" font-size="28" font-weight="700">Reduce to the core masses</text>
    <rect x="578" y="244" width="404" height="320" rx="28" fill="#FFFDF8"/>

    <path d="M756 314C779 341 786 372 781 420C777 464 788 498 817 532" stroke="#111827" stroke-width="17" stroke-linecap="round"/>
    <path d="M775 398C811 385 834 366 853 334" stroke="#111827" stroke-width="16" stroke-linecap="round"/>
    <path d="M783 450C815 437 842 417 867 389" stroke="#111827" stroke-width="16" stroke-linecap="round"/>

    <ellipse cx="711" cy="373" rx="63" ry="88" transform="rotate(14 711 373)" fill="#111827"/>
    <ellipse cx="777" cy="466" rx="47" ry="88" transform="rotate(42 777 466)" fill="#111827"/>
    <ellipse cx="836" cy="362" rx="63" ry="86" transform="rotate(-14 836 362)" fill="#111827"/>
    <ellipse cx="857" cy="458" rx="42" ry="80" transform="rotate(40 857 458)" fill="#111827"/>
    <ellipse cx="742" cy="303" rx="22" ry="28" transform="rotate(-18 742 303)" fill="#111827"/>
    <ellipse cx="803" cy="305" rx="24" ry="28" transform="rotate(15 803 305)" fill="#111827"/>
  </g>

  <g>
    <rect x="1060" y="140" width="460" height="452" rx="28" fill="#101626" stroke="#243044"/>
    <text x="1088" y="182" fill="#A8B5CC" font-family="IBM Plex Mono, monospace" font-size="17">03 / ADAPT</text>
    <text x="1088" y="212" fill="#F6F8FC" font-family="Inter, Arial, sans-serif" font-size="28" font-weight="700">Turn it into an Iris direction</text>
    <rect x="1088" y="244" width="404" height="320" rx="28" fill="#131B2B"/>

    <defs>
      <linearGradient id="petalBlue" x1="0" y1="0" x2="1" y2="1">
        <stop offset="0%" stop-color="#63D6FF"/>
        <stop offset="100%" stop-color="#2456FF"/>
      </linearGradient>
      <linearGradient id="petalViolet" x1="0" y1="0" x2="1" y2="1">
        <stop offset="0%" stop-color="#B86CFF"/>
        <stop offset="100%" stop-color="#6E37FF"/>
      </linearGradient>
      <linearGradient id="petalCoral" x1="0" y1="0" x2="1" y2="1">
        <stop offset="0%" stop-color="#FF7E79"/>
        <stop offset="100%" stop-color="#FF4B9A"/>
      </linearGradient>
      <linearGradient id="petalTeal" x1="0" y1="0" x2="1" y2="1">
        <stop offset="0%" stop-color="#76FFD6"/>
        <stop offset="100%" stop-color="#1DB99D"/>
      </linearGradient>
      <linearGradient id="petalAmber" x1="0" y1="0" x2="1" y2="1">
        <stop offset="0%" stop-color="#FFD76A"/>
        <stop offset="100%" stop-color="#FF8A1E"/>
      </linearGradient>
      <linearGradient id="petalIndigo" x1="0" y1="0" x2="1" y2="1">
        <stop offset="0%" stop-color="#88A5FF"/>
        <stop offset="100%" stop-color="#4B49FF"/>
      </linearGradient>
    </defs>

    <path d="M1267 314C1290 341 1297 372 1292 420C1288 464 1299 498 1328 532" stroke="#0F1725" stroke-width="17" stroke-linecap="round"/>
    <path d="M1286 398C1322 385 1345 366 1364 334" stroke="#0F1725" stroke-width="16" stroke-linecap="round"/>
    <path d="M1294 450C1326 437 1353 417 1378 389" stroke="#0F1725" stroke-width="16" stroke-linecap="round"/>

    <ellipse cx="1222" cy="373" rx="63" ry="88" transform="rotate(14 1222 373)" fill="url(#petalBlue)"/>
    <ellipse cx="1288" cy="466" rx="47" ry="88" transform="rotate(42 1288 466)" fill="url(#petalTeal)"/>
    <ellipse cx="1347" cy="362" rx="63" ry="86" transform="rotate(-14 1347 362)" fill="url(#petalAmber)"/>
    <ellipse cx="1368" cy="458" rx="42" ry="80" transform="rotate(40 1368 458)" fill="url(#petalCoral)"/>
    <ellipse cx="1253" cy="303" rx="22" ry="28" transform="rotate(-18 1253 303)" fill="url(#petalViolet)"/>
    <ellipse cx="1314" cy="305" rx="24" ry="28" transform="rotate(15 1314 305)" fill="url(#petalIndigo)"/>

    <circle cx="1372" cy="518" r="56" fill="#182338" fill-opacity="0.48"/>
  </g>
</svg>
