<svg width="512" height="512" viewBox="0 0 512 512" fill="none" xmlns="http://www.w3.org/2000/svg">
  <rect width="512" height="512" fill="#FFFFFF"/>
  <path d="M 253.90 311.43 L 253.90 366.16 L 249.69 370.37 L 249.69 375.98 L 244.07 383.00 L 232.85 384.40 L 221.62 381.59 L 216.01 377.38 L 216.01 374.58 L 211.80 374.58 L 206.18 366.16 L 200.57 364.75 L 200.57 361.95 L 192.15 357.74 L 190.75 353.53 L 186.54 353.53 L 186.54 349.32 L 182.33 349.32 L 182.33 346.51 L 168.30 336.69 L 161.28 328.27 L 158.47 328.27 L 152.86 319.85 L 148.65 319.85 L 148.65 315.64 L 144.44 315.64 L 144.44 312.83 L 130.41 303.01 L 123.39 294.59 L 120.58 294.59 L 114.97 286.17 L 110.76 286.17 L 110.76 281.96 L 106.55 281.96 L 106.55 279.15 L 102.34 277.75 L 96.73 269.33 L 93.92 269.33 L 93.92 265.12 L 89.71 265.12 L 89.71 260.91 L 85.50 259.51 L 85.50 255.30 L 82.70 255.30 L 81.29 249.69 L 77.08 246.88 L 77.08 242.67 L 72.87 239.86 L 60.24 206.18 L 60.24 172.50 L 64.45 164.09 L 64.45 155.67 L 68.66 151.46 L 77.08 131.81 L 81.29 130.41 L 81.29 126.20 L 89.71 114.97 L 93.92 113.57 L 93.92 110.76 L 98.13 109.36 L 103.74 100.94 L 107.95 100.94 L 107.95 98.13 L 113.57 96.73 L 114.97 92.52 L 144.44 79.89 L 169.70 79.89 L 199.17 92.52 L 199.17 95.32 L 210.39 100.94 L 211.80 105.15 L 214.60 105.15 L 216.01 109.36 L 224.43 114.97 L 228.64 124.79 L 232.85 126.20 L 232.85 131.81 L 237.06 134.62 L 237.06 138.83 L 241.27 143.04 L 241.27 151.46 L 245.48 157.07 L 245.48 253.90 L 249.69 266.52 L 249.69 287.57 L 252.49 293.19 L 253.90 310.03 L 253.90 311.43 Z M 375.98 281.96 L 383.00 277.75 L 384.40 273.54 L 388.61 273.54 L 388.61 269.33 L 392.82 269.33 L 394.22 265.12 L 412.47 252.49 L 418.08 244.07 L 422.29 244.07 L 422.29 239.86 L 426.50 239.86 L 427.90 235.65 L 450.35 223.02 L 460.18 223.02 L 468.60 231.44 L 468.60 287.57 L 464.39 297.40 L 464.39 310.03 L 460.18 315.64 L 460.18 324.06 L 455.97 328.27 L 455.97 335.29 L 451.76 339.50 L 451.76 345.11 L 447.55 349.32 L 443.34 361.95 L 439.13 364.75 L 439.13 368.96 L 434.92 371.77 L 430.71 381.59 L 426.50 383.00 L 426.50 387.21 L 420.89 391.42 L 420.89 394.22 L 412.47 404.05 L 409.66 404.05 L 408.26 408.26 L 405.45 408.26 L 404.05 412.47 L 401.24 412.47 L 399.84 416.68 L 385.80 425.10 L 384.40 429.30 L 380.19 429.30 L 378.79 433.51 L 367.56 437.72 L 367.56 440.53 L 359.14 441.93 L 357.74 446.14 L 352.12 446.14 L 349.32 450.35 L 342.30 450.35 L 342.30 453.16 L 333.88 454.56 L 329.67 458.77 L 318.45 458.77 L 317.04 461.58 L 300.20 461.58 L 297.40 458.77 L 290.38 458.77 L 283.36 453.16 L 283.36 450.35 L 279.15 448.95 L 279.15 444.74 L 276.35 444.74 L 274.94 434.92 L 270.73 429.30 L 270.73 397.03 L 274.94 388.61 L 274.94 378.79 L 279.15 374.58 L 283.36 361.95 L 286.17 361.95 L 287.57 357.74 L 304.41 340.90 L 307.22 340.90 L 308.62 336.69 L 312.83 335.29 L 312.83 332.48 L 317.04 332.48 L 321.25 325.46 L 332.48 319.85 L 333.88 315.64 L 338.09 315.64 L 338.09 311.43 L 342.30 311.43 L 342.30 308.62 L 357.74 298.80 L 359.14 294.59 L 363.35 294.59 L 363.35 290.38 L 367.56 290.38 L 367.56 287.57 L 374.58 281.96 L 375.98 281.96 Z M 430.71 182.33 L 430.71 187.94 L 426.50 190.75 L 426.50 197.76 L 422.29 199.17 L 420.89 206.18 L 418.08 206.18 L 418.08 210.39 L 409.66 221.62 L 405.45 223.02 L 405.45 227.23 L 402.64 227.23 L 401.24 231.44 L 384.40 248.28 L 381.59 248.28 L 375.98 256.70 L 371.77 258.10 L 371.77 260.91 L 367.56 260.91 L 367.56 265.12 L 363.35 265.12 L 363.35 267.93 L 353.53 273.54 L 353.53 276.35 L 347.91 277.75 L 342.30 286.17 L 338.09 286.17 L 338.09 288.98 L 322.66 298.80 L 321.25 303.01 L 317.04 303.01 L 315.64 307.22 L 295.99 319.85 L 283.36 319.85 L 283.36 315.64 L 279.15 315.64 L 279.15 310.03 L 274.94 305.82 L 274.94 294.59 L 270.73 286.17 L 270.73 265.12 L 266.52 248.28 L 270.73 159.88 L 272.14 155.67 L 274.94 155.67 L 276.35 148.65 L 279.15 148.65 L 280.56 144.44 L 287.57 143.04 L 288.98 138.83 L 324.06 130.41 L 328.27 126.20 L 343.70 121.99 L 346.51 117.78 L 352.12 117.78 L 356.33 113.57 L 361.95 113.57 L 366.16 109.36 L 374.58 109.36 L 380.19 105.15 L 402.64 105.15 L 406.85 109.36 L 412.47 109.36 L 413.87 113.57 L 418.08 113.57 L 418.08 116.37 L 422.29 117.78 L 422.29 121.99 L 426.50 123.39 L 426.50 129.00 L 430.71 131.81 L 430.71 138.83 L 434.92 144.44 L 434.92 175.31 L 430.71 180.92 L 430.71 182.33 Z M 238.46 439.13 L 245.48 451.76 L 245.48 462.98 L 235.65 470.00 L 221.62 470.00 L 218.81 467.19 L 206.18 467.19 L 199.17 462.98 L 190.75 462.98 L 186.54 458.77 L 179.52 458.77 L 175.31 454.56 L 165.49 453.16 L 165.49 450.35 L 159.88 450.35 L 157.07 446.14 L 151.46 446.14 L 148.65 441.93 L 136.02 437.72 L 134.62 433.51 L 130.41 433.51 L 123.39 427.90 L 123.39 425.10 L 119.18 425.10 L 117.78 420.89 L 112.16 419.48 L 112.16 416.68 L 107.95 415.27 L 93.92 401.24 L 93.92 398.43 L 91.11 398.43 L 91.11 395.63 L 85.50 391.42 L 85.50 387.21 L 81.29 387.21 L 81.29 383.00 L 64.45 360.54 L 60.24 346.51 L 56.03 343.70 L 56.03 336.69 L 53.23 336.69 L 51.82 325.46 L 47.61 319.85 L 47.61 311.43 L 43.40 305.82 L 43.40 280.56 L 49.02 276.35 L 61.65 277.75 L 64.45 281.96 L 75.68 286.17 L 77.08 290.38 L 88.31 294.59 L 89.71 298.80 L 93.92 298.80 L 93.92 301.61 L 106.55 308.62 L 110.76 315.64 L 114.97 315.64 L 114.97 318.45 L 121.99 321.25 L 121.99 324.06 L 130.41 328.27 L 131.81 332.48 L 136.02 332.48 L 136.02 336.69 L 140.23 336.69 L 140.23 339.50 L 159.88 353.53 L 165.49 361.95 L 169.70 361.95 L 169.70 366.16 L 173.91 366.16 L 173.91 370.37 L 178.12 370.37 L 183.73 378.79 L 206.18 395.63 L 216.01 409.66 L 218.81 409.66 L 218.81 412.47 L 224.43 416.68 L 224.43 419.48 L 228.64 420.89 L 228.64 425.10 L 232.85 426.50 L 232.85 430.71 L 238.46 437.72 L 238.46 439.13 Z M 357.74 67.26 L 367.56 75.68 L 367.56 88.31 L 363.35 88.31 L 361.95 92.52 L 342.30 100.94 L 342.30 103.74 L 333.88 105.15 L 331.08 109.36 L 325.46 109.36 L 321.25 113.57 L 312.83 113.57 L 305.82 117.78 L 284.77 117.78 L 283.36 113.57 L 279.15 112.16 L 279.15 99.53 L 283.36 92.52 L 283.36 81.29 L 287.57 75.68 L 287.57 67.26 L 291.78 61.65 L 291.78 56.03 L 295.99 54.63 L 295.99 50.42 L 324.06 50.42 L 326.87 54.63 L 333.88 54.63 L 356.33 67.26 L 357.74 67.26 Z M 262.31 98.13 L 253.90 107.95 L 246.88 107.95 L 225.83 92.52 L 224.43 88.31 L 220.22 88.31 L 217.41 84.10 L 213.20 84.10 L 211.80 79.89 L 200.57 75.68 L 190.75 63.05 L 190.75 56.03 L 194.96 50.42 L 199.17 50.42 L 203.38 46.21 L 211.80 46.21 L 217.41 42.00 L 266.52 42.00 L 273.54 50.42 L 273.54 60.24 L 270.73 61.65 L 270.73 70.07 L 266.52 74.28 L 266.52 84.10 L 262.31 96.73 L 262.31 98.13 Z" fill="#121827" fill-rule="evenodd" clip-rule="evenodd"/>
</svg>
