<svg width="512" height="512" viewBox="0 0 512 512" fill="none" xmlns="http://www.w3.org/2000/svg">
  <rect width="512" height="512" fill="#FFFFFF"/>
  <path d="M 206.98 100.88 C 207.75 101.49 208.84 102.35 209.62 102.99 C 210.41 103.64 211.37 104.44 212.12 105.08 C 212.86 105.71 213.77 106.51 214.46 107.13 C 215.16 107.76 216.01 108.55 216.67 109.17 C 217.32 109.78 218.12 110.56 218.72 111.17 C 219.33 111.78 220.07 112.55 220.64 113.15 C 221.20 113.75 221.88 114.51 222.40 115.10 C 222.92 115.70 223.55 116.44 224.03 117.03 C 224.50 117.61 225.06 118.34 225.50 118.93 C 225.95 119.51 226.51 120.26 226.94 120.87 C 227.38 121.47 227.92 122.23 228.34 122.84 C 228.76 123.46 229.29 124.24 229.70 124.86 C 230.11 125.49 230.62 126.28 231.02 126.92 C 231.42 127.56 231.91 128.37 232.30 129.02 C 232.68 129.67 233.16 130.49 233.54 131.15 C 233.91 131.81 234.38 132.66 234.74 133.33 C 235.10 134.00 235.55 134.87 235.90 135.55 C 236.24 136.23 236.67 137.08 236.99 137.76 C 237.32 138.44 237.72 139.30 238.02 139.98 C 238.33 140.66 238.70 141.51 238.98 142.19 C 239.27 142.87 239.62 143.73 239.88 144.41 C 240.15 145.09 240.47 145.95 240.71 146.63 C 240.96 147.31 241.25 148.16 241.48 148.84 C 241.70 149.52 241.97 150.38 242.18 151.06 C 242.38 151.74 242.62 152.60 242.81 153.27 C 243.00 153.95 243.22 154.80 243.39 155.48 C 243.56 156.15 243.76 157.00 243.92 157.67 C 244.07 158.34 244.25 159.18 244.39 159.84 C 244.53 160.51 244.69 161.34 244.81 162.01 C 244.94 162.67 245.08 163.50 245.18 164.16 C 245.29 164.81 245.41 165.64 245.50 166.29 C 245.59 166.95 245.69 167.77 245.76 168.42 C 245.84 169.07 245.92 169.75 245.98 170.53 C 246.03 171.31 246.09 172.45 246.13 173.49 C 246.17 174.54 246.21 176.02 246.24 177.32 C 246.26 178.62 246.28 180.43 246.29 182.00 C 246.30 183.57 246.30 185.71 246.29 187.54 C 246.28 189.37 246.26 191.85 246.24 193.94 C 246.21 196.03 246.17 198.84 246.13 201.19 C 246.09 203.55 246.03 206.69 245.98 209.31 C 245.92 211.93 245.81 215.59 245.76 218.28 C 245.72 220.96 245.69 224.27 245.69 226.82 C 245.68 229.38 245.70 232.52 245.74 234.95 C 245.77 237.38 245.85 240.35 245.92 242.65 C 246.00 244.95 246.12 247.76 246.24 249.93 C 246.36 252.10 246.53 254.75 246.69 256.79 C 246.85 258.83 247.07 261.32 247.27 263.23 C 247.47 265.14 247.74 267.46 247.98 269.24 C 248.22 271.02 248.58 273.10 248.82 274.84 C 249.07 276.57 249.37 278.78 249.60 280.56 C 249.83 282.34 250.11 284.60 250.31 286.42 C 250.52 288.23 250.77 290.55 250.96 292.41 C 251.15 294.26 251.37 296.63 251.54 298.53 C 251.71 300.42 251.91 302.84 252.06 304.78 C 252.20 306.72 252.38 309.18 252.50 311.16 C 252.63 313.14 252.78 315.66 252.89 317.68 C 252.99 319.70 253.11 322.38 253.20 324.33 C 253.29 326.28 253.39 328.62 253.47 330.39 C 253.54 332.17 253.62 334.29 253.68 335.88 C 253.74 337.47 253.80 339.37 253.84 340.79 C 253.88 342.20 253.92 343.88 253.94 345.11 C 253.97 346.35 253.99 347.80 254.00 348.86 C 254.00 349.92 254.00 351.14 254.00 352.03 C 253.99 352.91 253.97 353.91 253.94 354.61 C 253.92 355.31 253.88 356.01 253.84 356.62 C 253.80 357.22 253.74 357.97 253.68 358.55 C 253.62 359.14 253.54 359.86 253.47 360.43 C 253.39 360.99 253.29 361.69 253.20 362.23 C 253.11 362.78 252.99 363.45 252.89 363.98 C 252.78 364.50 252.64 365.15 252.52 365.65 C 252.40 366.15 252.23 366.78 252.10 367.26 C 251.96 367.74 251.77 368.34 251.62 368.80 C 251.47 369.27 251.26 369.84 251.09 370.28 C 250.93 370.72 250.72 371.27 250.55 371.69 C 250.38 372.12 250.17 372.64 250.00 373.04 C 249.83 373.44 249.61 373.94 249.43 374.32 C 249.26 374.70 249.03 375.17 248.85 375.53 C 248.67 375.89 248.44 376.34 248.26 376.68 C 248.07 377.02 247.84 377.44 247.65 377.76 C 247.46 378.08 247.22 378.47 247.03 378.78 C 246.84 379.08 246.60 379.45 246.40 379.73 C 246.20 380.00 245.93 380.34 245.71 380.60 C 245.49 380.85 245.21 381.16 244.97 381.39 C 244.74 381.62 244.43 381.89 244.18 382.10 C 243.93 382.31 243.60 382.55 243.34 382.73 C 243.07 382.91 242.72 383.13 242.44 383.29 C 242.16 383.44 241.79 383.63 241.49 383.76 C 241.19 383.90 240.80 384.05 240.49 384.16 C 240.17 384.27 239.77 384.39 239.43 384.47 C 239.10 384.56 238.67 384.65 238.31 384.71 C 237.96 384.77 237.50 384.83 237.12 384.87 C 236.75 384.91 236.27 384.94 235.87 384.95 C 235.48 384.96 234.97 384.96 234.55 384.95 C 234.14 384.94 233.60 384.91 233.17 384.87 C 232.73 384.83 232.17 384.77 231.72 384.71 C 231.26 384.65 230.67 384.56 230.20 384.47 C 229.72 384.39 229.09 384.26 228.62 384.16 C 228.15 384.06 227.57 383.92 227.13 383.81 C 226.68 383.71 226.14 383.56 225.73 383.45 C 225.31 383.33 224.81 383.17 224.42 383.05 C 224.04 382.92 223.57 382.76 223.21 382.63 C 222.85 382.49 222.42 382.32 222.09 382.18 C 221.76 382.04 221.36 381.85 221.06 381.70 C 220.76 381.55 220.40 381.36 220.12 381.20 C 219.85 381.04 219.81 381.08 219.28 380.68 C 218.75 380.27 217.75 379.45 216.68 378.56 C 215.61 377.67 213.93 376.25 212.33 374.87 C 210.72 373.50 208.36 371.46 206.22 369.60 C 204.08 367.73 201.04 365.08 198.36 362.74 C 195.68 360.39 191.96 357.13 188.74 354.29 C 185.52 351.46 181.13 347.59 177.37 344.27 C 173.62 340.95 168.54 336.46 164.25 332.66 C 159.95 328.86 153.70 323.34 149.37 319.47 C 145.04 315.60 139.86 310.95 135.98 307.44 C 132.10 303.93 127.50 299.73 124.08 296.57 C 120.66 293.42 116.64 289.66 113.68 286.87 C 110.71 284.07 107.27 280.76 104.76 278.32 C 102.25 275.87 99.38 273.02 97.33 270.93 C 95.28 268.84 92.99 266.44 91.40 264.71 C 89.81 262.97 88.09 261.02 86.95 259.64 C 85.82 258.27 84.87 256.91 84.00 255.74 C 83.13 254.57 82.07 253.12 81.27 252.00 C 80.46 250.88 79.50 249.51 78.76 248.44 C 78.03 247.38 77.14 246.07 76.48 245.05 C 75.81 244.04 75.02 242.79 74.42 241.83 C 73.83 240.87 73.12 239.69 72.59 238.79 C 72.06 237.88 71.44 236.77 70.98 235.91 C 70.52 235.06 69.98 234.01 69.59 233.21 C 69.20 232.40 68.78 231.44 68.43 230.67 C 68.09 229.91 67.67 228.96 67.35 228.22 C 67.03 227.48 66.64 226.56 66.35 225.85 C 66.05 225.13 65.70 224.24 65.43 223.55 C 65.16 222.86 64.83 222.00 64.58 221.34 C 64.34 220.67 64.04 219.84 63.82 219.20 C 63.59 218.56 63.33 217.76 63.13 217.14 C 62.93 216.52 62.70 215.76 62.52 215.16 C 62.35 214.57 62.15 213.88 62.00 213.26 C 61.84 212.65 61.66 211.84 61.52 211.17 C 61.38 210.49 61.22 209.61 61.10 208.87 C 60.98 208.14 60.84 207.17 60.73 206.38 C 60.63 205.58 60.50 204.54 60.41 203.69 C 60.32 202.83 60.22 201.71 60.15 200.80 C 60.08 199.88 60.00 198.69 59.94 197.71 C 59.88 196.74 59.82 195.47 59.78 194.43 C 59.74 193.39 59.69 192.00 59.68 190.95 C 59.66 189.89 59.65 188.57 59.66 187.54 C 59.67 186.51 59.70 185.23 59.74 184.22 C 59.78 183.21 59.85 181.96 59.91 180.97 C 59.98 179.99 60.08 178.77 60.18 177.81 C 60.27 176.85 60.41 175.66 60.53 174.72 C 60.66 173.79 60.83 172.62 60.98 171.71 C 61.13 170.80 61.34 169.67 61.52 168.79 C 61.70 167.90 61.94 166.81 62.15 165.94 C 62.37 165.06 62.66 163.95 62.91 163.06 C 63.16 162.18 63.49 161.05 63.78 160.16 C 64.06 159.27 64.44 158.13 64.77 157.23 C 65.09 156.33 65.52 155.19 65.87 154.28 C 66.23 153.37 66.71 152.21 67.10 151.30 C 67.50 150.38 68.02 149.21 68.45 148.29 C 68.88 147.36 69.44 146.19 69.91 145.25 C 70.38 144.32 70.98 143.14 71.49 142.19 C 72.01 141.24 72.70 140.03 73.29 139.05 C 73.87 138.08 74.65 136.84 75.29 135.84 C 75.94 134.84 76.80 133.56 77.51 132.54 C 78.22 131.52 79.16 130.21 79.94 129.16 C 80.71 128.11 81.73 126.78 82.57 125.71 C 83.41 124.63 84.52 123.27 85.42 122.17 C 86.33 121.07 87.51 119.68 88.48 118.56 C 89.45 117.44 90.74 115.97 91.75 114.86 C 92.76 113.76 94.04 112.40 95.06 111.35 C 96.09 110.31 97.38 109.02 98.42 108.03 C 99.45 107.04 100.76 105.83 101.80 104.89 C 102.85 103.96 104.18 102.81 105.23 101.94 C 106.29 101.06 107.63 99.99 108.70 99.17 C 109.77 98.35 111.13 97.35 112.21 96.58 C 113.29 95.82 114.67 94.89 115.76 94.18 C 116.85 93.47 118.28 92.61 119.35 91.96 C 120.42 91.32 121.73 90.54 122.74 89.96 C 123.75 89.38 124.98 88.68 125.93 88.17 C 126.88 87.65 128.04 87.04 128.92 86.58 C 129.81 86.13 130.89 85.60 131.72 85.21 C 132.55 84.82 133.55 84.37 134.32 84.05 C 135.09 83.73 136.01 83.36 136.72 83.10 C 137.43 82.84 138.28 82.56 138.92 82.36 C 139.57 82.17 140.30 81.98 140.93 81.83 C 141.56 81.69 142.37 81.51 143.04 81.39 C 143.70 81.26 144.56 81.12 145.25 81.02 C 145.95 80.92 146.85 80.80 147.58 80.73 C 148.30 80.65 149.24 80.57 150.00 80.52 C 150.76 80.46 151.74 80.41 152.54 80.38 C 153.33 80.36 154.35 80.34 155.17 80.33 C 156.00 80.33 157.06 80.34 157.92 80.36 C 158.77 80.38 159.88 80.40 160.77 80.46 C 161.65 80.52 162.77 80.64 163.67 80.75 C 164.57 80.87 165.71 81.05 166.62 81.23 C 167.54 81.40 168.70 81.66 169.63 81.89 C 170.56 82.12 171.74 82.44 172.69 82.73 C 173.64 83.02 174.84 83.42 175.80 83.76 C 176.77 84.10 177.99 84.57 178.97 84.97 C 179.95 85.37 181.19 85.92 182.19 86.37 C 183.18 86.83 184.52 87.50 185.46 87.96 C 186.40 88.41 187.51 88.95 188.33 89.34 C 189.15 89.73 190.11 90.19 190.81 90.53 C 191.51 90.86 192.32 91.24 192.90 91.52 C 193.48 91.79 194.13 92.10 194.59 92.31 C 195.04 92.52 195.54 92.75 195.88 92.90 C 196.21 93.05 196.56 93.21 196.78 93.30 C 196.99 93.39 197.18 93.46 197.28 93.50 C 197.37 93.53 197.30 93.45 197.38 93.50 C 197.46 93.54 197.63 93.64 197.80 93.76 C 197.98 93.88 198.27 94.08 198.54 94.29 C 198.82 94.49 199.23 94.79 199.60 95.08 C 199.97 95.36 200.50 95.77 200.97 96.13 C 201.44 96.50 202.09 97.01 202.66 97.45 C 203.22 97.90 204.00 98.51 204.66 99.04 C 205.33 99.56 206.22 100.27 206.98 100.88 Z M 285.23 362.47 C 285.41 362.17 285.61 361.79 285.86 361.42 C 286.12 361.05 286.51 360.52 286.88 360.06 C 287.25 359.60 287.79 358.95 288.28 358.40 C 288.76 357.84 289.45 357.08 290.06 356.43 C 290.66 355.78 291.50 354.90 292.22 354.16 C 292.94 353.42 293.93 352.43 294.77 351.59 C 295.61 350.76 296.74 349.64 297.69 348.71 C 298.65 347.79 299.93 346.56 301.01 345.54 C 302.08 344.51 303.48 343.18 304.70 342.05 C 305.92 340.93 307.57 339.43 308.96 338.19 C 310.35 336.95 312.22 335.30 313.79 333.94 C 315.35 332.58 317.44 330.79 319.18 329.31 C 320.92 327.83 323.23 325.90 325.14 324.30 C 327.06 322.70 329.58 320.62 331.67 318.90 C 333.76 317.19 336.51 314.96 338.77 313.13 C 341.03 311.30 344.00 308.92 346.43 306.97 C 348.87 305.02 352.19 302.41 354.66 300.43 C 357.14 298.45 360.20 295.98 362.58 294.05 C 364.96 292.13 367.89 289.73 370.18 287.85 C 372.46 285.98 375.27 283.65 377.46 281.83 C 379.64 280.00 382.33 277.74 384.42 275.97 C 386.51 274.20 389.08 272.00 391.07 270.29 C 393.06 268.57 395.51 266.44 397.40 264.77 C 399.29 263.11 401.62 261.04 403.42 259.43 C 405.21 257.82 407.45 255.76 409.11 254.26 C 410.78 252.75 412.77 250.96 414.27 249.62 C 415.77 248.27 417.55 246.68 418.89 245.50 C 420.22 244.32 421.80 242.93 422.96 241.91 C 424.13 240.89 425.50 239.71 426.50 238.85 C 427.50 238.00 428.66 237.02 429.49 236.32 C 430.33 235.62 431.28 234.85 431.95 234.32 C 432.62 233.78 433.35 233.21 433.86 232.84 C 434.36 232.47 434.80 232.17 435.23 231.89 C 435.66 231.60 436.21 231.25 436.65 230.98 C 437.10 230.70 437.67 230.37 438.13 230.11 C 438.59 229.85 439.18 229.53 439.66 229.28 C 440.14 229.03 440.75 228.72 441.25 228.48 C 441.74 228.25 442.37 227.96 442.88 227.73 C 443.39 227.51 444.04 227.23 444.57 227.02 C 445.09 226.81 445.77 226.55 446.31 226.35 C 446.85 226.15 447.57 225.89 448.10 225.71 C 448.64 225.54 449.31 225.34 449.82 225.20 C 450.33 225.06 450.96 224.91 451.45 224.80 C 451.94 224.70 452.55 224.59 453.01 224.53 C 453.48 224.46 454.05 224.40 454.49 224.37 C 454.93 224.34 455.47 224.32 455.89 224.33 C 456.30 224.34 456.81 224.37 457.21 224.41 C 457.60 224.45 458.08 224.53 458.45 224.61 C 458.81 224.69 459.26 224.82 459.61 224.92 C 459.95 225.03 460.37 225.17 460.69 225.29 C 461.01 225.41 461.39 225.58 461.69 225.71 C 461.99 225.85 462.34 226.04 462.61 226.19 C 462.88 226.34 463.21 226.55 463.46 226.72 C 463.70 226.89 464.00 227.11 464.22 227.30 C 464.45 227.48 464.71 227.73 464.91 227.93 C 465.11 228.13 465.34 228.40 465.52 228.62 C 465.69 228.84 465.89 229.12 466.04 229.36 C 466.20 229.59 466.39 229.90 466.53 230.15 C 466.67 230.40 466.85 230.72 466.98 230.99 C 467.11 231.26 467.27 231.60 467.39 231.89 C 467.51 232.17 467.65 232.54 467.76 232.84 C 467.86 233.14 467.99 233.52 468.09 233.84 C 468.18 234.16 468.29 234.56 468.38 234.90 C 468.46 235.23 468.56 235.66 468.63 236.00 C 468.70 236.35 468.78 236.73 468.84 237.16 C 468.90 237.60 468.96 238.25 469.01 238.84 C 469.06 239.43 469.11 240.28 469.14 241.03 C 469.18 241.78 469.21 242.82 469.23 243.73 C 469.26 244.64 469.28 245.89 469.29 246.95 C 469.30 248.02 469.30 249.46 469.30 250.68 C 469.30 251.91 469.29 253.55 469.27 254.93 C 469.26 256.31 469.23 258.15 469.21 259.69 C 469.18 261.23 469.16 263.35 469.10 264.97 C 469.05 266.59 468.96 268.63 468.87 270.25 C 468.77 271.86 468.63 273.90 468.50 275.52 C 468.36 277.14 468.17 279.18 468.00 280.80 C 467.82 282.42 467.58 284.46 467.36 286.07 C 467.15 287.69 466.85 289.73 466.60 291.35 C 466.34 292.97 466.00 295.01 465.70 296.63 C 465.40 298.24 465.01 300.28 464.67 301.90 C 464.34 303.52 463.88 305.59 463.51 307.18 C 463.14 308.77 462.67 310.74 462.28 312.28 C 461.90 313.82 461.40 315.73 460.99 317.22 C 460.58 318.70 460.06 320.54 459.63 321.98 C 459.21 323.41 458.65 325.19 458.21 326.57 C 457.76 327.95 457.18 329.66 456.72 330.99 C 456.25 332.32 455.65 333.96 455.16 335.23 C 454.67 336.51 454.05 338.09 453.54 339.31 C 453.03 340.53 452.37 342.03 451.85 343.21 C 451.33 344.40 450.66 345.88 450.12 347.04 C 449.59 348.20 448.90 349.65 448.35 350.79 C 447.81 351.92 447.11 353.34 446.55 354.45 C 445.99 355.57 445.27 356.95 444.70 358.04 C 444.13 359.13 443.40 360.49 442.81 361.55 C 442.23 362.61 441.49 363.94 440.89 364.98 C 440.29 366.02 439.53 367.31 438.92 368.33 C 438.31 369.34 437.53 370.61 436.92 371.60 C 436.30 372.59 435.53 373.81 434.91 374.77 C 434.30 375.72 433.52 376.90 432.91 377.83 C 432.29 378.75 431.52 379.89 430.90 380.78 C 430.29 381.67 429.51 382.77 428.90 383.63 C 428.28 384.49 427.51 385.55 426.89 386.37 C 426.28 387.20 425.50 388.22 424.89 389.01 C 424.27 389.80 423.50 390.78 422.88 391.54 C 422.27 392.30 421.51 393.22 420.88 393.97 C 420.24 394.72 419.42 395.68 418.74 396.45 C 418.07 397.22 417.19 398.20 416.47 398.98 C 415.76 399.77 414.83 400.77 414.07 401.57 C 413.32 402.37 412.34 403.39 411.54 404.21 C 410.74 405.02 409.71 406.06 408.88 406.90 C 408.04 407.73 406.96 408.79 406.08 409.64 C 405.20 410.49 404.07 411.57 403.15 412.44 C 402.23 413.30 401.03 414.43 400.09 415.29 C 399.16 416.14 397.98 417.20 397.06 418.03 C 396.13 418.86 394.97 419.88 394.05 420.67 C 393.13 421.46 391.98 422.44 391.07 423.20 C 390.16 423.96 389.02 424.90 388.11 425.63 C 387.21 426.36 386.08 427.25 385.19 427.95 C 384.29 428.64 383.17 429.50 382.28 430.17 C 381.40 430.83 380.29 431.64 379.41 432.28 C 378.53 432.91 377.47 433.66 376.56 434.28 C 375.65 434.90 374.46 435.68 373.49 436.31 C 372.51 436.94 371.23 437.73 370.19 438.37 C 369.14 439.00 367.78 439.81 366.67 440.45 C 365.55 441.10 364.10 441.91 362.92 442.56 C 361.74 443.22 360.20 444.04 358.95 444.70 C 357.70 445.36 356.08 446.20 354.76 446.86 C 353.44 447.53 351.73 448.38 350.34 449.05 C 348.95 449.73 347.06 450.62 345.69 451.27 C 344.33 451.91 342.67 452.69 341.41 453.26 C 340.15 453.84 338.63 454.52 337.48 455.03 C 336.33 455.54 334.94 456.13 333.90 456.57 C 332.86 457.01 331.62 457.52 330.68 457.89 C 329.75 458.26 328.64 458.68 327.82 458.99 C 327.00 459.29 326.03 459.62 325.32 459.86 C 324.60 460.09 323.77 460.34 323.17 460.50 C 322.56 460.67 321.92 460.80 321.37 460.93 C 320.82 461.05 320.13 461.19 319.58 461.29 C 319.03 461.40 318.33 461.52 317.78 461.61 C 317.23 461.70 316.54 461.80 315.99 461.87 C 315.44 461.95 314.75 462.03 314.20 462.09 C 313.65 462.14 312.95 462.20 312.40 462.24 C 311.85 462.28 311.16 462.33 310.61 462.35 C 310.06 462.37 309.36 462.39 308.81 462.40 C 308.26 462.41 307.56 462.41 307.02 462.40 C 306.48 462.39 305.80 462.37 305.28 462.35 C 304.75 462.33 304.10 462.28 303.59 462.24 C 303.08 462.20 302.45 462.14 301.96 462.09 C 301.46 462.03 300.85 461.95 300.37 461.87 C 299.89 461.80 299.30 461.70 298.84 461.61 C 298.38 461.52 297.81 461.40 297.36 461.29 C 296.92 461.19 296.37 461.05 295.94 460.93 C 295.51 460.80 294.98 460.63 294.57 460.50 C 294.16 460.37 293.66 460.20 293.28 460.07 C 292.89 459.93 292.42 459.76 292.06 459.62 C 291.70 459.48 291.26 459.30 290.93 459.16 C 290.59 459.01 290.18 458.83 289.87 458.68 C 289.56 458.54 289.18 458.35 288.90 458.19 C 288.61 458.04 288.26 457.85 288.00 457.69 C 287.74 457.54 287.42 457.34 287.18 457.18 C 286.94 457.02 286.68 456.83 286.44 456.65 C 286.21 456.47 285.91 456.23 285.67 456.02 C 285.42 455.81 285.10 455.52 284.85 455.28 C 284.59 455.04 284.26 454.71 283.99 454.44 C 283.72 454.16 283.37 453.79 283.09 453.49 C 282.81 453.18 282.45 452.77 282.16 452.43 C 281.86 452.09 281.49 451.64 281.18 451.27 C 280.87 450.90 280.48 450.41 280.16 450.00 C 279.85 449.60 279.42 449.07 279.11 448.63 C 278.79 448.19 278.41 447.61 278.11 447.13 C 277.81 446.65 277.44 446.01 277.16 445.49 C 276.87 444.97 276.53 444.29 276.26 443.72 C 275.99 443.16 275.67 442.43 275.42 441.83 C 275.17 441.22 274.86 440.44 274.62 439.79 C 274.39 439.15 274.10 438.31 273.89 437.63 C 273.67 436.95 273.40 436.06 273.20 435.34 C 273.00 434.61 272.75 433.68 272.57 432.91 C 272.39 432.14 272.19 431.13 272.04 430.30 C 271.89 429.47 271.73 428.39 271.62 427.50 C 271.50 426.61 271.38 425.46 271.30 424.52 C 271.22 423.58 271.14 422.35 271.09 421.35 C 271.04 420.35 271.00 419.06 270.98 418.00 C 270.97 416.95 270.97 415.58 270.98 414.47 C 271.00 413.36 271.04 411.92 271.09 410.75 C 271.14 409.58 271.23 408.00 271.30 406.84 C 271.37 405.69 271.46 404.28 271.54 403.20 C 271.62 402.13 271.72 400.82 271.80 399.83 C 271.89 398.83 272.00 397.63 272.09 396.71 C 272.19 395.80 272.31 394.70 272.41 393.87 C 272.51 393.03 272.64 392.03 272.75 391.28 C 272.86 390.53 273.00 389.63 273.12 388.96 C 273.24 388.29 273.39 387.49 273.52 386.90 C 273.64 386.31 273.80 385.65 273.94 385.11 C 274.08 384.56 274.26 383.88 274.41 383.34 C 274.57 382.80 274.77 382.13 274.94 381.60 C 275.11 381.07 275.34 380.41 275.52 379.88 C 275.71 379.36 275.95 378.71 276.15 378.20 C 276.36 377.68 276.62 377.04 276.84 376.53 C 277.06 376.03 277.34 375.40 277.58 374.90 C 277.81 374.40 278.12 373.78 278.37 373.29 C 278.62 372.80 278.97 372.16 279.21 371.71 C 279.46 371.25 279.75 370.72 279.97 370.32 C 280.18 369.93 280.44 369.47 280.63 369.13 C 280.81 368.80 281.03 368.42 281.19 368.14 C 281.35 367.87 281.54 367.57 281.67 367.35 C 281.80 367.14 281.95 366.91 282.05 366.76 C 282.15 366.61 282.27 366.45 282.34 366.36 C 282.42 366.27 282.49 366.20 282.54 366.17 C 282.59 366.14 282.60 366.19 282.64 366.17 C 282.69 366.15 282.75 366.09 282.82 366.03 C 282.88 365.97 282.97 365.87 283.05 365.77 C 283.14 365.67 283.25 365.52 283.36 365.37 C 283.46 365.23 283.60 365.03 283.73 364.85 C 283.85 364.66 284.02 364.41 284.16 364.19 C 284.30 363.96 284.50 363.66 284.66 363.40 C 284.83 363.13 285.05 362.78 285.23 362.47 Z M 399.56 106.16 C 399.78 106.16 400.07 106.15 400.30 106.16 C 400.54 106.17 400.85 106.19 401.11 106.22 C 401.36 106.25 401.70 106.31 401.98 106.36 C 402.25 106.41 402.62 106.48 402.91 106.55 C 403.21 106.62 403.60 106.73 403.92 106.82 C 404.23 106.91 404.65 107.04 404.98 107.15 C 405.32 107.26 405.76 107.41 406.12 107.54 C 406.48 107.67 406.94 107.85 407.32 108.00 C 407.70 108.16 408.19 108.35 408.59 108.53 C 408.98 108.72 409.49 108.98 409.89 109.20 C 410.30 109.43 410.82 109.75 411.24 110.02 C 411.66 110.30 412.19 110.67 412.62 110.99 C 413.05 111.30 413.60 111.73 414.05 112.09 C 414.49 112.46 415.06 112.94 415.51 113.35 C 415.97 113.75 416.55 114.29 417.01 114.74 C 417.48 115.20 418.08 115.79 418.56 116.29 C 419.04 116.78 419.67 117.44 420.14 117.98 C 420.62 118.51 421.20 119.20 421.66 119.77 C 422.11 120.34 422.67 121.07 423.11 121.67 C 423.54 122.27 424.08 123.04 424.49 123.67 C 424.91 124.31 425.42 125.12 425.81 125.79 C 426.21 126.45 426.69 127.31 427.07 128.00 C 427.44 128.70 427.90 129.59 428.25 130.32 C 428.61 131.05 429.04 131.99 429.37 132.75 C 429.71 133.51 430.12 134.49 430.43 135.28 C 430.73 136.07 431.10 137.09 431.37 137.92 C 431.63 138.75 431.95 139.81 432.18 140.66 C 432.42 141.52 432.69 142.62 432.88 143.51 C 433.08 144.40 433.30 145.55 433.46 146.47 C 433.62 147.39 433.80 148.57 433.92 149.53 C 434.05 150.48 434.18 151.71 434.27 152.69 C 434.35 153.68 434.44 154.95 434.49 155.96 C 434.54 156.98 434.58 158.33 434.60 159.34 C 434.62 160.35 434.62 161.60 434.61 162.57 C 434.60 163.54 434.57 164.74 434.53 165.66 C 434.49 166.58 434.43 167.72 434.36 168.60 C 434.29 169.48 434.19 170.56 434.10 171.40 C 434.00 172.23 433.86 173.26 433.74 174.05 C 433.62 174.84 433.44 175.81 433.29 176.55 C 433.14 177.30 432.93 178.21 432.75 178.92 C 432.57 179.62 432.32 180.46 432.12 181.13 C 431.92 181.81 431.65 182.65 431.43 183.32 C 431.21 183.99 430.93 184.83 430.69 185.48 C 430.46 186.14 430.15 186.97 429.90 187.62 C 429.65 188.27 429.32 189.09 429.06 189.73 C 428.79 190.37 428.44 191.18 428.16 191.82 C 427.88 192.45 427.51 193.25 427.21 193.87 C 426.91 194.50 426.52 195.29 426.21 195.90 C 425.89 196.52 425.52 197.25 425.15 197.91 C 424.78 198.57 424.26 199.46 423.79 200.20 C 423.33 200.95 422.69 201.95 422.13 202.79 C 421.58 203.63 420.82 204.74 420.17 205.67 C 419.52 206.59 418.64 207.82 417.90 208.83 C 417.16 209.85 416.16 211.18 415.33 212.29 C 414.49 213.39 413.38 214.84 412.45 216.03 C 411.52 217.23 410.29 218.79 409.27 220.07 C 408.25 221.35 406.89 223.06 405.79 224.40 C 404.69 225.73 403.27 227.42 402.11 228.76 C 400.95 230.11 399.45 231.81 398.23 233.17 C 397.01 234.52 395.44 236.24 394.16 237.61 C 392.88 238.98 391.22 240.72 389.88 242.10 C 388.54 243.48 386.81 245.23 385.41 246.62 C 384.01 248.02 382.20 249.78 380.74 251.19 C 379.28 252.59 377.40 254.37 375.87 255.79 C 374.35 257.21 372.38 259.01 370.81 260.43 C 369.24 261.86 367.24 263.66 365.64 265.09 C 364.04 266.52 362.00 268.32 360.36 269.76 C 358.73 271.19 356.65 273.00 354.98 274.44 C 353.31 275.88 351.19 277.69 349.49 279.14 C 347.79 280.58 345.63 282.40 343.90 283.84 C 342.17 285.29 339.97 287.12 338.20 288.57 C 336.44 290.02 334.19 291.85 332.40 293.30 C 330.60 294.76 328.21 296.67 326.49 298.05 C 324.77 299.43 322.72 301.07 321.19 302.28 C 319.65 303.50 317.84 304.94 316.49 306.00 C 315.14 307.07 313.56 308.31 312.40 309.21 C 311.24 310.11 309.89 311.15 308.92 311.90 C 307.94 312.65 306.83 313.49 306.04 314.08 C 305.26 314.67 304.38 315.31 303.78 315.74 C 303.17 316.17 302.53 316.61 302.11 316.89 C 301.70 317.16 301.39 317.34 301.06 317.52 C 300.73 317.70 300.30 317.92 299.95 318.09 C 299.60 318.25 299.15 318.44 298.79 318.59 C 298.43 318.73 297.96 318.90 297.58 319.02 C 297.20 319.15 296.71 319.29 296.31 319.39 C 295.91 319.50 295.40 319.61 294.99 319.70 C 294.58 319.78 294.05 319.87 293.62 319.93 C 293.19 320.00 292.64 320.06 292.19 320.11 C 291.75 320.15 291.16 320.19 290.72 320.21 C 290.28 320.23 289.74 320.23 289.33 320.22 C 288.92 320.21 288.42 320.18 288.04 320.14 C 287.66 320.11 287.19 320.04 286.84 319.97 C 286.49 319.91 286.06 319.80 285.73 319.71 C 285.41 319.61 285.01 319.48 284.72 319.35 C 284.42 319.23 284.06 319.06 283.79 318.90 C 283.52 318.75 283.20 318.54 282.96 318.36 C 282.72 318.18 282.44 317.93 282.22 317.73 C 282.00 317.53 281.72 317.26 281.51 317.04 C 281.30 316.83 281.03 316.54 280.82 316.31 C 280.62 316.07 280.36 315.77 280.16 315.51 C 279.97 315.26 279.72 314.94 279.53 314.67 C 279.34 314.40 279.11 314.06 278.92 313.77 C 278.74 313.49 278.52 313.12 278.34 312.82 C 278.17 312.52 277.96 312.14 277.79 311.82 C 277.62 311.51 277.42 311.12 277.26 310.77 C 277.10 310.42 276.90 309.94 276.74 309.54 C 276.57 309.14 276.37 308.60 276.21 308.14 C 276.05 307.69 275.84 307.08 275.68 306.57 C 275.52 306.06 275.31 305.39 275.15 304.83 C 274.99 304.27 274.79 303.53 274.62 302.92 C 274.46 302.31 274.26 301.50 274.10 300.83 C 273.94 300.17 273.73 299.30 273.57 298.58 C 273.41 297.86 273.21 296.98 273.04 296.15 C 272.88 295.32 272.67 294.17 272.50 293.17 C 272.33 292.17 272.12 290.80 271.95 289.64 C 271.78 288.47 271.56 286.89 271.38 285.55 C 271.20 284.21 270.98 282.41 270.80 280.90 C 270.62 279.39 270.39 277.39 270.21 275.71 C 270.02 274.03 269.79 271.80 269.60 269.96 C 269.41 268.11 269.17 265.67 268.98 263.65 C 268.79 261.63 268.52 258.93 268.35 256.79 C 268.17 254.65 267.99 251.91 267.86 249.70 C 267.73 247.48 267.60 244.65 267.52 242.36 C 267.43 240.08 267.36 237.15 267.32 234.79 C 267.28 232.43 267.26 229.41 267.26 226.98 C 267.27 224.55 267.31 221.44 267.36 218.94 C 267.41 216.43 267.50 213.23 267.59 210.65 C 267.69 208.07 267.84 204.78 267.98 202.13 C 268.12 199.48 268.34 195.92 268.50 193.37 C 268.67 190.83 268.88 187.79 269.05 185.52 C 269.21 183.26 269.43 180.57 269.60 178.59 C 269.77 176.60 269.99 174.27 270.17 172.56 C 270.34 170.85 270.57 168.87 270.75 167.44 C 270.93 166.01 271.16 164.38 271.34 163.23 C 271.52 162.08 271.76 160.81 271.95 159.93 C 272.14 159.06 272.37 158.14 272.57 157.55 C 272.76 156.95 273.00 156.51 273.20 156.07 C 273.40 155.63 273.65 155.09 273.86 154.67 C 274.07 154.26 274.33 153.75 274.55 153.35 C 274.76 152.96 275.04 152.48 275.26 152.11 C 275.48 151.74 275.77 151.30 276.00 150.95 C 276.23 150.61 276.52 150.19 276.76 149.87 C 277.00 149.55 277.31 149.16 277.55 148.87 C 277.80 148.57 278.12 148.22 278.37 147.94 C 278.63 147.67 278.93 147.36 279.21 147.10 C 279.50 146.84 279.89 146.50 280.22 146.23 C 280.55 145.96 281.00 145.61 281.38 145.33 C 281.76 145.05 282.27 144.70 282.70 144.41 C 283.13 144.12 283.70 143.76 284.17 143.46 C 284.65 143.16 285.28 142.79 285.81 142.48 C 286.34 142.18 287.03 141.79 287.60 141.48 C 288.18 141.17 288.93 140.77 289.56 140.45 C 290.18 140.13 291.00 139.71 291.67 139.40 C 292.33 139.08 293.19 138.69 293.88 138.39 C 294.58 138.10 295.48 137.73 296.20 137.45 C 296.93 137.16 297.87 136.82 298.63 136.55 C 299.39 136.28 300.37 135.95 301.16 135.70 C 301.96 135.45 302.98 135.15 303.80 134.91 C 304.63 134.68 305.69 134.39 306.55 134.17 C 307.40 133.96 308.50 133.69 309.39 133.49 C 310.28 133.29 311.40 133.09 312.35 132.86 C 313.30 132.62 314.55 132.29 315.59 131.98 C 316.63 131.68 318.00 131.25 319.13 130.88 C 320.26 130.50 321.74 129.98 322.95 129.53 C 324.17 129.08 325.76 128.47 327.07 127.95 C 328.38 127.43 330.08 126.72 331.48 126.13 C 332.87 125.53 334.69 124.74 336.17 124.07 C 337.66 123.40 339.58 122.52 341.16 121.78 C 342.73 121.03 344.88 119.98 346.43 119.24 C 347.99 118.50 349.86 117.62 351.29 116.96 C 352.71 116.30 354.42 115.51 355.72 114.93 C 357.01 114.34 358.56 113.66 359.73 113.15 C 360.89 112.64 362.28 112.05 363.32 111.62 C 364.35 111.19 365.58 110.69 366.48 110.34 C 367.39 109.99 368.45 109.59 369.23 109.31 C 370.00 109.03 370.90 108.73 371.55 108.53 C 372.19 108.33 372.86 108.16 373.45 108.00 C 374.03 107.85 374.78 107.67 375.37 107.53 C 375.97 107.39 376.72 107.23 377.32 107.11 C 377.93 106.99 378.69 106.84 379.30 106.74 C 379.91 106.63 380.69 106.51 381.31 106.42 C 381.93 106.33 382.71 106.23 383.34 106.16 C 383.97 106.08 384.76 106.00 385.40 105.95 C 386.03 105.89 386.84 105.83 387.48 105.79 C 388.12 105.75 388.98 105.71 389.59 105.68 C 390.20 105.65 390.91 105.62 391.44 105.60 C 391.96 105.58 392.58 105.56 393.02 105.55 C 393.47 105.54 393.98 105.53 394.34 105.52 C 394.70 105.52 395.11 105.52 395.40 105.52 C 395.68 105.53 395.98 105.54 396.19 105.55 C 396.39 105.56 396.59 105.58 396.71 105.60 C 396.84 105.62 396.94 105.65 396.98 105.68 C 397.02 105.71 396.96 105.76 396.98 105.79 C 396.99 105.82 397.03 105.85 397.07 105.88 C 397.11 105.91 397.18 105.94 397.26 105.96 C 397.33 105.98 397.43 106.01 397.53 106.03 C 397.63 106.04 397.77 106.06 397.90 106.08 C 398.03 106.09 398.21 106.11 398.36 106.12 C 398.52 106.13 398.73 106.14 398.92 106.14 C 399.10 106.15 399.35 106.16 399.56 106.16 Z M 51.34 329.39 C 50.82 327.96 50.06 325.91 49.54 324.43 C 49.03 322.95 48.42 321.13 47.96 319.72 C 47.51 318.32 46.98 316.59 46.59 315.26 C 46.20 313.94 45.75 312.31 45.43 311.06 C 45.11 309.80 44.74 308.27 44.48 307.10 C 44.22 305.92 43.94 304.49 43.74 303.39 C 43.55 302.29 43.34 300.96 43.21 299.94 C 43.08 298.92 42.96 297.68 42.90 296.73 C 42.83 295.79 42.82 294.64 42.79 293.78 C 42.77 292.92 42.74 291.89 42.73 291.13 C 42.71 290.36 42.70 289.45 42.70 288.78 C 42.70 288.10 42.70 287.31 42.71 286.73 C 42.72 286.15 42.74 285.48 42.77 284.99 C 42.79 284.50 42.82 283.95 42.86 283.55 C 42.89 283.16 42.94 282.72 42.99 282.42 C 43.04 282.12 43.10 281.80 43.16 281.59 C 43.22 281.38 43.29 281.22 43.37 281.06 C 43.46 280.91 43.59 280.72 43.71 280.57 C 43.84 280.43 44.02 280.26 44.19 280.13 C 44.36 279.99 44.59 279.84 44.80 279.72 C 45.00 279.60 45.29 279.45 45.54 279.35 C 45.78 279.24 46.12 279.11 46.41 279.02 C 46.69 278.92 47.08 278.81 47.41 278.73 C 47.74 278.64 48.17 278.55 48.54 278.48 C 48.91 278.41 49.41 278.31 49.81 278.27 C 50.21 278.22 50.74 278.19 51.17 278.19 C 51.60 278.18 52.16 278.20 52.62 278.24 C 53.08 278.28 53.67 278.35 54.16 278.42 C 54.65 278.50 55.28 278.62 55.80 278.74 C 56.31 278.86 56.98 279.03 57.53 279.19 C 58.07 279.35 58.77 279.57 59.35 279.77 C 59.92 279.97 60.66 280.24 61.26 280.48 C 61.86 280.72 62.53 280.97 63.26 281.33 C 63.99 281.69 65.05 282.27 66.01 282.83 C 66.96 283.39 68.31 284.23 69.49 284.99 C 70.67 285.76 72.30 286.85 73.71 287.82 C 75.12 288.78 77.03 290.13 78.67 291.30 C 80.30 292.47 82.51 294.07 84.37 295.44 C 86.23 296.81 88.72 298.67 90.80 300.24 C 92.89 301.81 95.67 303.93 97.98 305.70 C 100.29 307.48 103.61 310.05 105.89 311.82 C 108.18 313.59 110.87 315.69 112.86 317.24 C 114.85 318.80 117.17 320.62 118.87 321.96 C 120.57 323.31 122.53 324.86 123.94 325.99 C 125.35 327.11 126.94 328.40 128.05 329.31 C 129.17 330.22 130.39 331.24 131.22 331.94 C 132.04 332.63 132.90 333.38 133.44 333.86 C 133.97 334.35 134.46 334.82 134.70 335.09 C 134.94 335.36 134.87 335.42 135.02 335.62 C 135.16 335.81 135.41 336.10 135.65 336.36 C 135.89 336.61 136.26 336.98 136.60 337.31 C 136.94 337.63 137.43 338.08 137.87 338.47 C 138.30 338.85 138.92 339.38 139.45 339.84 C 139.98 340.29 140.72 340.90 141.35 341.42 C 141.98 341.94 142.84 342.63 143.57 343.21 C 144.29 343.80 145.27 344.57 146.10 345.22 C 146.92 345.87 148.12 346.79 148.95 347.44 C 149.77 348.08 150.74 348.85 151.47 349.43 C 152.19 350.00 153.04 350.69 153.66 351.19 C 154.28 351.70 155.00 352.30 155.52 352.74 C 156.04 353.18 156.63 353.69 157.05 354.06 C 157.46 354.43 157.93 354.85 158.25 355.15 C 158.56 355.45 158.90 355.79 159.12 356.02 C 159.33 356.25 159.54 356.50 159.66 356.67 C 159.77 356.83 159.70 356.88 159.87 357.09 C 160.04 357.31 160.38 357.68 160.75 358.07 C 161.13 358.45 161.73 359.04 162.31 359.60 C 162.89 360.15 163.75 360.96 164.54 361.68 C 165.32 362.41 166.45 363.43 167.44 364.32 C 168.43 365.21 169.82 366.45 171.01 367.51 C 172.21 368.57 173.86 370.02 175.26 371.26 C 176.67 372.49 178.57 374.15 180.18 375.56 C 181.79 376.96 184.10 378.93 185.77 380.41 C 187.45 381.89 189.52 383.75 191.13 385.21 C 192.74 386.68 194.71 388.51 196.25 389.96 C 197.78 391.41 199.67 393.22 201.13 394.66 C 202.59 396.09 204.38 397.88 205.77 399.30 C 207.16 400.72 208.86 402.49 210.18 403.89 C 211.49 405.29 213.10 407.04 214.34 408.43 C 215.59 409.81 217.11 411.55 218.28 412.91 C 219.44 414.28 220.89 416.05 221.97 417.34 C 223.04 418.64 224.32 420.19 225.28 421.35 C 226.24 422.52 227.37 423.91 228.21 424.94 C 229.05 425.98 230.03 427.20 230.75 428.11 C 231.48 429.01 232.31 430.07 232.92 430.85 C 233.52 431.63 234.21 432.53 234.70 433.17 C 235.19 433.82 235.73 434.55 236.10 435.07 C 236.47 435.59 236.86 436.16 237.11 436.55 C 237.36 436.94 237.55 437.26 237.74 437.60 C 237.94 437.95 238.18 438.40 238.38 438.78 C 238.57 439.16 238.82 439.66 239.01 440.07 C 239.21 440.49 239.45 441.03 239.64 441.48 C 239.84 441.93 240.08 442.53 240.28 443.01 C 240.47 443.50 240.72 444.14 240.91 444.66 C 241.10 445.19 241.35 445.87 241.54 446.43 C 241.74 446.99 241.98 447.72 242.18 448.32 C 242.37 448.91 242.63 449.73 242.81 450.32 C 242.99 450.91 243.20 451.64 243.35 452.19 C 243.50 452.75 243.68 453.42 243.80 453.93 C 243.92 454.45 244.06 455.07 244.16 455.54 C 244.25 456.02 244.35 456.59 244.42 457.02 C 244.49 457.45 244.55 457.97 244.59 458.37 C 244.63 458.76 244.66 459.23 244.67 459.58 C 244.68 459.93 244.67 460.35 244.66 460.66 C 244.64 460.97 244.60 461.33 244.55 461.61 C 244.50 461.90 244.42 462.25 244.34 462.52 C 244.26 462.79 244.14 463.13 244.02 463.39 C 243.91 463.65 243.75 463.97 243.60 464.22 C 243.46 464.47 243.25 464.78 243.07 465.01 C 242.90 465.25 242.65 465.54 242.44 465.77 C 242.23 465.99 241.94 466.27 241.70 466.48 C 241.46 466.69 241.13 466.95 240.86 467.15 C 240.58 467.35 240.22 467.60 239.91 467.78 C 239.59 467.97 239.16 468.18 238.80 468.34 C 238.44 468.50 237.95 468.68 237.53 468.81 C 237.12 468.95 236.57 469.10 236.11 469.21 C 235.65 469.32 235.04 469.44 234.53 469.53 C 234.02 469.61 233.34 469.70 232.79 469.76 C 232.23 469.82 231.49 469.88 230.89 469.92 C 230.28 469.96 229.48 469.99 228.83 470.00 C 228.17 470.01 227.35 470.03 226.61 470.00 C 225.88 469.97 224.88 469.91 224.04 469.83 C 223.20 469.75 222.06 469.62 221.11 469.49 C 220.16 469.35 218.89 469.16 217.83 468.97 C 216.77 468.79 215.36 468.52 214.19 468.29 C 213.02 468.05 211.47 467.72 210.19 467.43 C 208.91 467.14 207.23 466.74 205.84 466.40 C 204.45 466.06 202.63 465.59 201.13 465.20 C 199.63 464.80 197.60 464.26 196.06 463.83 C 194.52 463.39 192.59 462.83 191.08 462.36 C 189.56 461.90 187.66 461.30 186.17 460.81 C 184.68 460.31 182.81 459.68 181.34 459.16 C 179.87 458.64 178.04 457.96 176.59 457.42 C 175.15 456.87 173.34 456.16 171.92 455.58 C 170.50 455.01 168.73 454.26 167.33 453.66 C 165.94 453.05 164.19 452.27 162.82 451.64 C 161.45 451.01 159.71 450.17 158.39 449.53 C 157.07 448.89 155.45 448.10 154.21 447.48 C 152.97 446.87 151.45 446.10 150.28 445.51 C 149.11 444.91 147.69 444.17 146.60 443.59 C 145.51 443.02 144.18 442.30 143.17 441.75 C 142.16 441.19 140.93 440.50 139.99 439.97 C 139.05 439.43 137.92 438.77 137.06 438.25 C 136.20 437.74 135.17 437.10 134.39 436.60 C 133.60 436.11 132.73 435.54 131.96 435.02 C 131.19 434.50 130.19 433.80 129.37 433.21 C 128.56 432.62 127.49 431.84 126.63 431.18 C 125.76 430.52 124.64 429.65 123.73 428.93 C 122.81 428.20 121.63 427.24 120.67 426.45 C 119.70 425.65 118.46 424.61 117.45 423.74 C 116.44 422.88 115.13 421.75 114.07 420.81 C 113.01 419.88 111.65 418.66 110.54 417.66 C 109.43 416.66 107.96 415.32 106.84 414.28 C 105.73 413.25 104.35 411.94 103.28 410.91 C 102.21 409.87 100.88 408.57 99.85 407.53 C 98.82 406.50 97.55 405.19 96.56 404.15 C 95.56 403.12 94.34 401.81 93.39 400.78 C 92.44 399.74 91.27 398.44 90.36 397.40 C 89.45 396.36 88.32 395.06 87.45 394.02 C 86.58 392.99 85.51 391.68 84.68 390.65 C 83.85 389.61 82.84 388.31 82.05 387.27 C 81.25 386.23 80.27 384.92 79.50 383.88 C 78.73 382.84 77.78 381.52 77.05 380.48 C 76.31 379.43 75.40 378.11 74.69 377.06 C 73.98 376.01 73.10 374.69 72.42 373.63 C 71.74 372.58 70.89 371.25 70.24 370.19 C 69.59 369.13 68.78 367.79 68.16 366.73 C 67.53 365.67 66.76 364.33 66.16 363.26 C 65.57 362.20 64.81 360.78 64.27 359.78 C 63.72 358.78 63.08 357.60 62.60 356.72 C 62.13 355.85 61.58 354.83 61.18 354.08 C 60.78 353.34 60.32 352.48 59.99 351.87 C 59.66 351.25 59.30 350.56 59.04 350.07 C 58.79 349.59 58.51 349.06 58.33 348.70 C 58.15 348.35 57.96 347.98 57.85 347.75 C 57.75 347.53 57.65 347.32 57.62 347.22 C 57.58 347.13 57.65 347.24 57.62 347.12 C 57.58 346.99 57.50 346.72 57.39 346.41 C 57.29 346.10 57.12 345.59 56.94 345.09 C 56.77 344.59 56.51 343.85 56.27 343.16 C 56.03 342.48 55.68 341.50 55.38 340.63 C 55.07 339.76 54.63 338.55 54.25 337.49 C 53.88 336.43 53.36 334.99 52.91 333.74 C 52.46 332.50 51.85 330.82 51.34 329.39 Z M 283.59 87.53 C 283.99 85.86 284.57 83.41 284.97 81.73 C 285.37 80.05 285.85 78.05 286.21 76.56 C 286.57 75.07 286.99 73.32 287.31 72.02 C 287.63 70.73 288.01 69.22 288.29 68.12 C 288.57 67.02 288.90 65.75 289.13 64.85 C 289.37 63.94 289.65 62.92 289.85 62.21 C 290.04 61.50 290.27 60.72 290.43 60.20 C 290.58 59.68 290.76 59.15 290.88 58.83 C 290.99 58.51 291.08 58.32 291.19 58.09 C 291.30 57.87 291.46 57.58 291.60 57.35 C 291.74 57.13 291.93 56.84 292.10 56.61 C 292.27 56.39 292.50 56.10 292.70 55.88 C 292.89 55.65 293.16 55.36 293.38 55.14 C 293.61 54.91 293.91 54.63 294.16 54.40 C 294.41 54.17 294.75 53.89 295.03 53.66 C 295.31 53.43 295.68 53.15 295.99 52.92 C 296.30 52.70 296.72 52.40 297.05 52.18 C 297.38 51.97 297.80 51.71 298.14 51.52 C 298.48 51.33 298.92 51.11 299.28 50.94 C 299.63 50.78 300.09 50.58 300.45 50.44 C 300.82 50.30 301.29 50.14 301.66 50.02 C 302.04 49.90 302.53 49.77 302.92 49.68 C 303.31 49.58 303.81 49.48 304.21 49.41 C 304.61 49.34 305.13 49.27 305.54 49.23 C 305.96 49.18 306.47 49.14 306.91 49.12 C 307.36 49.11 307.97 49.11 308.47 49.14 C 308.98 49.16 309.65 49.21 310.21 49.27 C 310.77 49.33 311.52 49.42 312.14 49.52 C 312.76 49.61 313.57 49.76 314.25 49.89 C 314.92 50.02 315.81 50.21 316.54 50.38 C 317.28 50.54 318.23 50.78 319.02 50.98 C 319.81 51.19 320.84 51.47 321.69 51.71 C 322.53 51.95 323.66 52.28 324.54 52.55 C 325.41 52.83 326.53 53.19 327.41 53.49 C 328.30 53.79 329.42 54.19 330.31 54.52 C 331.21 54.85 332.34 55.28 333.24 55.64 C 334.14 56.00 335.29 56.47 336.20 56.85 C 337.11 57.24 338.26 57.74 339.18 58.16 C 340.10 58.57 341.26 59.11 342.19 59.56 C 343.11 60.00 344.29 60.58 345.22 61.05 C 346.15 61.52 347.38 62.15 348.28 62.63 C 349.18 63.11 350.27 63.71 351.10 64.19 C 351.93 64.66 352.93 65.25 353.69 65.72 C 354.44 66.18 355.35 66.76 356.04 67.22 C 356.72 67.68 357.54 68.25 358.15 68.70 C 358.76 69.15 359.48 69.71 360.02 70.15 C 360.56 70.59 361.19 71.14 361.65 71.57 C 362.12 72.01 362.66 72.55 363.05 72.97 C 363.45 73.40 363.88 73.93 364.21 74.34 C 364.55 74.76 364.93 75.27 365.22 75.66 C 365.50 76.06 365.83 76.55 366.06 76.93 C 366.29 77.31 366.56 77.78 366.75 78.14 C 366.93 78.51 367.14 78.95 367.27 79.30 C 367.41 79.65 367.55 80.08 367.64 80.41 C 367.73 80.74 367.81 81.15 367.85 81.47 C 367.89 81.78 367.91 82.17 367.91 82.47 C 367.90 82.77 367.85 83.13 367.80 83.42 C 367.76 83.70 367.69 84.05 367.62 84.33 C 367.55 84.60 367.45 84.94 367.35 85.20 C 367.26 85.46 367.13 85.78 367.01 86.03 C 366.89 86.28 366.73 86.58 366.59 86.82 C 366.45 87.06 366.25 87.35 366.09 87.57 C 365.92 87.80 365.70 88.07 365.51 88.28 C 365.32 88.50 365.06 88.76 364.85 88.96 C 364.63 89.16 364.42 89.36 364.11 89.59 C 363.80 89.82 363.31 90.17 362.84 90.47 C 362.37 90.78 361.68 91.22 361.05 91.61 C 360.42 92.00 359.52 92.53 358.73 92.99 C 357.93 93.46 356.83 94.09 355.88 94.63 C 354.92 95.17 353.62 95.90 352.50 96.52 C 351.38 97.13 349.87 97.96 348.60 98.65 C 347.32 99.35 345.60 100.27 344.16 101.04 C 342.72 101.81 340.67 102.91 339.20 103.68 C 337.74 104.45 335.97 105.36 334.61 106.05 C 333.26 106.74 331.63 107.56 330.39 108.16 C 329.16 108.77 327.67 109.48 326.54 110.01 C 325.42 110.54 324.07 111.15 323.06 111.59 C 322.05 112.04 320.84 112.55 319.95 112.91 C 319.05 113.28 317.99 113.68 317.20 113.97 C 316.42 114.25 315.50 114.56 314.83 114.76 C 314.16 114.96 313.44 115.13 312.82 115.29 C 312.21 115.44 311.43 115.62 310.81 115.76 C 310.18 115.90 309.40 116.06 308.77 116.18 C 308.15 116.30 307.36 116.45 306.73 116.55 C 306.10 116.66 305.31 116.78 304.67 116.87 C 304.04 116.96 303.24 117.06 302.60 117.13 C 301.96 117.20 301.16 117.29 300.52 117.34 C 299.88 117.40 299.07 117.46 298.42 117.50 C 297.77 117.54 296.93 117.58 296.31 117.61 C 295.69 117.64 294.95 117.67 294.40 117.69 C 293.84 117.71 293.18 117.73 292.68 117.74 C 292.19 117.75 291.60 117.76 291.17 117.77 C 290.73 117.77 290.22 117.77 289.85 117.77 C 289.47 117.76 289.04 117.75 288.73 117.74 C 288.41 117.73 288.05 117.71 287.80 117.69 C 287.55 117.67 287.27 117.64 287.08 117.61 C 286.88 117.58 286.71 117.55 286.55 117.50 C 286.38 117.45 286.17 117.36 285.99 117.28 C 285.82 117.19 285.60 117.06 285.41 116.93 C 285.23 116.81 285.00 116.63 284.81 116.47 C 284.62 116.31 284.37 116.09 284.17 115.89 C 283.98 115.70 283.72 115.43 283.52 115.19 C 283.31 114.96 283.04 114.64 282.83 114.38 C 282.61 114.11 282.34 113.74 282.12 113.44 C 281.89 113.13 281.59 112.69 281.38 112.38 C 281.17 112.08 280.92 111.72 280.73 111.45 C 280.55 111.18 280.33 110.86 280.18 110.63 C 280.02 110.40 279.84 110.13 279.72 109.93 C 279.59 109.73 279.45 109.51 279.35 109.35 C 279.25 109.19 279.14 109.01 279.07 108.89 C 279.00 108.76 278.93 108.63 278.89 108.55 C 278.84 108.46 278.81 108.37 278.79 108.32 C 278.78 108.27 278.77 108.36 278.79 108.22 C 278.82 108.07 278.89 107.76 278.96 107.40 C 279.04 107.04 279.18 106.45 279.31 105.87 C 279.44 105.29 279.64 104.42 279.82 103.63 C 280.01 102.83 280.27 101.69 280.51 100.67 C 280.74 99.66 281.08 98.24 281.37 97.00 C 281.65 95.77 282.05 94.08 282.39 92.62 C 282.74 91.17 283.20 89.20 283.59 87.53 Z M 262.33 42.37 C 262.58 42.40 262.92 42.44 263.18 42.47 C 263.43 42.51 263.74 42.57 263.98 42.62 C 264.22 42.67 264.52 42.74 264.75 42.80 C 264.97 42.87 265.25 42.95 265.47 43.03 C 265.69 43.10 265.95 43.21 266.16 43.29 C 266.36 43.38 266.61 43.50 266.80 43.60 C 267.00 43.70 267.23 43.83 267.41 43.94 C 267.59 44.05 267.81 44.20 267.98 44.32 C 268.14 44.44 268.35 44.61 268.50 44.74 C 268.66 44.88 268.86 45.04 269.01 45.18 C 269.16 45.31 269.34 45.49 269.48 45.63 C 269.62 45.77 269.80 45.95 269.93 46.09 C 270.06 46.23 270.23 46.42 270.35 46.56 C 270.48 46.71 270.63 46.90 270.75 47.05 C 270.86 47.20 271.01 47.40 271.12 47.55 C 271.23 47.71 271.36 47.91 271.46 48.07 C 271.56 48.23 271.68 48.42 271.78 48.60 C 271.87 48.77 271.97 49.00 272.05 49.20 C 272.13 49.40 272.22 49.67 272.29 49.89 C 272.36 50.11 272.43 50.41 272.49 50.65 C 272.54 50.90 272.60 51.23 272.65 51.50 C 272.69 51.77 272.73 52.13 272.76 52.42 C 272.80 52.72 272.83 53.10 272.84 53.42 C 272.86 53.74 272.88 54.16 272.88 54.50 C 272.89 54.85 272.90 55.29 272.88 55.67 C 272.87 56.04 272.83 56.53 272.78 56.94 C 272.73 57.36 272.65 57.90 272.57 58.34 C 272.49 58.79 272.36 59.38 272.25 59.86 C 272.14 60.34 271.97 60.98 271.83 61.50 C 271.68 62.02 271.48 62.69 271.30 63.25 C 271.12 63.81 270.88 64.53 270.67 65.12 C 270.46 65.72 270.17 66.49 269.93 67.11 C 269.69 67.74 269.34 68.56 269.08 69.22 C 268.83 69.89 268.51 70.74 268.27 71.43 C 268.02 72.12 267.71 73.00 267.48 73.72 C 267.24 74.44 266.94 75.36 266.71 76.11 C 266.48 76.86 266.19 77.82 265.97 78.59 C 265.75 79.36 265.47 80.36 265.26 81.16 C 265.05 81.97 264.78 83.00 264.57 83.83 C 264.37 84.66 264.11 85.72 263.91 86.58 C 263.72 87.44 263.48 88.59 263.28 89.43 C 263.08 90.27 262.82 91.29 262.61 92.06 C 262.40 92.83 262.12 93.76 261.90 94.46 C 261.67 95.16 261.38 96.00 261.14 96.63 C 260.91 97.27 260.60 98.02 260.35 98.59 C 260.10 99.15 259.78 99.82 259.52 100.31 C 259.26 100.81 258.92 101.39 258.65 101.82 C 258.38 102.24 258.03 102.74 257.74 103.10 C 257.46 103.46 257.09 103.86 256.79 104.15 C 256.49 104.45 256.10 104.79 255.79 105.04 C 255.47 105.28 255.07 105.56 254.73 105.75 C 254.40 105.94 253.97 106.15 253.63 106.29 C 253.28 106.43 252.83 106.57 252.46 106.66 C 252.10 106.75 251.63 106.82 251.25 106.86 C 250.87 106.89 250.38 106.90 249.99 106.88 C 249.59 106.87 249.08 106.81 248.67 106.74 C 248.25 106.67 247.75 106.56 247.29 106.42 C 246.84 106.28 246.23 106.05 245.71 105.83 C 245.19 105.60 244.50 105.27 243.92 104.96 C 243.34 104.65 242.56 104.20 241.91 103.81 C 241.27 103.42 240.41 102.86 239.70 102.39 C 238.98 101.91 238.05 101.25 237.27 100.68 C 236.49 100.12 235.47 99.35 234.63 98.71 C 233.79 98.06 232.69 97.18 231.78 96.45 C 230.88 95.72 229.66 94.68 228.72 93.92 C 227.79 93.15 226.61 92.21 225.69 91.48 C 224.76 90.74 223.60 89.83 222.68 89.13 C 221.76 88.42 220.61 87.55 219.70 86.87 C 218.79 86.20 217.65 85.36 216.75 84.71 C 215.84 84.06 214.71 83.26 213.82 82.64 C 212.92 82.02 211.80 81.25 210.92 80.66 C 210.03 80.07 208.92 79.34 208.04 78.77 C 207.16 78.21 206.02 77.51 205.19 76.98 C 204.36 76.45 203.37 75.79 202.63 75.29 C 201.89 74.79 201.01 74.18 200.36 73.71 C 199.71 73.24 198.95 72.67 198.38 72.23 C 197.82 71.80 197.17 71.26 196.70 70.86 C 196.22 70.46 195.68 69.97 195.30 69.59 C 194.91 69.22 194.49 68.77 194.19 68.43 C 193.89 68.09 193.58 67.69 193.37 67.38 C 193.17 67.07 193.00 66.72 192.84 66.43 C 192.69 66.14 192.51 65.77 192.38 65.48 C 192.25 65.19 192.10 64.82 191.99 64.53 C 191.88 64.24 191.75 63.87 191.66 63.58 C 191.57 63.29 191.46 62.92 191.39 62.63 C 191.32 62.34 191.25 61.97 191.20 61.68 C 191.15 61.39 191.09 61.02 191.06 60.73 C 191.03 60.44 191.01 60.07 191.00 59.78 C 190.99 59.49 190.98 59.12 191.00 58.83 C 191.02 58.54 191.08 58.17 191.14 57.88 C 191.21 57.59 191.32 57.22 191.43 56.93 C 191.54 56.64 191.71 56.27 191.87 55.98 C 192.02 55.69 192.25 55.32 192.45 55.03 C 192.65 54.74 192.93 54.37 193.17 54.08 C 193.42 53.79 193.76 53.42 194.04 53.13 C 194.33 52.84 194.73 52.47 195.06 52.18 C 195.39 51.89 195.85 51.52 196.22 51.23 C 196.59 50.95 197.08 50.60 197.49 50.32 C 197.89 50.05 198.42 49.71 198.86 49.45 C 199.30 49.19 199.87 48.87 200.34 48.62 C 200.81 48.37 201.42 48.07 201.92 47.83 C 202.42 47.59 203.07 47.30 203.61 47.08 C 204.14 46.85 204.84 46.58 205.40 46.37 C 205.97 46.15 206.70 45.89 207.30 45.69 C 207.90 45.49 208.63 45.24 209.31 45.06 C 209.98 44.88 210.92 44.66 211.72 44.49 C 212.52 44.33 213.61 44.14 214.54 43.99 C 215.47 43.85 216.72 43.68 217.77 43.56 C 218.83 43.43 220.24 43.29 221.41 43.19 C 222.59 43.08 224.16 42.97 225.46 42.88 C 226.77 42.80 228.49 42.71 229.92 42.65 C 231.35 42.58 233.23 42.52 234.79 42.47 C 236.35 42.43 238.55 42.40 240.07 42.37 C 241.58 42.34 243.38 42.30 244.70 42.28 C 246.02 42.25 247.56 42.22 248.68 42.20 C 249.80 42.18 251.09 42.15 252.02 42.13 C 252.94 42.11 253.98 42.09 254.71 42.08 C 255.43 42.06 256.22 42.05 256.75 42.04 C 257.28 42.03 257.82 42.02 258.15 42.01 C 258.48 42.01 258.77 42.00 258.90 42.00 C 259.03 42.00 258.96 42.00 259.01 42.00 C 259.05 42.00 259.13 42.01 259.21 42.01 C 259.28 42.02 259.39 42.03 259.50 42.04 C 259.60 42.05 259.75 42.06 259.88 42.08 C 260.01 42.09 260.19 42.11 260.35 42.13 C 260.51 42.15 260.73 42.18 260.92 42.20 C 261.11 42.22 261.36 42.25 261.58 42.28 C 261.80 42.30 262.09 42.34 262.33 42.37 Z" fill="#121827" fill-rule="evenodd" clip-rule="evenodd"/>
</svg>
